<?xml version="1.0" encoding="UTF-8"?>
<svg width="20px" height="20px" viewBox="0 0 20 20" version="1.1" xmlns="http://www.w3.org/2000/svg" xmlns:xlink="http://www.w3.org/1999/xlink">
    <title>D2EC5295-5BCB-4D00-9244-0646DAA67007</title>
    <g id="Public" stroke="none" stroke-width="1" fill="none" fill-rule="evenodd">
        <g id="D---My-Projects" transform="translate(-941.000000, -286.000000)" fill="#AAB7BB" fill-rule="nonzero">
            <g id="ProjectCard/Desktop" transform="translate(100.000000, 271.000000)">
                <g id="Group" transform="translate(841.000000, 15.000000)">
                    <g id="Icon-ArrowCircle-Right" transform="translate(1.666667, 1.666667)">
                        <path d="M8.33333333,-0.833333333 C13.3959435,-0.833333333 17.5,3.27072313 17.5,8.33333333 C17.5,13.3959435 13.3959435,17.5 8.33333333,17.5 C3.27072313,17.5 -0.833333333,13.3959435 -0.833333333,8.33333333 C-0.833333333,3.27072313 3.27072313,-0.833333333 8.33333333,-0.833333333 Z M8.33333333,0.833333333 C4.19119771,0.833333333 0.833333333,4.19119771 0.833333333,8.33333333 C0.833333333,12.475469 4.19119771,15.8333333 8.33333333,15.8333333 C12.475469,15.8333333 15.8333333,12.475469 15.8333333,8.33333333 C15.8333333,4.19119771 12.475469,0.833333333 8.33333333,0.833333333 Z M8.84408287,4.34142051 L8.92258898,4.41074435 L12.2559223,7.74407768 L12.2696782,7.75816038 C12.2885342,7.77792317 12.3064285,7.79861155 12.323286,7.82015043 L12.2559223,7.74407768 C12.2882959,7.77645124 12.317449,7.81082572 12.3433817,7.84680303 C12.3615711,7.87216254 12.3784661,7.89862119 12.3938555,7.92603865 C12.4007169,7.93813912 12.4072437,7.95050288 12.413438,7.96298963 C12.4267033,7.9897745 12.4386388,8.01743664 12.4490735,8.04582387 C12.451852,8.05348822 12.4544023,8.06076703 12.4568486,8.06807302 C12.4656244,8.09403503 12.4732366,8.12111579 12.479479,8.1487161 C12.4828651,8.16402349 12.4858842,8.17937548 12.4884688,8.19478615 C12.49224,8.21686866 12.4951064,8.23959515 12.4970393,8.26258725 C12.4981132,8.27568687 12.4988927,8.28840937 12.4993818,8.30114095 C12.499791,8.31159577 12.5,8.32244014 12.5,8.33333333 L12.4989545,8.37519432 C12.4982021,8.39024536 12.4970437,8.40527988 12.4954793,8.42028007 L12.5,8.33333333 C12.5,8.38535712 12.4952328,8.43626748 12.4861115,8.48565139 C12.4834484,8.49969501 12.4804203,8.51399242 12.4770135,8.52821763 C12.4596663,8.60101077 12.4325905,8.67027371 12.39732,8.73439329 C12.392078,8.74406791 12.3864254,8.75388235 12.3805565,8.76360279 C12.3661883,8.78723142 12.3509351,8.80986406 12.334639,8.83167197 C12.3316804,8.83572621 12.3284858,8.83991638 12.3252462,8.84408287 L12.3099907,8.86306703 C12.2978195,8.87783108 12.2851499,8.89216895 12.2720077,8.90605489 L12.2559223,8.92258898 L8.92258898,12.2559223 C8.59715207,12.5813592 8.06951459,12.5813592 7.74407768,12.2559223 C7.44367438,11.955519 7.42056643,11.4828265 7.67475384,11.1559171 L7.74407768,11.077411 L9.65366667,9.16566667 L5,9.16666667 C4.53976271,9.16666667 4.16666667,8.79357062 4.16666667,8.33333333 C4.16666667,7.90597013 4.48836683,7.55374403 4.90281573,7.50560644 L5,7.5 L9.65366667,7.49966667 L7.74407768,5.58925565 C7.44367438,5.28885235 7.42056643,4.8161598 7.67475384,4.48925046 L7.74407768,4.41074435 C8.04448098,4.11034105 8.51717353,4.0872331 8.84408287,4.34142051 Z" id="Combined-Shape"></path>
                    </g>
                </g>
            </g>
        </g>
    </g>
</svg>