<svg version="1.1" id="Layer_1" xmlns="http://www.w3.org/2000/svg" xmlns:xlink="http://www.w3.org/1999/xlink" x="0px" y="0px" viewBox="0 0 24 24" style="enable-background:new 0 0 512 512;" xml:space="preserve" width="24" height="24">
    <path style="fill:black;" d="M10.442 24v-2.792c-1.971 -0.088 -3.882 -0.618 -5.001 -1.264l0.883 -3.442c1.236 0.676 2.97 1.293 4.883 1.293c1.676 0 2.824 -0.646 2.824 -1.823c0 -1.118 -0.941 -1.825 -3.119 -2.561c-3.147 -1.058 -5.295 -2.529 -5.295 -5.381c0 -2.589 1.825 -4.618 4.972 -5.236V0h2.881v2.589c1.971 0.088 3.296 0.498 4.265 0.97l-0.853 3.324c-0.764 -0.323 -2.117 -1.001 -4.237 -1.001c-1.911 0 -2.529 0.824 -2.529 1.648c0 0.97 1.03 1.588 3.53 2.529c3.499 1.236 4.912 2.852 4.912 5.501c0 2.618 -1.854 4.853 -5.236 5.441V24H10.442z" />
</svg>