<?xml version="1.0" encoding="UTF-8"?>
<svg width="38px" height="40px" viewBox="0 0 38 40" version="1.1" xmlns="http://www.w3.org/2000/svg" xmlns:xlink="http://www.w3.org/1999/xlink">
    <title>D589E5BD-18F0-4557-9473-EB5E2187A21E</title>
    <g id="Public" stroke="none" stroke-width="1" fill="none" fill-rule="evenodd">
        <g id="D---Home" transform="translate(-99.000000, -1133.000000)" fill="#1295D8" stroke="#1295D8" stroke-width="0.75">
            <g id="Footer/D/Default" transform="translate(0.000000, 1108.000000)">
                <g id="Group-25" transform="translate(100.000000, 26.000000)">
                    <path d="M2.08562713,17.3239526 C1.90424679,17.3419693 1.73539725,17.3595419 1.56104176,17.3044768 C1.56104176,17.1882564 1.55901658,17.0778725 1.56148477,16.9675519 C1.56730717,16.7093549 1.55604209,16.4488107 1.58838171,16.1939125 C1.61426607,15.9900194 1.60312757,15.7921529 1.59730517,15.5899726 C1.58426806,15.139809 1.66306029,14.7080427 1.85178192,14.2910578 C2.08220963,13.7818958 2.46224765,13.4285402 2.92892548,13.1515018 C3.13783564,13.0275419 3.35218847,12.9127172 3.5597696,12.7866638 C3.74994683,12.6711412 3.94056707,12.5546671 4.1200488,12.4235386 C4.65773456,12.0307239 4.90505989,11.4937122 4.85860728,10.8310912 C4.84329185,10.6119726 4.84557017,10.3968508 4.86810032,10.1798891 C4.91043928,9.7717222 4.94258904,9.36241336 5.04827821,8.96350851 C5.2090903,8.3567773 5.5471058,7.89303773 6.12592807,7.627799 C6.39932761,7.50250684 6.69259925,7.44249349 6.98960481,7.40569883 C7.57159143,7.33363205 8.15180601,7.36801603 8.72891953,7.45524474 C9.36381402,7.55129149 9.9963036,7.66338831 10.6315778,7.7565803 C11.2281204,7.84412621 11.8275109,7.89728815 12.4312683,7.82921803 C13.1364745,7.74966544 13.7776344,7.51005609 14.3304458,7.057799 C14.4399322,6.96828648 14.5497983,6.96492421 14.6697903,7.00083072 C14.788833,7.03648347 14.8223118,7.09687746 14.7645941,7.20650017 C14.70656,7.31656694 14.634666,7.42498431 14.5470136,7.5120227 C14.462399,7.59601603 14.3563301,7.66503773 14.2484892,7.71762871 C13.710044,7.98039332 13.1576124,8.20166878 12.5540449,8.26555192 C12.0887594,8.31484407 11.6225879,8.3158591 11.1601503,8.25920801 C10.4125417,8.167602 9.66790772,8.05169883 8.92137508,7.95076728 C8.48507498,7.89176895 8.04731928,7.84146177 7.60589294,7.85332487 C7.23490496,7.86322137 6.8700558,7.9111813 6.52368643,8.05664708 C6.330598,8.13778564 6.15706524,8.24855025 5.99758217,8.38450017 C5.76481284,8.58306444 5.61191162,8.82273723 5.58425523,9.13492087 C5.55514324,9.4628374 5.52090501,9.79030985 5.48945141,10.1180361 C5.44926421,10.5364167 5.41755745,10.9558758 5.36686462,11.3730511 C5.33560088,11.6299793 5.25491004,11.8770745 5.14447435,12.1126871 C4.9117683,12.6092881 4.53685653,12.9562998 4.02840933,13.1526437 C3.39402113,13.3976454 2.87475187,13.7917289 2.44332486,14.3161162 C2.24403432,14.55839 2.15011651,14.8286404 2.11923249,15.1334017 C2.07151414,15.6044367 2.08847504,16.0754083 2.10638524,16.5466337 C2.11594157,16.7995018 2.12828252,17.0524334 2.08562713,17.3239526" id="Fill-11"></path>
                    <path d="M4.30669462,16.4928945 C4.22682651,16.5113553 4.1542364,16.5343202 4.07993755,16.5438361 C3.93399788,16.5624871 3.84552275,16.4918795 3.83666258,16.3414654 C3.82925801,16.2153486 3.83697902,16.0881533 3.84109267,15.9614654 C3.84786437,15.7537659 3.85818014,15.5461933 3.86501513,15.3384938 C3.87444488,15.0539062 3.90191141,14.7718561 3.98608303,14.4984972 C4.07949454,14.1948778 4.23733214,13.9353486 4.50377012,13.751185 C4.60971244,13.6779763 4.72356563,13.6293185 4.85235453,13.6123169 C5.22321595,13.5633419 5.59490009,13.5184905 5.96405276,13.458604 C6.30263784,13.4036658 6.61533856,13.2818628 6.88937097,13.0645205 C7.01252734,12.9667609 7.05891666,12.8607543 7.01183118,12.710594 C6.93759561,12.4740297 6.87089119,12.2349913 6.79311155,11.9996324 C6.6945738,11.7015957 6.58356852,11.4080631 6.55584885,11.0908043 C6.53009107,10.7970815 6.58717588,10.5241666 6.74938028,10.2792284 C7.19605944,9.60455392 7.80475314,9.18826678 8.62292658,9.10091119 C9.0702386,9.05314157 9.5123611,9.08917496 9.95321786,9.15559566 C10.5281163,9.24218998 11.1007998,9.34407312 11.6763311,9.42584608 C12.1647164,9.49524841 12.6540509,9.49740534 13.1400313,9.38835359 C13.57823,9.2899596 13.9706089,9.09957896 14.3093206,8.80515826 C14.3924796,8.73283773 14.4745628,8.70016661 14.5819607,8.70784274 C14.6760051,8.71456728 14.7708722,8.7092384 14.8962436,8.7092384 C14.8475126,8.78841035 14.8177678,8.844998 14.7804285,8.89587613 C14.6373367,9.09063406 14.4534249,9.24104808 14.2515396,9.36995626 C13.8635907,9.61762237 13.4376064,9.77089115 12.9950409,9.8895222 C12.4214714,10.0432351 11.8440415,10.0380965 11.2635738,9.95727513 C10.7227236,9.88197295 10.1838987,9.79246043 9.64273218,9.7201399 C9.21567197,9.66310818 8.78690301,9.6360197 8.3588935,9.72458063 C7.80791748,9.8385172 7.44427078,10.1688444 7.22523471,10.6807977 C7.12903858,10.905816 7.10150876,11.1264571 7.18118701,11.3595322 C7.254853,11.5750982 7.32294973,11.7926307 7.39762831,12.007816 C7.50306434,12.3114354 7.57356598,12.6184805 7.56388308,12.9446207 C7.55635193,13.198821 7.46104182,13.3892017 7.25282781,13.5337793 C7.01891932,13.6961833 6.75918975,13.7908344 6.48389161,13.8416491 C6.16587478,13.9003302 5.84380759,13.9375689 5.52623377,13.9985339 C5.33358835,14.0355189 5.13993035,14.0836691 4.95779056,14.1551015 C4.59211867,14.2986007 4.38517041,14.579826 4.33795836,14.9695957 C4.31916214,15.1244504 4.32764259,15.2824771 4.32213663,15.4390447 C4.31846599,15.5452417 4.30840336,15.6513119 4.30739077,15.7575088 C4.30511244,15.9952785 4.30669462,16.2330481 4.30669462,16.4928945" id="Fill-13"></path>
                    <path d="M16.1366231,9.71476661 C16.1112451,9.85484007 16.0920691,9.9843192 16.0637799,10.1116414 C15.9828992,10.4757816 15.8506295,10.8196848 15.6430483,11.1313609 C15.3861667,11.5170705 15.045683,11.7864327 14.5879919,11.8975145 C14.4165476,11.9391306 14.2519383,12.0106264 14.079608,12.0461523 C13.6625471,12.1321756 13.2428915,12.1050871 12.8277292,12.0306097 C12.3700382,11.9483927 11.9157646,11.8473977 11.4585165,11.7623259 C11.1399934,11.7030104 10.8197615,11.6589202 10.4935807,11.7101155 C10.1742981,11.7602958 9.9117839,11.9022725 9.70970874,12.1577416 C9.63743506,12.2491573 9.59338736,12.3470437 9.59490624,12.4636447 C9.59901989,12.7879452 9.60724719,13.1122457 9.6076902,13.4365462 C9.60806992,13.7248768 9.61996787,14.015174 9.59148875,14.3010938 C9.54630188,14.7540487 9.29068597,15.0522758 8.85463901,15.1907633 C8.58269507,15.2771038 8.30049865,15.3024795 8.01950468,15.3379419 C7.67370489,15.381588 7.32562677,15.4166698 6.98432035,15.4844227 C6.44112863,15.5921422 6.02311845,15.9048968 5.71915132,16.3603259 C5.57371796,16.5781756 5.46416828,16.8203225 5.34227765,17.0535245 C5.23677834,17.2553876 5.14184794,17.4629603 5.0326147,17.6627933 C4.95008854,17.8137783 4.84256405,17.9480154 4.70200377,18.0618885 C4.63105912,18.0025095 4.59207437,17.9297449 4.5926378,17.8493042 C4.59346669,17.7342891 4.59720062,17.6150871 4.62745177,17.505401 C4.69453591,17.2620487 4.7740243,17.0218684 4.85712004,16.783401 C5.063119,16.1921489 5.42834788,15.7276481 5.96641336,15.4029035 C6.36607033,15.1617082 6.80173756,15.0126898 7.25645415,14.9307265 C7.6988298,14.8509202 8.14601525,14.7951573 8.59288427,14.7444694 C8.76236667,14.7253109 8.88767479,14.6537516 8.95811315,14.5120287 C9.02000776,14.3875613 9.07183976,14.2475513 9.08348456,14.1105863 C9.10626785,13.843825 9.10639443,13.574209 9.10031888,13.3060521 C9.09139542,12.9099386 9.08582617,12.5149035 9.17911111,12.1264661 C9.25486556,11.8112374 9.40776679,11.5441589 9.6721163,11.3467366 C9.84432004,11.2181456 10.0328518,11.1546431 10.2492298,11.1503292 C10.7124269,11.141194 11.1670802,11.2038083 11.6208475,11.2855179 C12.0884746,11.3697015 12.5547727,11.4662558 13.0256275,11.5259519 C13.6059686,11.5994778 14.1785888,11.5602725 14.7103256,11.2768902 C14.7905734,11.2340688 14.8678467,11.1855379 14.946196,11.1391639 C15.1504229,11.0182491 15.289401,10.8417616 15.3756611,10.623214 C15.4388847,10.4630938 15.4916027,10.2987866 15.5572313,10.1397449 C15.5993804,10.0373543 15.6461494,9.93401202 15.7091832,9.84392855 C15.8053793,9.70632922 15.943598,9.66090684 16.1366231,9.71476661" id="Fill-15"></path>
                    <path d="M29.5966521,9.06780234 C29.5419089,9.02688414 29.4933045,8.99167546 29.4459026,8.95500768 C27.8677797,7.73463038 26.2042827,6.64918798 24.4161105,5.76104107 C22.5758531,4.84694758 20.6530696,4.17462037 18.6361784,3.77780902 C18.4179651,3.73492421 18.1988657,3.69521135 17.9788804,3.66342838 C17.9181882,3.65467379 17.8492687,3.67047012 17.7899056,3.69146845 C17.4894825,3.7979192 17.1853255,3.80350184 16.8783839,3.73225977 C16.8118061,3.71678063 16.7494052,3.68334825 16.6778909,3.65530818 C16.7661762,3.49658364 16.8932563,3.40960868 17.0408415,3.35010284 C17.2803192,3.25361202 17.5318215,3.23369215 17.7862349,3.24866377 C18.5732079,3.29510117 19.3341067,3.4791379 20.0913348,3.68626644 C21.7926774,4.15165543 23.4484533,4.73973556 25.0369553,5.51147179 C26.5821057,6.2620828 28.0284652,7.16875392 29.3583135,8.25895426 C29.4755209,8.35493756 29.5817796,8.46449683 29.6905699,8.57031319 C29.7228462,8.60171553 29.7507558,8.63939833 29.7737289,8.67822304 C29.8333452,8.77915459 29.8303074,8.80636995 29.7549327,8.8936621 C29.7057587,8.95063038 29.6536736,9.00525142 29.5966521,9.06780234" id="Fill-17"></path>
                    <path d="M19.7158535,6.61864207 C19.8105307,6.78719967 19.8188213,6.96286244 19.8154671,7.13173723 C19.8109104,7.36646177 19.8340102,7.5966187 19.8604008,7.82842504 C19.8964744,8.14562037 19.9184349,8.46440167 19.9520403,8.78191419 C19.9604574,8.86127646 19.9852026,8.9402581 20.0122261,9.01587746 C20.03425,9.07773055 20.0844365,9.09796761 20.1472805,9.06681903 C20.2107573,9.03541669 20.2751201,9.00534658 20.3370147,8.97115292 C20.9263426,8.6455202 21.5137086,8.31646177 22.1049984,7.99444508 C22.3180855,7.87835159 22.5399694,7.77830818 22.7583726,7.67217462 C22.8025469,7.65073222 22.8494425,7.63493589 22.9078564,7.61133656 C22.9176026,7.66221469 22.9281715,7.69977062 22.9316523,7.73796093 C22.9576632,8.02305609 22.9251337,8.3049793 22.8829213,8.58626811 C22.827925,8.9524384 22.7765993,9.318799 22.8036861,9.69099599 C22.8158372,9.85822137 22.8465946,10.0206254 22.9206403,10.1884217 C22.9771556,10.1762414 23.0305064,10.1670427 23.0825916,10.1530861 C24.0131626,9.90345342 24.9080398,9.55307947 25.7958289,9.18335659 C26.3282618,8.96157362 26.8543028,8.7226621 27.3938239,8.51997429 C27.7231058,8.39626811 28.0470083,8.46693923 28.3567345,8.68662871 C28.3004725,8.7348424 28.2614877,8.77157362 28.219212,8.80405442 C27.8529706,9.08591419 27.4378716,9.27134658 27.0004956,9.4066621 C26.5271094,9.5531429 26.0472046,9.67887913 25.5751474,9.82954691 C25.2866855,9.92166043 25.0084762,10.0453032 24.7244444,10.1515636 C24.5586327,10.2135436 24.3902262,10.2683549 24.223655,10.3280511 C23.7188151,10.508789 23.2142917,10.6902881 22.709705,10.8715336 C22.6671129,10.8868224 22.6244575,10.9018574 22.5662968,10.9225386 C22.5293372,10.863794 22.4869983,10.8082848 22.4571269,10.7468124 C22.3559943,10.5382881 22.3041623,10.3137773 22.306504,10.0847623 C22.310491,9.67957696 22.3334009,9.27458197 22.3490328,8.86952354 C22.3542856,8.73382738 22.3615003,8.59819466 22.3689049,8.43769382 C22.2956186,8.45571052 22.2432803,8.46484574 22.1933469,8.4813399 C21.912796,8.57408781 21.6560409,8.71663539 21.4051082,8.86965042 C21.1068369,9.05153022 20.8132488,9.24127646 20.5128258,9.41941336 C20.2510077,9.57464875 19.9767855,9.70558698 19.6788939,9.77841503 C19.6262392,9.79129316 19.5721288,9.79827145 19.4983996,9.8116571 C19.5311189,9.04004775 19.4514407,8.30187078 19.1271584,7.58875225 C19.0672257,7.61336661 19.016786,7.6320177 18.9681184,7.65434825 C18.5541586,7.84434825 18.1401355,8.03390417 17.7026329,8.16560367 C17.3567698,8.26970718 17.0054641,8.34139332 16.6425768,8.33092588 C16.2874106,8.32064875 15.9543947,8.22923306 15.6464405,8.04646511 C15.5632182,7.99710952 15.5265751,7.94052187 15.5240436,7.84117629 C15.5180313,7.60378731 15.5623955,7.37750017 15.6423902,7.15628815 C15.7113096,6.9657172 15.7851655,6.7768591 15.8481993,6.58438497 C15.895348,6.44050518 15.9263586,6.29186745 15.9184478,6.11880568 C15.7898487,6.0873399 15.664857,6.05175058 15.5377769,6.02675559 C15.0951481,5.9397172 14.6467602,5.89987746 14.1972964,5.86942671 C13.6067027,5.8294601 13.0150965,5.79951686 12.4260851,5.74223139 C11.8906143,5.69008447 11.3667884,5.57494257 10.8820105,5.32492922 C10.8504936,5.30868881 10.81904,5.29238497 10.7884092,5.27462204 C10.7756885,5.26726311 10.7651196,5.25609783 10.736324,5.23237162 C10.7684105,5.09927646 10.7960036,4.95596761 10.837773,4.81690918 C10.9756119,4.35824474 11.2196463,3.95750017 11.5201959,3.58904608 C11.8547939,3.1787222 12.2444516,2.82409783 12.6428428,2.47854524 C13.1288231,2.05699265 13.6178412,1.63969048 14.0798991,1.19035159 C14.4804421,0.800835726 14.9792697,0.570995993 15.5173985,0.437012688 C16.4911312,0.194421703 17.435119,0.268835726 18.3657534,0.668501836 C19.3880272,1.10750017 20.3455584,1.66341669 21.3074565,2.21419466 C21.4291572,2.28391419 21.551744,2.35198431 21.6855959,2.42741336 C21.7793871,2.2467389 21.8057145,2.06688915 21.8144481,1.88640501 C21.8249537,1.66874558 21.8128659,1.45000768 21.8226754,1.23234825 C21.833624,0.98988414 21.8483066,0.746658765 21.8812791,0.506541903 C21.8967211,0.394445075 21.9579828,0.288311519 22.0004484,0.180274791 C22.0367118,0.0879075125 22.1036693,0.0588524207 22.203726,0.063990985 C22.6805297,0.0885419032 23.1327781,0.201970952 23.5581929,0.420391653 C23.8212134,0.555453422 24.0589824,0.725787312 24.2741579,0.929046077 C24.3675694,1.01722638 24.4458554,1.11466878 24.4968013,1.23310952 C24.5708471,1.4052197 24.6447662,1.57739332 24.718622,1.74956694 C24.7342539,1.78610785 24.7495061,1.82277563 24.7656442,1.86096594 C25.1225825,1.67775392 25.490153,1.72114624 25.8556983,1.78147679 C26.101125,1.82201436 26.3361727,1.90359699 26.5557783,2.02336995 C26.7400066,2.12385743 26.9042995,2.24908614 27.0237219,2.42589082 C27.0322024,2.43845175 27.0401132,2.45196427 27.0508087,2.46243172 C27.5479276,2.95211786 27.8383513,3.56544674 28.0628933,4.2102414 C28.2342743,4.70233823 28.3672402,5.20775726 28.5171669,5.7073399 C28.5245082,5.73157362 28.5344442,5.75587078 28.5364061,5.7807389 C28.5468485,5.91116962 28.6300708,5.95119967 28.7460757,5.97410117 C29.1085833,6.04591419 29.4650153,6.14107279 29.8096759,6.27753022 C29.9625771,6.33798765 30.0954164,6.42350351 30.2152818,6.53744007 C30.79518,7.08859866 31.1390812,7.76105275 31.2553392,8.55105943 C31.2825526,8.73592087 31.2964125,8.92268548 31.2911596,9.11972721 C31.2727431,9.09593756 31.250656,9.07417796 31.2366063,9.04797763 C31.0881985,8.77112955 30.944727,8.49155359 30.7927118,8.21660868 C30.6183563,7.90093589 30.4208378,7.60042504 30.1754111,7.33404441 C29.9639694,7.10452187 29.7295546,6.9001212 29.4396372,6.78155359 C29.0591562,6.626001 28.6636761,6.5186621 28.2489569,6.50400768 C28.0625769,6.49741002 28.0562482,6.5012798 28.0011886,6.31686244 C27.8606283,5.84608114 27.7262701,5.37339666 27.5892539,4.90153689 C27.4733123,4.50212454 27.3450929,4.10715292 27.1625101,3.73222805 C26.9785983,3.35438497 26.7463353,3.01314624 26.4143953,2.74809783 C26.097581,2.49516628 25.733871,2.35382404 25.3367455,2.29063873 C25.2383976,2.27496928 25.1535931,2.31106611 25.0848002,2.37126978 C25.0055017,2.440799 24.9379745,2.52396761 24.8673463,2.60301269 C24.8100717,2.66708614 24.7569739,2.73502938 24.6995094,2.7990394 C24.6796373,2.82117963 24.6542592,2.84052855 24.6278686,2.85454858 C24.545026,2.89838497 24.4575002,2.92832821 24.3695946,2.87294591 C24.3031433,2.83107613 24.2732719,2.70838497 24.3113073,2.60897596 C24.3973143,2.3847823 24.3753537,2.16299933 24.2685887,1.96081903 C24.1317623,1.70173389 23.9679125,1.45698598 23.8150745,1.20640167 C23.8073535,1.19371386 23.7964049,1.18172387 23.7841905,1.1731596 C23.4356694,0.928602003 23.0892367,0.679223038 22.6606576,0.590344908 C22.5880042,0.57530985 22.5126928,0.572708848 22.4366852,0.564208013 C22.3318187,0.783009349 22.3051749,1.00371386 22.300112,1.2262581 C22.2921378,1.57320634 22.3655507,1.9110828 22.426496,2.25041836 C22.4729486,2.50950351 22.5119966,2.77023806 22.5445261,3.03148013 C22.5697143,3.23315292 22.3535261,3.42791085 22.1547419,3.38147346 C22.0686717,3.36136327 21.9793738,3.32184073 21.9106442,3.26702938 C21.6798368,3.08292922 21.423588,2.94615459 21.1655672,2.80519299 C20.6549682,2.52612454 20.1605074,2.21749349 19.6586421,1.92237496 C19.1038688,1.59623472 18.5397291,1.28868214 17.9303393,1.07444841 C17.4001214,0.888064441 16.8564234,0.786181302 16.2919039,0.814475125 C15.9304723,0.832555259 15.5801158,0.904558598 15.2395056,1.02528314 C15.1971666,1.04025476 15.1545112,1.05973055 15.1179947,1.08561369 C14.2535585,1.69799098 13.4026024,2.32768715 12.6403746,3.06814791 C12.1332564,3.56075225 11.6760084,4.09465543 11.3124882,4.7045586 C11.2791993,4.76038497 11.2494544,4.81830484 11.2090141,4.89170384 C11.4241264,4.9798207 11.6081015,5.10333656 11.8384026,5.12154357 C12.7210654,5.19132654 13.6047409,5.252799 14.4852519,5.34459533 C15.0428098,5.40264207 15.5954945,5.50788748 16.1499513,5.59454524 C16.2174152,5.60507613 16.275386,5.61852521 16.327218,5.55337329 C16.3670255,5.50338331 16.4255659,5.5118207 16.4807521,5.5364985 C16.5589748,5.57145342 16.637767,5.60507613 16.7347226,5.64726311 C16.520876,6.29662538 16.2629818,6.93272888 16.0362247,7.59008447 C16.2678549,7.74842838 16.5160662,7.83768715 16.7872507,7.8623015 C17.1246967,7.89300601 17.4398656,7.80977396 17.7414911,7.66456194 C18.021156,7.5298808 18.2763289,7.35605776 18.5223252,7.16840501 C18.7235777,7.01475559 18.9243238,6.86021803 19.1210829,6.70073222 C19.1966475,6.63945008 19.2744271,6.61210785 19.3711928,6.61724641 C19.4865649,6.62333656 19.6025066,6.61864207 19.7158535,6.61864207" id="Fill-8"></path>
                    <path d="M29.9924422,31.1369462 C29.9883918,31.1293336 29.9842149,31.1217843 29.9801013,31.1141716 C29.9576344,31.1191199 29.9340917,31.1214037 29.9128905,31.1295873 C29.5118413,31.2837442 29.1122476,31.4415806 28.7099326,31.5925022 C28.4263438,31.6988895 28.1398439,31.7979179 27.8534705,31.8968828 C27.7106319,31.946175 27.5653884,31.9365322 27.419512,31.9030998 C27.1684528,31.8454972 26.9456195,31.7260414 26.7361398,31.5831766 C26.5021047,31.4235639 26.2781955,31.2490431 26.0454895,31.08721 C25.8670204,30.9631232 25.6829187,30.8470932 25.4990068,30.7312534 C25.4505923,30.7008027 25.3932544,30.6846257 25.3400301,30.6619145 C25.3314231,30.6709229 25.3226895,30.6800581 25.3140192,30.6890664 C25.6242517,31.3455973 25.9344842,32.0020648 26.2485773,32.6667793 C26.0596658,32.898776 25.8482874,33.0987359 25.60843,33.2702751 C25.3157912,33.4795606 25.0313164,33.6992501 24.786839,33.9657576 C24.7470315,34.0091499 24.7119073,34.0569195 24.672353,34.1055773 C24.6987436,34.1227058 24.7102618,34.133998 24.7239318,34.1383119 C24.7575372,34.1488427 24.7919653,34.1572801 24.8264566,34.1645122 C25.4745781,34.2995105 26.1228261,34.2963386 26.7684161,34.1525222 C26.9153051,34.1198511 26.943974,34.0791232 27.0565615,34.2795907 C27.1679465,34.4778377 27.2724332,34.6819846 27.3573643,34.8926658 C27.560009,35.3950397 27.7484775,35.9030598 27.9451733,36.4078444 C27.9652985,36.4592301 27.9629569,36.5281249 28.0430149,36.5661883 C28.0430149,36.1826357 28.0413061,35.8131032 28.0435212,35.4436975 C28.0457995,35.0704855 28.0335851,34.6968928 28.0523814,34.3021115 C28.1375023,34.3141015 28.2090798,34.3131499 28.2726832,34.3352902 C28.4587467,34.4000614 28.6405068,34.4772033 28.8260008,34.543624 C29.1683831,34.6663152 29.5088035,34.796175 29.8566285,34.9014204 C30.1285091,34.9837008 30.4112751,35.0190364 30.69556,34.950776 C30.7263175,34.943417 30.753784,34.9225456 30.8048565,34.8968528 C30.6910034,34.7416808 30.5941743,34.5938043 30.4815236,34.4591232 C30.1057891,34.0098477 29.6471487,33.6489429 29.2088867,33.2656441 C28.9733328,33.0596574 28.7583471,32.8300715 28.5339316,32.6113336 C28.482416,32.5610898 28.4765304,32.5071666 28.5193756,32.4491199 C28.5913961,32.3515506 28.6544932,32.2451633 28.7385383,32.1592033 C28.8690992,32.0256007 29.0080773,31.8985322 29.1542701,31.7822484 C29.3840017,31.5994805 29.6229731,31.4285122 29.8571348,31.2513903 C29.9041569,31.215801 29.9474452,31.1752634 29.9924422,31.1369462 L29.9924422,31.1369462 Z M28.1297813,37.9583586 C28.0613048,37.7895472 27.9910563,37.6214337 27.9247316,37.4517342 C27.6518384,36.752826 27.3652119,36.0600715 26.9987805,35.4038578 C26.8876487,35.2049129 26.7623406,35.0140247 26.6474748,34.8171733 C26.6036169,34.7421883 26.5485573,34.7182718 26.4614112,34.7224588 C26.1482042,34.7374304 25.833858,34.7616007 25.5212838,34.7488494 C25.0161909,34.7281683 24.5121105,34.6819212 24.0078402,34.6444922 C23.8718366,34.6344688 23.736276,34.6172768 23.5943198,34.6028127 C23.5938171,34.5332835 23.6469148,34.5041015 23.6816593,34.4669896 C24.1739051,33.9417142 24.6922883,33.4435272 25.23105,32.966402 C25.3858498,32.8293102 25.5359031,32.686826 25.6965254,32.5390765 C25.2316196,31.7736207 24.9610047,30.9384454 24.6786817,30.0699012 C24.8375951,30.1023185 24.9699914,30.1130397 25.0899834,30.1573836 C25.3407262,30.2500047 25.5917222,30.3468127 25.8300608,30.4668394 C26.1054222,30.6055172 26.3662909,30.7727426 26.6351338,30.9244888 C26.9532772,31.1040848 27.2805972,31.2619846 27.6402569,31.3428694 C27.7365163,31.3645022 27.8276495,31.3655172 27.9239722,31.3389362 C28.3449568,31.2227159 28.7468921,31.0650698 29.1323095,30.8555306 C29.4173539,30.7006124 29.7363833,30.6267058 30.0547166,30.5639646 C30.2488809,30.5256474 30.4439945,30.4977977 30.6418927,30.537003 C30.747835,30.5579379 30.8464361,30.592195 30.9268737,30.7037843 C30.8769404,30.7715372 30.8323864,30.8511533 30.7700487,30.9126257 C30.6403105,31.0404554 30.5018387,31.1594671 30.3657085,31.2807626 C30.1085737,31.5097776 29.8429585,31.7299746 29.5961395,31.969584 C29.4670341,32.0949396 29.3582439,32.2461783 29.2623642,32.399574 C29.1602824,32.562993 29.1714841,32.598392 29.3081839,32.7277442 C29.5470921,32.9537142 29.7927719,33.1723886 30.0319965,33.3979145 C30.1903404,33.5471232 30.3507728,33.6955706 30.4958265,33.8573402 C30.8967492,34.3043953 31.2150191,34.810195 31.5304412,35.3444788 C31.4638001,35.3633836 31.4082974,35.3812735 31.3517822,35.3948494 C30.9221905,35.4977476 30.4978516,35.450993 30.0749684,35.3508227 C29.7650523,35.2774237 29.455326,35.2029462 29.1437645,35.1371599 C29.0156084,35.1101349 28.8834653,35.098018 28.7523981,35.0911032 C28.5943706,35.0827292 28.5112749,35.1448361 28.4852007,35.2982952 C28.4632401,35.4273302 28.4533041,35.5601082 28.4538736,35.6911098 C28.456595,36.2689763 28.4662146,36.8468427 28.4707713,37.4247092 C28.4722901,37.6123619 28.4759608,37.8024254 28.3424254,37.9583586 L28.1297813,37.9583586 Z" id="Fill-6"></path>
                    <path d="M35.526897,32.0905115 C35.5372127,32.049403 35.5465792,32.0218705 35.5508827,31.9935766 C35.5893612,31.7431826 35.63189,31.4932962 35.664103,31.2420775 C35.7796017,30.3414965 35.8415596,29.4364114 35.8864933,28.5298671 C35.907821,28.0994965 35.9416795,27.6697603 35.9629439,27.2393896 C35.9756646,26.9819539 36.012371,26.725216 35.9800947,26.4655599 C35.9602226,26.3050591 35.9535774,26.1420207 35.9521851,25.9800608 C35.9479449,25.5037603 35.9661715,25.0265716 35.9443376,24.5512227 C35.917757,23.9743713 35.8740258,23.397393 35.8110553,22.8233963 C35.7172008,21.9670324 35.5734129,21.1180908 35.3994371,20.2736534 C35.2069182,19.3387519 34.9677569,18.4199639 34.6182232,17.5298504 C34.4481079,17.096625 34.3097627,16.6507119 34.1657217,16.2076534 C34.1035106,16.0161943 34.0633867,15.8175666 34.0097194,15.6087252 C33.9518751,15.6087252 33.8974484,15.6082177 33.8430216,15.6089155 C33.7670773,15.6098037 33.6911962,15.6143078 33.6154418,15.6125316 C33.5293716,15.6105015 33.461528,15.5743412 33.4152652,15.4909823 C33.4464657,15.4529823 33.4750081,15.4186618 33.5031075,15.3838337 C33.6570846,15.1932628 33.7096127,14.979029 33.6391111,14.7427185 C33.6074676,14.6367119 33.5693056,14.5296267 33.5148789,14.4339606 C33.3846344,14.2051993 33.2431881,13.982782 33.1051593,13.7584614 C33.0984509,13.7475499 33.0814267,13.7430457 33.0580738,13.7287085 C33.1278793,14.2010124 32.9847242,14.6196467 32.7884082,15.0260374 C32.6181663,15.3785683 32.4033705,15.7041376 32.1816131,16.0255199 C31.9545396,16.3546417 31.7058219,16.6680307 31.5086832,17.0187219 C31.3636295,17.276792 31.142505,17.4767519 30.9284686,17.6787419 C30.7074706,17.887393 30.4820426,18.0916033 30.2661076,18.3053295 C30.0523243,18.5168988 29.870944,18.7540341 29.7598121,19.0379239 C29.7389907,19.0910224 29.7262068,19.1472928 29.7072207,19.2102244 C29.7898101,19.2102244 29.849996,19.2141576 29.9094857,19.2095265 C30.3735055,19.1733028 30.8371455,19.1327018 31.3012286,19.0986351 C31.8518249,19.0582244 32.3994467,18.9982745 32.9359933,18.8630224 C33.0111782,18.8440541 33.0625039,18.8576935 33.1095261,18.9140908 C33.1288919,18.937373 33.1493968,18.9616067 33.174142,18.9781643 C33.2803375,19.0491526 33.2724266,19.1336534 33.2254044,19.2399139 C33.0244684,19.6938204 32.836886,20.1537536 32.6313933,20.6055032 C31.9973215,21.9994497 31.2655981,23.3434063 30.5469117,24.6942778 C29.9187256,25.8750691 29.3040829,27.0630925 28.6840609,28.2481977 C28.6572272,28.2994564 28.6367222,28.354014 28.6132428,28.4070491 C28.6839343,28.3977235 28.7308299,28.3715232 28.7760168,28.3425316 C29.2873752,28.0143613 29.7886077,27.6688721 30.3124969,27.3623346 C30.810122,27.0710858 31.264712,26.7292761 31.687532,26.3412828 C32.0757341,25.9850725 32.4566581,25.6209322 32.8477713,25.2679573 C33.2399604,24.9140307 33.6584136,24.5946785 34.1374324,24.3642043 C34.3283058,24.272408 34.523989,24.1928554 34.7420757,24.1460374 C34.7558723,24.18962 34.7707447,24.2264147 34.7792252,24.264605 C34.854853,24.6033062 34.8727632,24.9472093 34.8624475,25.2926351 C34.8471953,25.804398 34.8321963,26.3163513 34.8063753,26.8276701 C34.7911231,27.1308454 34.7684664,27.434782 34.7260008,27.7351659 C34.6343614,28.3832594 34.4707014,29.0164447 34.3045732,29.6486785 C34.2028711,30.0355933 34.102498,30.4230157 33.9978214,30.8091693 C33.9642794,30.9328755 33.9927585,31.0280341 34.0978148,31.1004815 C34.2019218,31.1722945 34.3064718,31.2436634 34.4101358,31.3163646 C34.754037,31.5573696 35.0975584,31.7989456 35.4415229,32.0398871 C35.4648125,32.056191 35.4903804,32.0690057 35.526897,32.0905115 L35.526897,32.0905115 Z M36.453291,28.5528321 C36.4422158,28.6068187 36.4226602,28.6605516 36.4213944,28.7146651 C36.4027881,29.5020073 36.292922,30.2799606 36.1816003,31.0575332 C36.0823663,31.7496534 35.9756646,32.4406952 35.8716842,33.1320541 C35.8666845,33.1652962 35.8565586,33.197777 35.8437113,33.2526518 C35.023133,32.5581843 34.2264138,31.8627653 33.3173603,31.3031693 C33.3234359,31.2728454 33.3253345,31.2427119 33.3355237,31.2156868 C33.6147456,30.4738304 33.7925819,29.703807 33.9682031,28.9330858 C34.057058,28.542999 34.1490139,28.1535466 34.2358436,27.7629523 C34.2598926,27.6546618 34.279385,27.5439606 34.2860301,27.4334497 C34.3238124,26.8009623 34.3614048,26.1683479 34.3891878,25.5354164 C34.3969721,25.3591826 34.3731129,25.1812995 34.3602024,25.0044314 C34.3566583,24.9549489 34.34071,24.9062277 34.3259009,24.83562 C34.1731262,24.9023579 34.0359202,24.9690958 33.9159281,25.0688855 C33.4213408,25.4803513 32.9251079,25.8897235 32.4327356,26.3037269 C31.6689257,26.9460474 30.906508,27.5900808 30.08998,28.1656634 C29.3345239,28.6982344 28.5444499,29.1683179 27.6788745,29.501373 C27.6322954,29.5192628 27.58502,29.5352494 27.5169866,29.5596735 C27.5304667,29.4998504 27.5371751,29.4567753 27.5499591,29.4156668 C27.665078,29.0463245 27.8301936,28.6986785 28.0163205,28.3610558 C28.2266862,27.9794698 28.46705,27.612221 28.6498226,27.2180107 C29.1451062,26.1496968 29.7646852,25.14958 30.3157878,24.1120975 C31.0482074,22.7331225 31.7441738,21.3375265 32.3124905,19.881029 C32.3437542,19.8007786 32.3734991,19.7199573 32.4029275,19.6390725 C32.4078639,19.6254965 32.4072943,19.6099539 32.4120408,19.5745549 C32.3572976,19.5715098 32.3046429,19.5616768 32.2534438,19.5668788 C32.0623172,19.5863546 31.8720134,19.6143312 31.6807603,19.6321576 C31.464319,19.6524581 31.2469284,19.662418 31.0304238,19.6818304 C30.6274126,19.7181175 30.2247179,19.7568788 29.8220232,19.7966551 C29.5009053,19.8283746 29.1890906,19.7844114 28.8622769,19.6966751 C28.8913889,19.608812 28.9141721,19.5330023 28.9414488,19.4588421 C29.1114375,18.9976401 29.3620538,18.5805917 29.6646286,18.1978003 C29.9692919,17.8124715 30.2934475,17.4426217 30.610072,17.0668087 C30.9527708,16.6600374 31.3038866,16.2601175 31.6375353,15.8459873 C31.8987205,15.5218771 32.1143391,15.1661743 32.2800876,14.7818604 C32.6146856,14.0061275 32.6006991,13.2349623 32.2480644,12.4701409 C32.1740187,12.3094497 32.0853537,12.1551659 31.9966887,12.0018337 C31.9610581,11.9402344 31.9465654,11.8829489 31.9656781,11.8149422 C31.9970684,11.7029723 32.0263702,11.5904314 32.0649753,11.447186 C32.1213006,11.5169055 32.1647155,11.5685449 32.2059153,11.6219606 C33.1306639,12.8198805 33.8771332,14.1220307 34.4681699,15.5145816 C35.0761041,16.9470992 35.5033542,18.4345549 35.8078276,19.9591225 C35.989651,20.869029 36.128819,21.785787 36.2252682,22.708191 C36.2937447,23.3633896 36.3393113,24.0210624 36.3894345,24.677974 C36.407851,24.9205015 36.4080409,25.1642344 36.4206983,25.407206 C36.4245588,25.4820641 36.442026,25.5562878 36.453291,25.6307653 L36.453291,28.5528321 Z" id="Fill-3"></path>
                    <path d="M0.848380292,18.9980905 C0.838950539,19.0057032 0.829520786,19.0132524 0.820154321,19.0208651 C0.840722573,19.0646381 0.855721576,19.1122174 0.882871669,19.1513593 C0.986725522,19.301012 1.0807699,19.4607516 1.20386298,19.593022 C1.42087387,19.8263509 1.65307361,20.0460404 1.8850835,20.2647783 C2.38251878,20.733593 2.884574,21.1975229 3.38276872,21.6655763 C3.45630813,21.7346614 3.52256955,21.8125012 3.5852869,21.8918 C3.63211922,21.9509886 3.67224314,22.0166481 3.7073041,22.0837032 C3.77907148,22.2209219 3.79090613,22.3621372 3.72692305,22.508174 C3.70281073,22.5632391 3.68863445,22.6234427 3.67553406,22.6825679 C3.55028922,23.2485078 3.48010402,23.821426 3.47029454,24.4008785 C3.456941,25.1859369 3.55193468,25.9587516 3.74590913,26.7193225 C4.04437029,27.8898367 4.54661537,28.9706481 5.1953697,29.9840871 C6.00835361,31.2540104 6.97860554,32.3937566 8.07011524,33.4314294 C8.78525755,34.1113058 9.54875108,34.7259035 10.4210348,35.1952257 C10.4416664,35.2063275 10.4577413,35.2259302 10.4776767,35.2429953 C10.4302115,35.3819269 10.3580644,35.5008751 10.2531346,35.588421 C10.0788424,35.7338868 9.89720892,35.8717399 9.70981632,35.9998868 C9.52615765,36.1254327 9.33085418,36.2338501 9.14200598,36.3520371 C9.10257822,36.3766514 9.06922601,36.4110354 9.01169819,36.4586147 C9.0755547,36.4680037 9.10447683,36.4738401 9.13358882,36.4763142 C9.5772302,36.5138701 10.0209982,36.5498401 10.4644497,36.5893626 C10.5538108,36.5972925 10.6306412,36.5797833 10.7099397,36.5359469 C11.0706119,36.3368117 11.4573583,36.2348651 11.8705587,36.2233826 C12.3369201,36.2105045 12.786637,36.3007149 13.230848,36.4268952 C13.7172713,36.5650654 14.1993279,36.7191589 14.6877131,36.8499068 C15.2085646,36.9893459 15.7382762,37.06579 16.2798225,36.9923275 C16.4847455,36.9644778 16.6870739,36.9273025 16.8909211,36.8463543 C16.8722514,36.7897666 16.8579486,36.7421873 16.8409244,36.695623 C16.7940288,36.5670955 16.7439688,36.4397733 16.6997945,36.3103576 C16.689542,36.2803509 16.6852385,36.2361339 16.700111,36.2119002 C16.7716885,36.0952992 17.0025592,36.0373793 17.1252093,36.0989786 C17.3082984,36.1910922 17.4118991,36.4121139 17.362915,36.6085212 C17.355194,36.6393526 17.3420936,36.6688518 17.3284869,36.7072958 C17.3662692,36.7072958 17.3863312,36.7099603 17.4055704,36.7069152 C17.970786,36.6189252 18.5297361,36.5013726 19.0801426,36.3447416 C19.6697869,36.1770087 20.2455714,35.9708952 20.7986359,35.7043876 C20.8445822,35.6823109 20.9010974,35.6694962 20.9330573,35.604027 C20.8933764,35.5924177 20.8660997,35.5829653 20.8380636,35.5765579 C20.2714557,35.4461272 19.7021898,35.3263543 19.1385564,35.1840604 C17.475186,34.7640938 15.8960505,34.1353492 14.4320339,33.2327382 C13.8488449,32.873229 13.3094504,32.4528818 12.7971427,31.9973893 C12.7348683,31.9420705 12.7203123,31.8873225 12.7374631,31.8105613 C12.8582145,31.2701873 12.872201,30.7254361 12.7949909,30.1782107 C12.7365138,29.7640805 12.6253819,29.3652391 12.4355211,28.9908217 C12.4141302,28.9486347 12.3872332,28.9091756 12.3628677,28.8685112 C12.3128711,29.0054127 12.2904675,29.1338134 12.266988,29.2620237 C12.1695895,29.7928184 12.0155491,30.3052791 11.7844252,30.7942674 C11.7390485,30.8902508 11.6743059,30.9450621 11.5770339,30.9762107 C11.3415433,31.0517032 11.1082676,31.0428851 10.8767008,30.9637132 C10.5083075,30.8378501 10.1954802,30.6101673 9.87005883,30.4058935 C9.84493392,30.3900972 9.82544155,30.364785 9.80449357,30.3427716 C9.54229582,30.0676998 9.27307321,29.798972 9.01954577,29.5160337 C7.98853838,28.3653125 7.12055813,27.1053492 6.4902203,25.6883743 C5.96607794,24.5103109 5.64299816,23.2809252 5.5745217,21.9906381 C5.51427254,20.8553326 5.66318669,19.7447683 6.00215149,18.6597699 C6.01816308,18.6084477 6.03145334,18.5563008 6.04600933,18.5045346 C5.97848218,18.5167783 5.93234601,18.5438668 5.88981719,18.5757766 C5.6728063,18.7388785 5.48940078,18.9353492 5.34637231,19.1649987 C5.21524179,19.3754895 5.10138861,19.5967015 4.97614377,19.8109352 C4.83311531,20.0556197 4.68698578,20.2985279 4.53952724,20.5406114 C4.51155441,20.5865412 4.47105078,20.6248584 4.42662335,20.6783376 C3.22822203,20.1156331 2.03830116,19.5569252 0.848380292,18.9980905 L0.848380292,18.9980905 Z M1.89860792e-05,18.4472491 C0.0331180508,18.4305012 0.0719762262,18.4199703 0.0981770155,18.3956731 C0.153110071,18.344795 0.201334713,18.2866848 0.257217072,18.2262274 C0.315947344,18.2519202 0.36695661,18.2723476 0.416320416,18.2960738 C1.10519866,18.6265279 1.79243144,18.9605346 2.48308171,19.2871823 C2.98659253,19.5253326 3.50174815,19.7354427 4.03633285,19.8948017 C4.08917744,19.9105346 4.14259161,19.9245546 4.20638483,19.9424444 C4.2394839,19.8874427 4.2709375,19.8366915 4.30093551,19.7850521 C4.69603582,19.1044144 5.17461158,18.4926715 5.78153325,17.9872524 C6.12613059,17.7003175 6.5004095,17.4613426 6.91645778,17.2913893 C7.03543721,17.2427316 7.03600679,17.2442541 7.14099981,17.356795 C7.11264726,17.4314628 7.08568703,17.5127917 7.0514488,17.5908851 C6.89076328,17.9574995 6.72710328,18.3227182 6.56648105,18.6892691 C6.37915174,19.1167215 6.20188504,19.5489953 6.12018162,20.011022 C6.07891854,20.2446681 6.04866738,20.4830721 6.04468031,20.7198902 C6.03784532,21.130214 6.04379429,21.5415529 6.0645524,21.9514327 C6.1333453,23.3053492 6.474715,24.5904978 7.05973939,25.8113826 C7.63767564,27.0172958 8.42097798,28.0753326 9.36477598,29.0174027 C9.759813,29.411613 10.1770004,29.7807649 10.6181736,30.122194 C10.8043005,30.2663275 11.0252985,30.3431523 11.2440181,30.4226414 C11.3225572,30.451189 11.3654024,30.418391 11.4064124,30.3560304 C11.5704521,30.1067149 11.6805081,29.8336097 11.7284796,29.5416631 C11.7826532,29.2121606 11.812841,28.8787249 11.8518258,28.5468117 C11.8837224,28.2751022 11.9127078,28.0030755 11.9444778,27.7313659 C11.9484016,27.6974895 11.9613755,27.6645646 11.9732101,27.6198401 C12.094721,27.6513693 12.1919297,27.7116364 12.2840122,27.7808484 C12.4355844,27.8949753 12.5651961,28.0336531 12.6567722,28.1977699 C12.8344187,28.5159169 13.010293,28.8362841 13.1616754,29.1673092 C13.224899,29.3055429 13.2307847,29.4724511 13.2500872,29.6279402 C13.2894517,29.9443743 13.3312211,30.261189 13.3510932,30.579209 C13.3689401,30.8644311 13.3188801,31.1460371 13.2238231,31.4160337 C13.1918632,31.5067516 13.2053434,31.5619436 13.2782499,31.6251923 C14.0005436,32.2518434 14.7782135,32.7997032 15.6227143,33.2463142 C16.8612395,33.9013225 18.1612163,34.4079469 19.5061269,34.7957499 C20.2882268,35.0212124 21.0769085,35.2240905 21.8626158,35.4371189 C21.9207132,35.4528518 21.9789371,35.4681406 22.0427936,35.4852057 C22.039566,35.6044077 21.987291,35.7034995 21.9451419,35.8036063 C21.9321048,35.8345646 21.8862851,35.8572758 21.8505912,35.8721205 C20.4053709,36.4755529 18.9348991,36.9994962 17.3871539,37.2753292 C16.576828,37.4198434 15.7599203,37.4790321 14.9382661,37.4284077 C14.0308581,37.3724544 13.1583845,37.1667215 12.337996,36.7648351 C12.2535712,36.7234728 12.1837657,36.7201105 12.0954172,36.7532891 C11.3495807,37.0331823 10.5774801,37.1251055 9.78411518,37.0814594 C8.92094473,37.034007 8.08176003,36.8504144 7.24352463,36.6574962 C7.14992326,36.6359903 7.05670162,36.6128985 6.96354325,36.5894895 C6.94930369,36.5858735 6.93651973,36.5766748 6.91557176,36.5664611 L6.91557176,36.2373392 C7.08853494,36.2143109 7.25789077,36.195977 7.42566442,36.1684444 C7.77969151,36.1103977 8.13523749,36.0583142 8.4857838,35.9834561 C8.7942443,35.9176698 9.08226312,35.7909185 9.34300527,35.6089119 C9.39192607,35.5747182 9.43749266,35.5357032 9.49350159,35.4918668 C9.46641479,35.4609085 9.45040319,35.4362942 9.42869578,35.4188484 C8.62305315,34.7692958 7.86538202,34.0679135 7.14821452,33.3212357 C5.7638762,31.8799636 4.62673663,30.270007 3.81495517,28.4375696 C3.37580715,27.4460805 3.06715679,26.414371 2.90109189,25.3414895 C2.84204518,24.9601573 2.79331424,24.5771756 2.86691695,24.1917833 C2.94963296,23.7589386 3.03551333,23.3266013 3.12000138,22.8941372 C3.14430356,22.7697967 3.16670714,22.6450755 3.19379394,22.5214327 C3.21227373,22.4368684 3.19518625,22.3665145 3.14664518,22.2931155 C2.90704086,21.9309419 2.61573112,21.6150154 2.29360064,21.3271923 C2.05564178,21.114608 1.8052154,20.9158534 1.56915514,20.7013025 C1.29581889,20.4527482 1.01963473,20.2053993 0.76737302,19.9361639 C0.422585822,19.5681539 0.189563343,19.13182 0.0665335502,18.6390254 C0.0550153288,18.5927783 0.0226757073,18.5516698 1.89860792e-05,18.5081506 L1.89860792e-05,18.4472491 Z" id="Fill-1"></path>
                </g>
            </g>
        </g>
    </g>
</svg>