<?xml version="1.0" encoding="UTF-8"?>
<svg width="14px" height="14px" viewBox="0 0 14 14" version="1.1" xmlns="http://www.w3.org/2000/svg" xmlns:xlink="http://www.w3.org/1999/xlink">
    <title>7D15B15F-DE35-45F4-8BFB-BB8976CEAB39</title>
    <g id="Public" stroke="none" stroke-width="1" fill="none" fill-rule="evenodd">
        <g id="D---Reserves" transform="translate(-1354.000000, -216.000000)" fill="#002045" fill-rule="nonzero">
            <g id="RightRail/Reserve" transform="translate(1035.000000, 105.000000)">
                <g id="Group" transform="translate(59.500000, 71.000000)">
                    <g transform="translate(1.500000, 30.000000)" id="Search">
                        <g id="Group" transform="translate(258.000000, 10.000000)">
                            <g id="Icon-X-Circle" transform="translate(1.166667, 1.166667)">
                                <path d="M5.83333333,-0.583333333 C9.37716048,-0.583333333 12.25,2.28950619 12.25,5.83333333 C12.25,9.37716048 9.37716048,12.25 5.83333333,12.25 C2.28950619,12.25 -0.583333333,9.37716048 -0.583333333,5.83333333 C-0.583333333,2.28950619 2.28950619,-0.583333333 5.83333333,-0.583333333 Z M5.83333333,0.583333333 C2.9338384,0.583333333 0.583333333,2.9338384 0.583333333,5.83333333 C0.583333333,8.73282827 2.9338384,11.0833333 5.83333333,11.0833333 C8.73282827,11.0833333 11.0833333,8.73282827 11.0833333,5.83333333 C11.0833333,2.9338384 8.73282827,0.583333333 5.83333333,0.583333333 Z M4.44085801,3.62232769 L4.49581229,3.67085438 L5.83366667,5.00866667 L7.17085438,3.67085438 C7.39866021,3.44304854 7.76800645,3.44304854 7.99581229,3.67085438 C8.2060946,3.88113669 8.22227016,4.21202147 8.04433898,4.44085801 L7.99581229,4.49581229 L6.65866667,5.83366667 L7.99581229,7.17085438 C8.22361813,7.39866021 8.22361813,7.76800645 7.99581229,7.99581229 C7.78552998,8.2060946 7.4546452,8.22227016 7.22580866,8.04433898 L7.17085438,7.99581229 L5.83366667,6.65866667 L4.49581229,7.99581229 C4.26800645,8.22361813 3.89866021,8.22361813 3.67085438,7.99581229 C3.46057207,7.78552998 3.4443965,7.4546452 3.62232769,7.22580866 L3.67085438,7.17085438 L5.00866667,5.83366667 L3.67085438,4.49581229 C3.44304854,4.26800645 3.44304854,3.89866021 3.67085438,3.67085438 C3.88113669,3.46057207 4.21202147,3.4443965 4.44085801,3.62232769 Z" id="Combined-Shape"></path>
                            </g>
                        </g>
                    </g>
                </g>
            </g>
        </g>
    </g>
</svg>