<?xml version="1.0" encoding="UTF-8"?>
<svg width="19px" height="16px" viewBox="0 0 19 16" version="1.1" xmlns="http://www.w3.org/2000/svg" xmlns:xlink="http://www.w3.org/1999/xlink">
    <title>AEE35E82-0778-431C-9268-D968EC6275B1</title>
    <g id="Public" stroke="none" stroke-width="1" fill="none" fill-rule="evenodd">
        <g id="D---Reserves" transform="translate(-1094.000000, -927.000000)" fill="#1295D8" fill-rule="nonzero">
            <g id="RightRail/Reserve" transform="translate(1035.000000, 105.000000)">
                <g id="Group" transform="translate(59.500000, 71.000000)">
                    <g transform="translate(0.000000, 750.000000)" id="Link/IconLeftA">
                        <g id="Icon-Refresh-A" transform="translate(0.000000, 1.500000)">
                            <path d="M17.7965648,8.48641756 L17.8184861,8.51077325 C17.8327233,8.52730202 17.846252,8.54445848 17.8590249,8.56219549 L17.7965648,8.48641756 C17.8296374,8.52161412 17.8586531,8.55915976 17.8836296,8.59847779 C17.8939896,8.61484721 17.9039989,8.63205559 17.9133263,8.64968037 C17.9204517,8.66306396 17.9271703,8.67677235 17.9334438,8.69062839 C17.9423542,8.71034095 17.9504032,8.73035105 17.9575938,8.75076589 C17.9618135,8.76282013 17.9657057,8.77486958 17.9692845,8.78698937 C17.9745709,8.80471719 17.979262,8.8230775 17.9832621,8.84169443 C17.9871799,8.86015534 17.9904121,8.87854389 17.9929553,8.89700477 C17.9937088,8.9022744 17.9943575,8.90739636 17.9949542,8.91253416 L18,9 L18,13.5 C18,13.9142136 17.6642136,14.25 17.25,14.25 C16.8653731,14.25 16.5483696,13.9604699 16.5050458,13.5874658 L16.5,13.5 L16.5,10.7326324 L14.300463,12.8001972 C12.479997,14.6215757 9.85238486,15.3816153 7.34070189,14.8133153 C4.82901893,14.2450153 2.78453099,12.4278541 1.92546296,10.0001972 C1.78728288,9.6097114 1.99181705,9.18114305 2.3822956,9.04296296 C2.7727886,8.90478288 3.20135695,9.10931705 3.33953704,9.49980282 C4.02679146,11.4419284 5.66238181,12.8956573 7.67172818,13.3502973 C9.60931218,13.7887002 11.6331333,13.2389811 13.0961956,11.8779864 L13.2564176,11.7234352 L15.356,9.74963237 L12.75,9.75 C12.3653731,9.75 12.0483696,9.46046986 12.0050458,9.08746584 L12,9 C12,8.61537312 12.2895301,8.29836963 12.6625342,8.2550458 L12.75,8.25 L17.25,8.25 L17.2887638,8.25100143 C17.3047677,8.25182764 17.3207472,8.25316371 17.3366759,8.25500881 L17.25,8.25 C17.2999515,8.25 17.3487625,8.25488329 17.3959816,8.26419851 C17.4107347,8.26720015 17.4253965,8.27055543 17.4399635,8.27435409 C17.4652931,8.28088062 17.4900499,8.2887661 17.5142131,8.29786312 C17.5198743,8.30002024 17.5261133,8.30245258 17.5323248,8.30497117 C17.5524722,8.31316219 17.5716997,8.32197463 17.5904703,8.33155447 C17.6016943,8.33720524 17.6134669,8.3435881 17.6250944,8.35030701 C17.6888953,8.38827785 17.740219,8.42870304 17.7855917,8.47498396 L17.7965648,8.48641756 L17.7965648,8.48641756 Z M0,1.5 C0,1.08578644 0.335786438,0.75 0.75,0.75 C1.13462688,0.75 1.45163037,1.03953014 1.4949542,1.41253416 L1.5,1.5 L1.5,4.26563237 L3.69953704,2.19980282 C5.520003,0.378424268 8.14761514,-0.381615272 10.6592981,0.186684711 C13.1709811,0.754984694 15.215469,2.57214587 16.074537,4.99980282 C16.2127171,5.3902886 16.0081829,5.81885695 15.6176972,5.95703704 C15.2272114,6.09521712 14.798643,5.89068295 14.660463,5.50019718 C13.9732085,3.55807161 12.3376182,2.10434267 10.3282718,1.64970269 C8.39068782,1.21129984 6.3668667,1.76101895 4.9038044,3.12201357 L4.74358244,3.2765648 L2.642,5.24963237 L5.25,5.25 C5.63462688,5.25 5.95163037,5.53953014 5.9949542,5.91253416 L6,6 C6,6.38462688 5.71046986,6.70163037 5.33746584,6.7449542 L5.25,6.75 L0.75,6.75 L0.703271809,6.74854518 C0.69026896,6.74773601 0.677285122,6.74658998 0.66433451,6.74510754 L0.75,6.75 C0.697907677,6.75 0.647055763,6.74468918 0.597956163,6.73457943 C0.585627473,6.73195104 0.573302616,6.72908643 0.561044577,6.72590803 C0.543609868,6.72146877 0.52649121,6.71635413 0.509640956,6.71065701 C0.493022608,6.70500338 0.476160338,6.69864376 0.459504019,6.6916591 C0.445940184,6.68596183 0.432674793,6.67991557 0.419623056,6.6735011 C0.386917457,6.65753676 0.354652871,6.63867778 0.323672825,6.61723451 C0.281027865,6.58759871 0.24170628,6.55388188 0.206197106,6.51650821 C0.205324081,6.5155872 0.204378585,6.51458641 0.203435202,6.51358244 L0.191930714,6.50106758 C0.173574247,6.4806364 0.156323533,6.45919167 0.14027276,6.43682758 L0.203435202,6.51358244 C0.170362571,6.47838588 0.14134694,6.44084024 0.11637037,6.40152221 C0.106251299,6.3855316 0.0964540001,6.36872222 0.0873073329,6.35151428 C0.079200894,6.33633441 0.0717091602,6.32096297 0.0647759067,6.30540874 C0.0573978958,6.28886867 0.0504036455,6.27151834 0.0440530414,6.25386093 C0.0389559509,6.23958375 0.0344860225,6.22584756 0.0304238218,6.21202029 C0.0253288876,6.1948755 0.0207318809,6.1768585 0.0168000017,6.15859429 C0.0126790247,6.13918724 0.00935622512,6.12013296 0.00677296597,6.10100263 C0.0061929185,6.09694697 0.00559719271,6.09221317 0.00504579849,6.08746584 L0.00192554361,6.05404309 C0.00113644684,6.04302868 0.000589741895,6.03200161 0.000285160179,6.0209705 L0,1.5 Z" id="Combined-Shape"></path>
                        </g>
                    </g>
                </g>
            </g>
        </g>
    </g>
</svg>