<?xml version="1.0" encoding="UTF-8"?>
<svg width="18px" height="14px" viewBox="0 0 18 14" version="1.1" xmlns="http://www.w3.org/2000/svg" xmlns:xlink="http://www.w3.org/1999/xlink">
    <title>A1B7DE39-77D6-4F89-86F2-95AC27489BCB</title>
    <g id="Public" stroke="none" stroke-width="1" fill="none" fill-rule="evenodd">
        <g id="D---Reserve-Detail" transform="translate(-1216.000000, -1080.000000)" fill="#1295D8" fill-rule="nonzero">
            <g id="RightRail/Reserve" transform="translate(1035.000000, 450.000000)">
                <g id="Group" transform="translate(61.000000, 71.000000)">
                    <g transform="translate(120.000000, 557.000000)" id="Link/IconLeftA">
                        <g id="Icon-Email" transform="translate(0.750000, 2.250000)">
                            <path d="M0.000371365715,2.22375475 L0.000336714638,2.21084887 C0.0213569659,0.98956745 1.02386255,0 2.25,0 L2.25,0 L14.25,0 C15.4892136,0 16.5,1.01078644 16.5,2.25 L16.5,2.25 L16.5,11.25 C16.5,12.4892136 15.4892136,13.5 14.25,13.5 L14.25,13.5 L2.25,13.5 C1.01078644,13.5 0,12.4892136 0,11.25 L0,11.25 L0.000371365715,2.22375475 L0.000371365715,2.22375475 Z M15,3.69 L8.68009676,8.11442394 C8.45054999,8.27510668 8.15346886,8.29296032 7.90891446,8.16798485 L7.81990324,8.11442394 L1.5,3.691 L1.5,11.25 C1.5,11.6265542 1.78503362,11.9429674 2.14894938,11.9930879 L2.25,12 L14.25,12 C14.6607864,12 15,11.6607864 15,11.25 L15,11.25 L15,3.69 Z M14.25,1.5 L2.25,1.5 C1.95882954,1.5 1.70361835,1.67042592 1.57967804,1.91596615 L8.25,6.58425 L14.920322,1.91596615 C14.7963817,1.67042592 14.5411705,1.5 14.25,1.5 L14.25,1.5 Z" id="Combined-Shape"></path>
                        </g>
                    </g>
                </g>
            </g>
        </g>
    </g>
</svg>