<?xml version="1.0" encoding="UTF-8"?>
<svg width="16px" height="16px" viewBox="0 0 16 16" version="1.1" xmlns="http://www.w3.org/2000/svg" xmlns:xlink="http://www.w3.org/1999/xlink">
    <title>D029CF94-4D8C-4CE7-8BB3-0670C31BF09D</title>
    <g id="Public" stroke="none" stroke-width="1" fill="none" fill-rule="evenodd">
        <g id="D---My-Account" transform="translate(-1068.000000, -179.000000)" fill="#1295D8" fill-rule="nonzero">
            <g id="Link/IconLeftA" transform="translate(1067.000000, 178.000000)">
                <g id="Icon-Sign-Out" transform="translate(2.250000, 2.250000)">
                    <path d="M4.5,-0.75 C4.91421356,-0.75 5.25,-0.414213562 5.25,0 C5.25,0.384626879 4.96046986,0.701630371 4.58746584,0.744954202 L4.5,0.75 L1.5,0.75 C1.11537312,0.75 0.798369629,1.03953014 0.755045798,1.41253416 L0.75,1.5 L0.75,12 C0.75,12.3846269 1.03953014,12.7016304 1.41253416,12.7449542 L1.5,12.75 L4.5,12.75 C4.91421356,12.75 5.25,13.0857864 5.25,13.5 C5.25,13.8846269 4.96046986,14.2016304 4.58746584,14.2449542 L4.5,14.25 L1.5,14.25 C0.301739337,14.25 -0.67774566,13.31331 -0.74618048,12.1322046 L-0.75,12 L-0.75,1.5 C-0.75,0.301739337 0.186689973,-0.67774566 1.36779541,-0.74618048 L1.5,-0.75 L4.5,-0.75 Z M10.2096746,2.40727846 L10.2803301,2.46966991 L14.0303301,6.21966991 C14.056061,6.24540079 14.0799309,6.27299262 14.1017207,6.30222619 L14.0303301,6.21966991 C14.0614364,6.25077619 14.089239,6.28393506 14.1137381,6.31871053 C14.1293244,6.3409572 14.1437638,6.36401832 14.1569417,6.38787368 C14.1628126,6.39839871 14.1683417,6.40902081 14.1735994,6.41974234 C14.1833728,6.43969654 14.1924418,6.46045316 14.2005743,6.48167342 C14.204926,6.49310656 14.2089511,6.50446082 14.2126945,6.51588721 C14.2204384,6.53933212 14.2270393,6.5633999 14.2324404,6.58791777 C14.2340943,6.59573783 14.2356653,6.6034511 14.2371142,6.61118276 C14.2418417,6.63603593 14.2453092,6.66167627 14.2474488,6.68769291 C14.2483427,6.69893885 14.248976,6.7093423 14.2493936,6.71975279 C14.2497846,6.7290689 14.25,6.7395093 14.25,6.75 L14.249096,6.78692772 C14.2482942,6.80329226 14.2469592,6.81963554 14.2450908,6.83592928 L14.25,6.75 C14.25,6.793886 14.2462306,6.83689162 14.238998,6.87871077 C14.2354591,6.89878194 14.2311564,6.91875781 14.226032,6.93856504 C14.222362,6.95294981 14.2183571,6.96671541 14.2139747,6.98031149 C14.2080902,6.99849466 14.2013853,7.01687886 14.1939386,7.03503019 C14.1694148,7.09474027 14.1372385,7.15080948 14.0986983,7.20180051 C14.0966813,7.20454782 14.0947108,7.20711616 14.0927215,7.20967458 L14.0303301,7.28033009 L10.2803301,11.0303301 C9.98743687,11.3232233 9.51256313,11.3232233 9.21966991,11.0303301 C8.94930694,10.7599671 8.92850979,10.3345438 9.15727846,10.0403254 L9.21966991,9.96966991 L11.688,7.5 L4.5,7.5 C4.08578644,7.5 3.75,7.16421356 3.75,6.75 C3.75,6.36537312 4.03953014,6.04836963 4.41253416,6.0050458 L4.5,6 L11.688,6 L9.21966991,3.53033009 C8.94930694,3.25996711 8.92850979,2.83454382 9.15727846,2.54032542 L9.21966991,2.46966991 C9.49003289,2.19930694 9.91545618,2.17850979 10.2096746,2.40727846 Z" id="Combined-Shape"></path>
                </g>
            </g>
        </g>
    </g>
</svg>