<?xml version="1.0" encoding="UTF-8"?>
<svg width="16px" height="16px" viewBox="0 0 16 16" version="1.1" xmlns="http://www.w3.org/2000/svg" xmlns:xlink="http://www.w3.org/1999/xlink">
    <title>456E5310-1BE8-49F0-B61C-881ABBD0BB5E</title>
    <g id="Public" stroke="none" stroke-width="1" fill="none" fill-rule="evenodd">
        <g id="D---Reserve-Detail" transform="translate(-1097.000000, -815.000000)" fill="#1295D8" fill-rule="nonzero">
            <g id="RightRail/Reserve" transform="translate(1035.000000, 450.000000)">
                <g id="Group" transform="translate(61.000000, 71.000000)">
                    <g transform="translate(0.000000, 293.000000)" id="Link/IconLeftA">
                        <g id="Icon-External-Link" transform="translate(2.250000, 2.250000)">
                            <path d="M6,1.5 C6.41421356,1.5 6.75,1.83578644 6.75,2.25 C6.75,2.63462688 6.46046986,2.95163037 6.08746584,2.9949542 L6,3 L1.5,3 C1.11537312,3 0.798369629,3.28953014 0.755045798,3.66253416 L0.75,3.75 L0.75,12 C0.75,12.3846269 1.03953014,12.7016304 1.41253416,12.7449542 L1.5,12.75 L9.75,12.75 C10.1346269,12.75 10.4516304,12.4604699 10.4949542,12.0874658 L10.5,12 L10.5,7.5 C10.5,7.08578644 10.8357864,6.75 11.25,6.75 C11.6346269,6.75 11.9516304,7.03953014 11.9949542,7.41253416 L12,7.5 L12,12 C12,13.1982607 11.06331,14.1777457 9.88220459,14.2461805 L9.75,14.25 L1.5,14.25 C0.301739337,14.25 -0.67774566,13.31331 -0.74618048,12.1322046 L-0.75,12 L-0.75,3.75 C-0.75,2.55173934 0.186689973,1.57225434 1.36779541,1.50381952 L1.5,1.5 L6,1.5 Z M14.1526184,-0.369844591 L14.1581436,-0.360055524 C14.1644156,-0.348603093 14.1703665,-0.337021615 14.1759961,-0.325324306 C14.185266,-0.306032601 14.1938107,-0.286174076 14.2015012,-0.265895303 C14.2065203,-0.252593844 14.211242,-0.238938499 14.215558,-0.225183358 C14.2218408,-0.205375879 14.2273262,-0.184984932 14.2319548,-0.164270636 C14.2349246,-0.150652182 14.2375298,-0.137260523 14.2397678,-0.123819635 C14.2417907,-0.112036044 14.243522,-0.0997965553 14.2449542,-0.0874658441 L14.2475756,-0.0604405373 C14.2483835,-0.050387079 14.2489895,-0.0403204397 14.2493936,-0.0302472083 L14.25,0 L14.25,4.5 C14.25,4.91421356 13.9142136,5.25 13.5,5.25 C13.1153731,5.25 12.7983696,4.96046986 12.7550458,4.58746584 L12.75,4.5 L12.75,1.81 L5.78033009,8.78033009 C5.48743687,9.0732233 5.01256313,9.0732233 4.71966991,8.78033009 C4.44930694,8.50996711 4.42850979,8.08454382 4.65727846,7.79032542 L4.71966991,7.71966991 L11.688,0.75 L9,0.75 C8.61537312,0.75 8.29836963,0.460469857 8.2550458,0.0874658441 L8.25,0 C8.25,-0.384626879 8.53953014,-0.701630371 8.91253416,-0.744954202 L9,-0.75 L13.5,-0.75 L13.5154542,-0.749841755 C13.5388213,-0.749363159 13.5621703,-0.747798963 13.5854191,-0.745149166 L13.5,-0.75 C13.5431724,-0.75 13.5854928,-0.746352234 13.6266699,-0.739348099 C13.6438217,-0.736371413 13.6612021,-0.732781447 13.678462,-0.728571024 C13.6971067,-0.724069756 13.7148571,-0.719007897 13.732326,-0.713322193 C13.746554,-0.708669847 13.7612842,-0.703385349 13.7758703,-0.697625826 C13.7930878,-0.69081835 13.809869,-0.683441627 13.8263155,-0.67548195 C13.8406446,-0.668599789 13.8549466,-0.661115822 13.8690453,-0.653139189 C13.8874821,-0.642623424 13.9052461,-0.63154457 13.9224931,-0.619764567 C13.9312354,-0.613878345 13.9403527,-0.60735599 13.9493528,-0.600604822 C13.9723972,-0.583238789 13.9939321,-0.565094593 14.0143836,-0.545813673 C14.019491,-0.541008399 14.0249414,-0.535718814 14.0303301,-0.530330086 C14.0809644,-0.478735116 14.1203862,-0.426598465 14.1526184,-0.369844591 Z" id="Combined-Shape"></path>
                        </g>
                    </g>
                </g>
            </g>
        </g>
    </g>
</svg>