<?xml version="1.0" encoding="UTF-8"?>
<svg width="18px" height="20px" viewBox="0 0 18 20" version="1.1" xmlns="http://www.w3.org/2000/svg" xmlns:xlink="http://www.w3.org/1999/xlink">
    <title>71C3589A-A091-47D6-BA71-F7DD72451361</title>
    <g id="Admin" stroke="none" stroke-width="1" fill="none" fill-rule="evenodd">
        <g id="D---Visits---Listing" transform="translate(-1109.000000, -409.000000)" fill="#002045" fill-rule="nonzero">
            <g id="Group" transform="translate(191.000000, 394.000000)">
                <g id="Icon-Trash-B" transform="translate(919.500000, 16.666667)">
                    <path d="M9.16666667,-0.833333333 C10.4980674,-0.833333333 11.5863841,0.207433304 11.6624228,1.51977268 L11.6666667,1.66666667 L11.6666667,2.49966667 L15,2.5 C15.4602373,2.5 15.8333333,2.87309604 15.8333333,3.33333333 C15.8333333,3.76069653 15.5116332,4.11292263 15.0971843,4.16106022 L15,4.16666667 L14.1656667,4.16666667 L14.1666667,15 C14.1666667,16.3314007 13.1259,17.4197174 11.8135607,17.4957561 L11.6666667,17.5 L3.33333333,17.5 C2.0019326,17.5 0.913615934,16.4592334 0.837577245,15.146894 L0.833333333,15 L0.832666667,4.16666667 L-2.22044605e-16,4.16666667 C-0.460237292,4.16666667 -0.833333333,3.79357062 -0.833333333,3.33333333 C-0.833333333,2.90597013 -0.511633175,2.55374403 -0.0971842712,2.50560644 L-2.22044605e-16,2.5 L3.33266667,2.49966667 L3.33333333,1.66666667 C3.33333333,0.33526593 4.37409997,-0.753050733 5.68643934,-0.829089422 L5.83333333,-0.833333333 L9.16666667,-0.833333333 Z M2.49966667,4.16666667 L2.5,15 C2.5,15.4273632 2.82170016,15.7795893 3.23614906,15.8277269 L3.33333333,15.8333333 L11.6666667,15.8333333 C12.0940299,15.8333333 12.446256,15.5116332 12.4943936,15.0971843 L12.5,15 L12.4996667,4.16666667 L2.49966667,4.16666667 Z M9.16666667,0.833333333 L5.83333333,0.833333333 C5.40597013,0.833333333 5.05374403,1.15503349 5.00560644,1.5694824 L5,1.66666667 L4.99966667,2.49966667 L9.99966667,2.49966667 L10,1.66666667 C10,1.23930347 9.67829984,0.887077366 9.26385094,0.838939776 L9.16666667,0.833333333 Z" id="Combined-Shape"></path>
                </g>
            </g>
        </g>
    </g>
</svg>