<?xml version="1.0" encoding="UTF-8"?>
<svg width="16px" height="13px" viewBox="0 0 16 13" version="1.1" xmlns="http://www.w3.org/2000/svg" xmlns:xlink="http://www.w3.org/1999/xlink">
    <title>FB5295B1-45F9-45D6-B188-E9B3BA272095</title>
    <g id="Admin" stroke="none" stroke-width="1" fill="none" fill-rule="evenodd">
        <g id="D---Visits---Dashboard" transform="translate(-1181.000000, -232.000000)" fill="#AAB7BB" fill-rule="nonzero">
            <g id="ViewSelector/Two/01---D" transform="translate(1129.000000, 222.000000)">
                <g id="list" transform="translate(52.129555, 10.000000)">
                    <path d="M1.42105263,0 C0.636226934,0 0,0.647102609 0,1.44534413 C0,2.24358565 0.636226934,2.89068826 1.42105263,2.89068826 C2.20587833,2.89068826 2.84210526,2.24358565 2.84210526,1.44534413 C2.84210526,0.647102609 2.20587833,0 1.42105263,0 L1.42105263,0 Z M1.42105263,4.81781377 C0.636226934,4.81781377 0,5.46491637 0,6.26315789 C0,7.06139942 0.636226934,7.70850202 1.42105263,7.70850202 C2.20587833,7.70850202 2.84210526,7.06139942 2.84210526,6.26315789 C2.84210526,5.46491637 2.20587833,4.81781377 1.42105263,4.81781377 Z M1.42105263,9.63562753 C0.636226934,9.63562753 0,10.2827301 0,11.0809717 C0,11.8792132 0.636226934,12.5263158 1.42105263,12.5263158 C2.20587833,12.5263158 2.84210526,11.8792132 2.84210526,11.0809717 C2.84210526,10.2827301 2.20587833,9.63562753 1.42105263,9.63562753 Z M14.6842105,10.1174089 L5.21052632,10.1174089 C4.94891775,10.1174089 4.73684211,10.3331098 4.73684211,10.5991903 L4.73684211,11.562753 C4.73684211,11.8288335 4.94891775,12.0445344 5.21052632,12.0445344 L14.6842105,12.0445344 C14.9458191,12.0445344 15.1578947,11.8288335 15.1578947,11.562753 L15.1578947,10.5991903 C15.1578947,10.3331098 14.9458191,10.1174089 14.6842105,10.1174089 Z M14.6842105,0.481781377 L5.21052632,0.481781377 C4.94891775,0.481781377 4.73684211,0.697482246 4.73684211,0.963562753 L4.73684211,1.92712551 C4.73684211,2.19320601 4.94891775,2.40890688 5.21052632,2.40890688 L14.6842105,2.40890688 C14.9458191,2.40890688 15.1578947,2.19320601 15.1578947,1.92712551 L15.1578947,0.963562753 C15.1578947,0.697482246 14.9458191,0.481781377 14.6842105,0.481781377 Z M14.6842105,5.29959514 L5.21052632,5.29959514 C4.94891775,5.29959514 4.73684211,5.51529601 4.73684211,5.78137652 L4.73684211,6.74493927 C4.73684211,7.01101978 4.94891775,7.22672065 5.21052632,7.22672065 L14.6842105,7.22672065 C14.9458191,7.22672065 15.1578947,7.01101978 15.1578947,6.74493927 L15.1578947,5.78137652 C15.1578947,5.51529601 14.9458191,5.29959514 14.6842105,5.29959514 Z" id="Shape"></path>
                </g>
            </g>
        </g>
    </g>
</svg>