<?xml version="1.0" encoding="UTF-8"?>
<svg width="22px" height="22px" viewBox="0 0 22 22" version="1.1" xmlns="http://www.w3.org/2000/svg" xmlns:xlink="http://www.w3.org/1999/xlink">
    <title>8343BBCE-3D7F-46F4-8203-F03B32EBB33B</title>
    <g id="Public" stroke="none" stroke-width="1" fill="none" fill-rule="evenodd">
        <g id="D---New-Project---Complete" transform="translate(-464.000000, -568.000000)" fill="#1295D8" fill-rule="nonzero">
            <g id="Icon-Alert-Circle" transform="translate(464.000000, 568.000000)">
                <path d="M11,0 C17.0751322,0 22,4.92486775 22,11 C22,17.0751322 17.0751322,22 11,22 C4.92486775,22 0,17.0751322 0,11 C0,4.92486775 4.92486775,0 11,0 Z M11,2 C6.02943725,2 2,6.02943725 2,11 C2,15.9705627 6.02943725,20 11,20 C15.9705627,20 20,15.9705627 20,11 C20,6.02943725 15.9705627,2 11,2 Z M11,13.5 C11.8284271,13.5 12.5,14.1715729 12.5,15 C12.5,15.8284271 11.8284271,16.5 11,16.5 C10.1715729,16.5 9.5,15.8284271 9.5,15 C9.5,14.1715729 10.1715729,13.5 11,13.5 Z M11,6 C11.5128358,6 11.9355072,6.38604019 11.9932723,6.88337887 L12,7 L12,11 C12,11.5522847 11.5522847,12 11,12 C10.4871642,12 10.0644928,11.6139598 10.0067277,11.1166211 L10,11 L10,7 C10,6.44771525 10.4477153,6 11,6 Z" id="Combined-Shape"></path>
            </g>
        </g>
    </g>
</svg>