<?xml version="1.0" encoding="UTF-8"?>
<svg width="18px" height="18px" viewBox="0 0 18 18" version="1.1" xmlns="http://www.w3.org/2000/svg" xmlns:xlink="http://www.w3.org/1999/xlink">
    <title>FC08BA20-3D24-41F6-AE7D-F6E7AFAE5373</title>
    <g id="Public" stroke="none" stroke-width="1" fill="none" fill-rule="evenodd">
        <g id="D---Reserve-Visit---Complete" transform="translate(-61.000000, -593.000000)" fill="#1295D8" fill-rule="nonzero">
            <g id="RightRail/Reserve" transform="translate(0.000000, 105.000000)">
                <g id="Group" transform="translate(61.000000, 71.000000)">
                    <g transform="translate(0.000000, 417.000000)" id="Link/IconLeftA">
                        <g id="Icon-Send" transform="translate(0.750000, 0.750000)">
                            <path d="M15.6980557,0.000678661977 C15.7694989,-0.00476343617 15.8393137,0.000370020963 15.9060798,0.01465886 C15.9064796,0.0164139728 15.9078272,0.0167014073 15.9091742,0.0169925838 C15.941714,0.0224828126 15.9726527,0.0314946389 16.0027463,0.0424107845 C16.007264,0.0452946831 16.0119824,0.0470317101 16.0166865,0.0488177447 C16.0441453,0.0582280323 16.0706198,0.0702923639 16.0962564,0.08380534 C16.1009164,0.0869095494 16.1059056,0.089576211 16.1108704,0.0923033013 C16.1356196,0.105479251 16.1592831,0.120420153 16.1820381,0.136590284 C16.18873,0.141511881 16.1956416,0.146567962 16.2024844,0.151757121 C16.25839,0.194238988 16.3082284,0.244311666 16.3504723,0.300296687 L16.2803301,0.219669914 C16.3105642,0.249904053 16.3376774,0.282077297 16.3616697,0.315789316 C16.377912,0.338150166 16.3932585,0.362261176 16.4072165,0.387213644 C16.4105028,0.394212444 16.4138951,0.400578309 16.4171891,0.406981662 C16.5070577,0.577745771 16.531908,0.786293446 16.4578938,0.997762819 L16.4829935,0.909238607 C16.4745139,0.948448809 16.4628633,0.987110819 16.4480417,1.02481464 L11.2078938,15.9977628 C10.9834985,16.6388921 10.0905167,16.6753234 9.81464134,16.0546038 L9.81464134,16.0546038 L6.9315,9.56775 L0.44539615,6.68535866 C-0.145765295,6.42262024 -0.14087157,5.60014802 0.414766545,5.32857207 L0.414766545,5.32857207 L0.502237181,5.29210623 L15.487407,0.0472772426 C15.5222324,0.0342879396 15.5578292,0.0239752202 15.5938797,0.0163390845 Z M13.9559774,3.60355348 L8.39397736,9.16555348 L10.41675,13.71675 L13.9559774,3.60355348 Z M12.8959774,2.54255348 L2.7825,6.0825 L7.33297736,8.10555348 L12.8959774,2.54255348 Z" id="Combined-Shape"></path>
                        </g>
                    </g>
                </g>
            </g>
        </g>
    </g>
</svg>