<?xml version="1.0" encoding="UTF-8"?>
<svg width="14px" height="18px" viewBox="0 0 14 18" version="1.1" xmlns="http://www.w3.org/2000/svg" xmlns:xlink="http://www.w3.org/1999/xlink">
    <title>779AF614-DD4C-4DA7-A9E5-C4E8C706FD97</title>
    <g id="Public" stroke="none" stroke-width="1" fill="none" fill-rule="evenodd">
        <g id="D---Reserve-Detail-C" transform="translate(-127.000000, -1143.000000)" fill="#1295D8" fill-rule="nonzero">
            <g id="WaiverCard" transform="translate(100.000000, 1043.000000)">
                <g id="Group" transform="translate(25.000000, 100.000000)">
                    <g id="Icon-Document-A" transform="translate(2.250000, 0.750000)">
                        <path d="M13.3490327,5.54864233 C13.3607213,5.56451257 13.3671363,5.57365283 13.3733379,5.58292158 C13.386437,5.60230088 13.3987935,5.62274055 13.410173,5.64378597 C13.4173301,5.65737197 13.4240037,5.67069556 13.4302734,5.68420184 C13.4395092,5.70360268 13.447947,5.72401873 13.4554872,5.74486445 C13.4606983,5.75989891 13.4655073,5.77463126 13.4698585,5.78951036 C13.4757696,5.80898539 13.4808906,5.82967114 13.485134,5.85067499 C13.4949569,5.90001687 13.5,5.94974845 13.5,6 L13.4931481,5.89819015 C13.493795,5.9029574 13.4943972,5.90773888 13.4949542,5.91253416 L13.5,6 L13.5,14.25 C13.5,15.4926407 12.4926407,16.5 11.25,16.5 L11.25,16.5 L2.25,16.5 C1.00735931,16.5 0,15.4926407 0,14.25 L0,14.25 L0,2.25 C0,1.00735931 1.00735931,0 2.25,0 L2.25,0 L7.5,0 L7.5,0 C7.53746366,0 7.57428575,0.00274684947 7.61027587,0.00805013504 C7.62368525,0.0101388648 7.63715838,0.0125185218 7.65053971,0.0152604196 C7.67345601,0.0197978541 7.695513,0.0253826635 7.717157,0.0319192658 C7.73169979,0.0365074748 7.74683649,0.0416025024 7.76179139,0.0471731802 C7.7823211,0.0546188225 7.80199517,0.062950314 7.8212194,0.0720754426 C7.83324111,0.0779557604 7.8456145,0.0842337915 7.85781252,0.0908549522 C7.87799079,0.101691642 7.89703625,0.113206816 7.91550458,0.125519443 C7.95625895,0.15269521 7.99488571,0.184225539 8.03033009,0.219669914 L7.95371653,0.152754691 C7.97484602,0.168831139 7.99509662,0.186003253 8.01438362,0.204186327 L8.03033009,0.219669914 L13.2855917,5.47498396 C13.3082781,5.49812442 13.3294767,5.52272882 13.3490327,5.54864233 Z M6.75,1.5 L2.25,1.5 C1.83578644,1.5 1.5,1.83578644 1.5,2.25 L1.5,2.25 L1.5,14.25 C1.5,14.6642136 1.83578644,15 2.25,15 L2.25,15 L11.25,15 C11.6642136,15 12,14.6642136 12,14.25 L12,14.25 L12,6.75 L7.5,6.75 C7.11537312,6.75 6.79836963,6.46046986 6.7550458,6.08746584 L6.75,6 L6.75,1.5 Z M10.939,5.25 L8.25,2.562 L8.25,5.25 L10.939,5.25 Z" id="Combined-Shape"></path>
                    </g>
                </g>
            </g>
        </g>
    </g>
</svg>