<?xml version="1.0" encoding="UTF-8"?>
<svg width="30px" height="30px" viewBox="0 0 30 30" version="1.1" xmlns="http://www.w3.org/2000/svg" xmlns:xlink="http://www.w3.org/1999/xlink">
    <title>0A1BDFB9-06BF-46FA-9427-A0BBF2B6370F</title>
    <g id="Public" stroke="none" stroke-width="1" fill="none" fill-rule="evenodd">
        <g id="D---Home---Visit-Confirmation" transform="translate(-62.000000, -177.000000)" fill="#002045" fill-rule="nonzero">
            <g id="RightRail/Reserve" transform="translate(0.000000, 105.000000)">
                <g id="Group" transform="translate(61.000000, 71.000000)">
                    <g id="Icon-X-Circle" transform="translate(1.333333, 1.333333)">
                        <path d="M14.6666667,0 C22.766843,0 29.3333333,6.56649034 29.3333333,14.6666667 C29.3333333,22.766843 22.766843,29.3333333 14.6666667,29.3333333 C6.56649034,29.3333333 0,22.766843 0,14.6666667 C0,6.56649034 6.56649034,0 14.6666667,0 Z M14.6666667,2.66666667 C8.03924967,2.66666667 2.66666667,8.03924967 2.66666667,14.6666667 C2.66666667,21.2940837 8.03924967,26.6666667 14.6666667,26.6666667 C21.2940837,26.6666667 26.6666667,21.2940837 26.6666667,14.6666667 C26.6666667,8.03924967 21.2940837,2.66666667 14.6666667,2.66666667 Z M21.912506,9.72385763 C22.3931513,10.2045029 22.430124,10.960811 22.0234242,11.4838659 L21.912506,11.6094757 L13.912506,19.6094757 C13.4318607,20.090121 12.6755527,20.1270937 12.1524977,19.7203939 L12.0268879,19.6094757 L8.39052429,15.9731121 C7.86982524,15.452413 7.86982524,14.608193 8.39052429,14.087494 C8.87116957,13.6068487 9.62747765,13.569876 10.1505326,13.9765758 L10.2761424,14.087494 L12.9693333,16.78 L20.0268879,9.72385763 C20.547587,9.20315857 21.391807,9.20315857 21.912506,9.72385763 Z" id="Combined-Shape"></path>
                    </g>
                </g>
            </g>
        </g>
    </g>
</svg>