<?xml version="1.0" encoding="UTF-8"?>
<svg width="12px" height="12px" viewBox="0 0 12 12" version="1.1" xmlns="http://www.w3.org/2000/svg" xmlns:xlink="http://www.w3.org/1999/xlink">
    <title>6DA390C6-0140-416C-8E2D-77BAD2EF8D1B</title>
    <g id="Public" stroke="none" stroke-width="1" fill="none" fill-rule="evenodd">
        <g id="D---Reserves" transform="translate(-1107.000000, -217.000000)" fill="#002045" fill-rule="nonzero">
            <g id="RightRail/Reserve" transform="translate(1035.000000, 105.000000)">
                <g id="Group" transform="translate(59.500000, 71.000000)">
                    <g transform="translate(1.500000, 30.000000)" id="Search">
                        <g id="Group" transform="translate(10.000000, 10.000000)">
                            <g id="Icon-Search" transform="translate(1.166667, 1.166667)">
                                <path d="M5.25,0 C8.14949494,0 10.5,2.35050506 10.5,5.25 C10.5,6.48930026 10.0705926,7.62830703 9.35244737,8.52635065 L11.4958123,10.6708544 C11.7236181,10.8986602 11.7236181,11.2680065 11.4958123,11.4958123 C11.28553,11.7060946 10.9546452,11.7222702 10.7258087,11.544339 L10.6708544,11.4958123 L8.52635065,9.35244737 C7.62830703,10.0705926 6.48930026,10.5 5.25,10.5 C2.35050506,10.5 0,8.14949494 0,5.25 C0,2.35050506 2.35050506,0 5.25,0 Z M5.25,1.16666667 C2.99483727,1.16666667 1.16666667,2.99483727 1.16666667,5.25 C1.16666667,7.50516273 2.99483727,9.33333333 5.25,9.33333333 C6.3602418,9.33333333 7.3669934,8.89023909 8.10306394,8.17124148 C8.11081689,8.15684331 8.12179222,8.14491654 8.13335438,8.13335438 L8.17421233,8.10001939 C8.89145946,7.36421851 9.33333333,6.35871184 9.33333333,5.25 C9.33333333,2.99483727 7.50516273,1.16666667 5.25,1.16666667 Z" id="Combined-Shape"></path>
                            </g>
                        </g>
                    </g>
                </g>
            </g>
        </g>
    </g>
</svg>