<?xml version="1.0" encoding="UTF-8"?>
<svg width="20px" height="22px" viewBox="0 0 20 22" version="1.1" xmlns="http://www.w3.org/2000/svg" xmlns:xlink="http://www.w3.org/1999/xlink">
    <title>5CB1C8BA-A131-4F40-8726-BA09392625D8</title>
    <g id="Admin" stroke="none" stroke-width="1" fill="none" fill-rule="evenodd">
        <g id="D---Visits---Dashboard" transform="translate(-528.000000, -757.000000)" fill="#7EB525" fill-rule="nonzero">
            <g id="Group" transform="translate(190.000000, 715.000000)">
                <g id="Icon-Calendar" transform="translate(339.000000, 43.000000)">
                    <path d="M13,-1 C13.5128358,-1 13.9355072,-0.61395981 13.9932723,-0.116621125 L14,0 L14,1 L16,1 C17.5976809,1 18.9036609,2.24891996 18.9949073,3.82372721 L19,4 L19,18 C19,19.6568542 17.6568542,21 16,21 L16,21 L2,21 C0.343145751,21 -1,19.6568542 -1,18 L-1,18 L-1,4 C-1,2.34314575 0.343145751,1 2,1 L2,1 L4,1 L4,0 C4,-0.55228475 4.44771525,-1 5,-1 C5.51283584,-1 5.93550716,-0.61395981 5.99327227,-0.116621125 L6,0 L6,1 L12,1 L12,0 C12,-0.55228475 12.4477153,-1 13,-1 Z M17,9 L1,9 L1,18 C1,18.5128358 1.38604019,18.9355072 1.88337887,18.9932723 L2,19 L16,19 C16.5522847,19 17,18.5522847 17,18 L17,18 L17,9 Z M4,3 L2,3 C1.44771525,3 1,3.44771525 1,4 L1,4 L1,7 L17,7 L17,4 C17,3.48716416 16.6139598,3.06449284 16.1166211,3.00672773 L16,3 L14,3 L14,4 C14,4.55228475 13.5522847,5 13,5 C12.4871642,5 12.0644928,4.61395981 12.0067277,4.11662113 L12,4 L12,3 L6,3 L6,4 C6,4.55228475 5.55228475,5 5,5 C4.48716416,5 4.06449284,4.61395981 4.00672773,4.11662113 L4,4 L4,3 Z" id="Combined-Shape"></path>
                </g>
            </g>
        </g>
    </g>
</svg>