<?xml version="1.0" encoding="UTF-8"?>
<svg width="14px" height="16px" viewBox="0 0 14 16" version="1.1" xmlns="http://www.w3.org/2000/svg" xmlns:xlink="http://www.w3.org/1999/xlink">
    <title>19494F8F-1F21-4CB8-B609-EDB55460C219</title>
    <g id="Admin" stroke="none" stroke-width="1" fill="none" fill-rule="evenodd">
        <g id="D---Visits---Dashboard" transform="translate(-1272.000000, -8.000000)" fill="#002045" fill-rule="nonzero">
            <g id="Group-3" transform="translate(1261.000000, 0.000000)">
                <g id="Icon-User" transform="translate(11.250000, 8.500000)">
                    <path d="M9.75,9 C11.766566,9 13.4113636,10.59173 13.4965354,12.5873328 L13.5,12.75 L13.5,14.25 C13.5,14.6642136 13.1642136,15 12.75,15 C12.3653731,15 12.0483696,14.7104699 12.0050458,14.3374658 L12,14.25 L12,12.75 C12,11.5517393 11.06331,10.5722543 9.88220459,10.5038195 L9.75,10.5 L3.75,10.5 C2.55173934,10.5 1.57225434,11.43669 1.50381952,12.6177954 L1.5,12.75 L1.5,14.25 C1.5,14.6642136 1.16421356,15 0.75,15 C0.365373121,15 0.0483696295,14.7104699 0.00504579849,14.3374658 L0,14.25 L0,12.75 C0,10.733434 1.59173003,9.08863641 3.58733278,9.00346464 L3.75,9 L9.75,9 Z M6.75,0 C8.82106781,0 10.5,1.67893219 10.5,3.75 C10.5,5.82106781 8.82106781,7.5 6.75,7.5 C4.67893219,7.5 3,5.82106781 3,3.75 C3,1.67893219 4.67893219,0 6.75,0 Z M6.75,1.5 C5.50735931,1.5 4.5,2.50735931 4.5,3.75 C4.5,4.99264069 5.50735931,6 6.75,6 C7.99264069,6 9,4.99264069 9,3.75 C9,2.50735931 7.99264069,1.5 6.75,1.5 Z" id="Combined-Shape"></path>
                </g>
            </g>
        </g>
    </g>
</svg>