<?xml version="1.0" encoding="UTF-8"?>
<svg width="16px" height="18px" viewBox="0 0 16 18" version="1.1" xmlns="http://www.w3.org/2000/svg" xmlns:xlink="http://www.w3.org/1999/xlink">
    <title>5ED25A69-12A0-457C-917B-9C5FE908B3AE</title>
    <g id="Admin" stroke="none" stroke-width="1" fill="none" fill-rule="evenodd">
        <g id="D---Projects---Listing-Advanced" transform="translate(-497.000000, -463.000000)" fill="#002045" fill-rule="nonzero">
            <g id="Group" transform="translate(214.000000, 439.000000)">
                <g id="Input-/---ArriveDepart" transform="translate(272.000000, 0.000000)">
                    <g id="Icon-Calendar" transform="translate(12.250000, 25.500000)">
                        <path d="M9.75,-0.75 C10.1346269,-0.75 10.4516304,-0.460469857 10.4949542,-0.0874658441 L10.5,0 L10.5,0.75 L12,0.75 C13.190864,0.75 14.1656449,1.67516159 14.2448092,2.84595119 L14.25,3 L14.25,13.5 C14.25,14.7426407 13.2426407,15.75 12,15.75 L12,15.75 L1.5,15.75 C0.257359313,15.75 -0.75,14.7426407 -0.75,13.5 L-0.75,13.5 L-0.75,3 C-0.75,1.75735931 0.257359313,0.75 1.5,0.75 L1.5,0.75 L3,0.75 L3,0 C3,-0.414213562 3.33578644,-0.75 3.75,-0.75 C4.13462688,-0.75 4.45163037,-0.460469857 4.4949542,-0.0874658441 L4.5,0 L4.5,0.75 L9,0.75 L9,0 C9,-0.414213562 9.33578644,-0.75 9.75,-0.75 Z M12.75,6.75 L0.75,6.75 L0.75,13.5 C0.75,13.8796958 1.03215388,14.193491 1.39822944,14.2431534 L1.5,14.25 L12,14.25 C12.4142136,14.25 12.75,13.9142136 12.75,13.5 L12.75,13.5 L12.75,6.75 Z M3,2.25 L1.5,2.25 C1.08578644,2.25 0.75,2.58578644 0.75,3 L0.75,3 L0.75,5.25 L12.75,5.25 L12.75,3 C12.75,2.62030423 12.4678461,2.30650904 12.1017706,2.25684662 L12,2.25 L10.5,2.25 L10.5,3 C10.5,3.41421356 10.1642136,3.75 9.75,3.75 C9.36537312,3.75 9.04836963,3.46046986 9.0050458,3.08746584 L9,3 L9,2.25 L4.5,2.25 L4.5,3 C4.5,3.41421356 4.16421356,3.75 3.75,3.75 C3.36537312,3.75 3.04836963,3.46046986 3.0050458,3.08746584 L3,3 L3,2.25 Z" id="Combined-Shape"></path>
                    </g>
                </g>
            </g>
        </g>
    </g>
</svg>