<?xml version="1.0" encoding="UTF-8"?>
<svg width="18px" height="18px" viewBox="0 0 18 18" version="1.1" xmlns="http://www.w3.org/2000/svg" xmlns:xlink="http://www.w3.org/1999/xlink">
    <title>1A1851D9-597C-4266-B248-A8656E18FDDC</title>
    <g id="Public" stroke="none" stroke-width="1" fill="none" fill-rule="evenodd">
        <g id="D---Reserve-Visit---Complete" transform="translate(-61.000000, -632.000000)" fill="#1295D8" fill-rule="nonzero">
            <g id="RightRail/Reserve" transform="translate(0.000000, 105.000000)">
                <g id="Group" transform="translate(61.000000, 71.000000)">
                    <g transform="translate(0.000000, 456.000000)" id="Link/IconLeftA">
                        <g id="Icon-Question-Circle" transform="translate(0.750000, 0.750000)">
                            <path d="M8.25,0 C12.8063492,0 16.5,3.69365081 16.5,8.25 C16.5,12.8063492 12.8063492,16.5 8.25,16.5 C3.69365081,16.5 0,12.8063492 0,8.25 C0,3.69365081 3.69365081,0 8.25,0 Z M8.25,1.5 C4.52207794,1.5 1.5,4.52207794 1.5,8.25 C1.5,11.9779221 4.52207794,15 8.25,15 C11.9779221,15 15,11.9779221 15,8.25 C15,4.52207794 11.9779221,1.5 8.25,1.5 Z M8.25,10.875 C8.87132034,10.875 9.375,11.3786797 9.375,12 C9.375,12.6213203 8.87132034,13.125 8.25,13.125 C7.62867966,13.125 7.125,12.6213203 7.125,12 C7.125,11.3786797 7.62867966,10.875 8.25,10.875 Z M8.69717548,3.78982946 C10.1389673,4.03713509 11.1921777,5.28826897 11.1900126,6.75 C11.1900126,7.70979393 10.6213607,8.46798221 9.73102609,9.06153794 C9.24433641,9.38599736 8.76619384,9.59850493 8.42717058,9.71151255 C8.03421305,9.84249825 7.60947314,9.63012812 7.47848745,9.23717058 C7.35685787,8.87228145 7.53128511,8.47998812 7.87144764,8.32093341 L8.09279574,8.23548906 L8.23695933,8.17401621 C8.46428677,8.07298191 8.6913341,7.95189013 8.89897644,7.81346206 C9.41489343,7.46951779 9.69000253,7.10270607 9.69000336,6.74888438 C9.69109135,6.01745953 9.16448532,5.39189159 8.44358899,5.2682387 C7.76274244,5.15145541 7.09609879,5.51452982 6.81965751,6.13648372 L6.77500083,6.24888265 C6.63754674,6.63962457 6.20935927,6.84495492 5.81861735,6.70750083 C5.42787543,6.57004674 5.22254508,6.14185927 5.35999917,5.75111735 C5.84543604,4.37116179 7.25538279,3.54252368 8.69717548,3.78982946 Z" id="Combined-Shape"></path>
                        </g>
                    </g>
                </g>
            </g>
        </g>
    </g>
</svg>