<?xml version="1.0" encoding="UTF-8"?>
<svg width="16px" height="13px" viewBox="0 0 16 13" version="1.1" xmlns="http://www.w3.org/2000/svg" xmlns:xlink="http://www.w3.org/1999/xlink">
    <title>9803E88F-8E57-4F47-ACB4-C28BCDE55FAE</title>
    <g id="Admin" stroke="none" stroke-width="1" fill="none" fill-rule="evenodd">
        <g id="D---Visits---Dashboard" transform="translate(-1142.000000, -232.000000)" fill="#FFFFFF" fill-rule="nonzero">
            <g id="ViewSelector/Two/01---D" transform="translate(1129.000000, 222.000000)">
                <g id="dash" transform="translate(13.000000, 10.000000)">
                    <path d="M11.5555556,7.83673469 C11.5555556,8.31755102 11.9536111,8.70748299 12.4444444,8.70748299 C12.9352778,8.70748299 13.3333333,8.31755102 13.3333333,7.83673469 C13.3333333,7.35591837 12.9352778,6.96598639 12.4444444,6.96598639 C11.9536111,6.96598639 11.5555556,7.35591837 11.5555556,7.83673469 Z M6.22222222,8.70748299 C6.22222222,9.02639456 6.31611111,9.32108844 6.46888889,9.57823129 L9.53138889,9.57823129 C9.68416667,9.32108844 9.77805556,9.02639456 9.77805556,8.70748299 C9.77805556,8.38993197 9.68472222,8.09632653 9.53333333,7.84 L11.6375,5.18993197 C11.8641667,4.90503401 11.8111111,4.49469388 11.5211111,4.2737415 C11.2277778,4.05142857 10.8111111,4.10367347 10.5852778,4.38802721 L8.48083333,7.03836735 C8.32694444,6.99591837 8.16777778,6.96571429 8.00027778,6.96571429 C7.01805556,6.96598639 6.22222222,7.74557823 6.22222222,8.70748299 Z M8.88888889,3.4829932 C8.88888889,3.00217687 8.49083333,2.6122449 8,2.6122449 C7.50916667,2.6122449 7.11111111,3.00217687 7.11111111,3.4829932 C7.11111111,3.96380952 7.50916667,4.3537415 8,4.3537415 C8.49083333,4.3537415 8.88888889,3.96380952 8.88888889,3.4829932 Z M3.55555556,6.96598639 C3.06472222,6.96598639 2.66666667,7.35591837 2.66666667,7.83673469 C2.66666667,8.31755102 3.06472222,8.70748299 3.55555556,8.70748299 C4.04638889,8.70748299 4.44444444,8.31755102 4.44444444,7.83673469 C4.44444444,7.35591837 4.04638889,6.96598639 3.55555556,6.96598639 Z M4.88888889,5.65986395 C5.37972222,5.65986395 5.77777778,5.26993197 5.77777778,4.78911565 C5.77777778,4.30829932 5.37972222,3.91836735 4.88888889,3.91836735 C4.39805556,3.91836735 4,4.30829932 4,4.78911565 C4,5.26993197 4.39805556,5.65986395 4.88888889,5.65986395 Z M0,7.83673469 C0,9.27346939 0.395833333,10.6193197 1.085,11.7768707 C1.24083333,12.0386395 1.53777778,12.1904762 1.84722222,12.1904762 L14.1527778,12.1904762 C14.4622222,12.1904762 14.7591667,12.0386395 14.915,11.7768707 C15.6041667,10.6193197 16,9.27346939 16,7.83673469 C16,3.50857143 12.4183333,0 8,0 C3.58166667,0 0,3.50857143 0,7.83673469 Z M1.33333333,7.83673469 C1.33333333,4.23564626 4.32388889,1.30612245 8,1.30612245 C11.6761111,1.30612245 14.6666667,4.23564626 14.6666667,7.83673469 C14.6666667,8.90122449 14.4011111,9.94911565 13.8963889,10.8843537 L2.10361111,10.8843537 C1.59888889,9.94911565 1.33333333,8.90122449 1.33333333,7.83673469 Z" id="Shape"></path>
                </g>
            </g>
        </g>
    </g>
</svg>