<?xml version="1.0" encoding="UTF-8"?>
<svg width="18px" height="18px" viewBox="0 0 18 18" version="1.1" xmlns="http://www.w3.org/2000/svg" xmlns:xlink="http://www.w3.org/1999/xlink">
    <title>6933A788-F171-4EC9-906C-BF4D72FB683B</title>
    <g id="Public" stroke="none" stroke-width="1" fill="none" fill-rule="evenodd">
        <g id="D---Reserve-Detail" transform="translate(-1096.000000, -775.000000)" fill="#1295D8" fill-rule="nonzero">
            <g id="RightRail/Reserve" transform="translate(1035.000000, 450.000000)">
                <g id="Group" transform="translate(61.000000, 71.000000)">
                    <g transform="translate(0.000000, 254.000000)" id="Link/IconLeftA">
                        <g id="Icon-Map" transform="translate(0.000000, 0.750000)">
                            <path d="M16.8778958,0.0988176434 C17.3778884,-0.186892399 18,0.174132999 18,0.75 L18,0.75 L18,12.75 C18,13.0191426 17.8557855,13.2676502 17.6221042,13.4011824 L17.6221042,13.4011824 L12.3721042,16.4011824 C12.3604404,16.4078474 12.3486394,16.4141765 12.3367151,16.4201694 C12.3197878,16.4288945 12.3016426,16.4371664 12.2831277,16.4447197 C12.2740723,16.4481963 12.2658302,16.4513762 12.2575462,16.4544055 C12.2346947,16.4629967 12.210455,16.4705261 12.1857242,16.4768265 C12.1733718,16.4798119 12.1607436,16.4826952 12.1480624,16.4852477 C12.126728,16.4896627 12.104966,16.4930436 12.0829164,16.4954686 C12.071593,16.4966638 12.0602325,16.4976652 12.0488573,16.4984074 C12.032686,16.4994733 12.0164045,16.5 12,16.5 L11.9806976,16.4997525 C11.968664,16.4994433 11.9566344,16.4988445 11.9446195,16.4979558 L12,16.5 C11.9568276,16.5 11.9145072,16.4963522 11.8733301,16.4893481 C11.8637194,16.4875955 11.8536794,16.4856707 11.8436716,16.4835384 C11.8211764,16.4788906 11.7997837,16.4733152 11.7787844,16.4668424 C11.7404981,16.4548824 11.7019716,16.4395113 11.6645898,16.4208204 L11.7377605,16.4528767 C11.7173233,16.4452484 11.6973081,16.4367543 11.6777597,16.427439 L11.6645898,16.4208204 L6.02325,13.6005 L1.1221042,16.4011824 C0.647111258,16.6726069 0.0619058653,16.3603527 0.00457280838,15.8347148 L0.00457280838,15.8347148 L0,15.75 L0,3.75 C0,3.48085736 0.144214548,3.23234979 0.377895796,3.09881764 L0.377895796,3.09881764 L5.6278958,0.0988176434 C5.66854599,0.0755889617 5.7108615,0.0564402946 5.75426322,0.041387716 C5.77633093,0.03351299 5.79950133,0.0266885902 5.82310762,0.0209809498 C5.82445793,0.0208210356 5.82578386,0.020503207 5.82711048,0.0201890389 C5.85605376,0.0131930955 5.88571207,0.00803051431 5.91591203,0.00466120459 C5.93405056,0.00268485019 5.9520985,0.00131251898 5.97017065,0.000593377751 C5.97974253,0.000201717151 5.98984771,1.73199129e-14 6,1.73199129e-14 C6.03133776,0.000328825876 6.05339861,0.00157386008 6.07539001,0.00379372694 L6,1.73199129e-14 C6.04031803,1.73199129e-14 6.07989301,0.00318136244 6.11848762,0.00930675063 C6.1340374,0.01189148 6.14974983,0.014915955 6.16537883,0.0184485487 C6.18475766,0.0226752328 6.20313251,0.0275837079 6.22121557,0.0331576144 C6.25950189,0.045117638 6.29802837,0.0604886953 6.3354102,0.0791796068 L6.26223953,0.0471232994 C6.28160985,0.0543533443 6.30060102,0.0623611892 6.31917505,0.0711088434 L6.3354102,0.0791796068 L11.976,2.89875 Z M6.75,1.96289176 L6.75,12.2858918 L11.25,14.5348918 L11.25,4.21289176 L6.75,1.96289176 Z M5.25,2.04189176 L1.5,4.185 L1.5,14.457 L5.25,12.3128918 L5.25,2.04189176 Z M16.5,2.04225 L12.75,4.18489176 L12.75,14.4558918 L16.5,12.3135 L16.5,2.04225 Z" id="Combined-Shape"></path>
                        </g>
                    </g>
                </g>
            </g>
        </g>
    </g>
</svg>