<?xml version="1.0" encoding="UTF-8"?>
<svg width="20px" height="20px" viewBox="0 0 20 20" version="1.1" xmlns="http://www.w3.org/2000/svg" xmlns:xlink="http://www.w3.org/1999/xlink">
    <title>163F0993-8D98-4FC0-B13A-6BFEE047699B</title>
    <g id="Admin" stroke="none" stroke-width="1" fill="none" fill-rule="evenodd">
        <g id="D---Visits---Dashboard" transform="translate(-528.000000, -384.000000)" fill="#1295D8" fill-rule="nonzero">
            <g id="Group" transform="translate(190.000000, 341.000000)">
                <g id="Icon/External-Link" transform="translate(338.000000, 43.005103)">
                    <path d="M8.39901888,2.15095518 C6.7662219,3.91958797 6.22012863,6.42071219 6.93625115,8.69104655 L6.965,8.77789725 L0.881353555,14.863124 C-0.293784518,16.038262 -0.293784518,17.9435373 0.881353555,19.1186754 L1.02578133,19.2540513 C2.20774543,20.2919332 4.00877242,20.2468079 5.13690497,19.1186754 L11.221,13.0338973 L11.3089824,13.0637778 C13.6634032,13.8064234 16.266026,13.1916242 18.0425252,11.4151251 C20.0093636,9.44828667 20.5522303,6.4688146 19.4054809,3.93467327 L19.3491276,3.82736627 C19.0201865,3.282236 18.2524535,3.17469969 17.7873138,3.63983945 L14.26,7.16589725 L12.833,5.73889725 L16.3601895,2.21271516 C16.8544005,1.71850416 16.7021139,0.882693777 16.0653557,0.594548005 C13.5312143,-0.552201396 10.5517423,-0.00933464862 8.58490388,1.95750374 L8.39901888,2.15095518 Z M13.724,2.01889725 L11.3753614,4.36911617 C10.6261972,5.13334505 10.6261972,6.34505851 11.3683253,7.10218061 L12.8907415,8.62466758 L13.0221017,8.74259277 C13.7882022,9.37154123 14.9087462,9.3326024 15.623806,8.63170364 L17.98,6.27389725 L17.9839633,6.30179199 C18.0956589,7.64846114 17.6206159,9.00860721 16.6283116,10.0009115 C15.2501112,11.3791119 13.1623395,11.7595088 11.3866193,10.95596 C11.0074087,10.7843597 10.5615586,10.8655946 10.2672396,11.1599136 L3.72269141,17.7044618 C3.32860192,18.0985513 2.68965661,18.0985513 2.29556712,17.7044618 C1.90147763,17.3103723 1.90147763,16.671427 2.29556712,16.2773375 L8.8401153,9.73278934 C9.13443429,9.43847035 9.21566923,8.99262018 9.0440689,8.6134096 C8.24052017,6.83768943 8.62091704,4.7499177 9.99911744,3.3717173 C10.9294027,2.44143203 12.1829864,1.96577099 13.4456716,2.0019816 L13.724,2.01889725 Z" id="Path"></path>
                </g>
            </g>
        </g>
    </g>
</svg>