<?xml version="1.0" encoding="UTF-8"?>
<svg width="15px" height="16px" viewBox="0 0 15 16" version="1.1" xmlns="http://www.w3.org/2000/svg" xmlns:xlink="http://www.w3.org/1999/xlink">
    <title>CA890376-C43C-4087-954F-8AB8AB294978</title>
    <g id="Admin" stroke="none" stroke-width="1" fill="none" fill-rule="evenodd">
        <g id="D---Visits---Dashboard" transform="translate(-1220.000000, -230.000000)" fill="#AAB7BB" fill-rule="nonzero">
            <g id="ViewSelector/Two/01---D" transform="translate(1129.000000, 222.000000)">
                <g id="cal" transform="translate(91.000000, 8.000000)">
                    <path d="M4.72932331,9 L3.45112782,9 C3.24022556,9 3.06766917,8.83125 3.06766917,8.625 L3.06766917,7.375 C3.06766917,7.16875 3.24022556,7 3.45112782,7 L4.72932331,7 C4.94022556,7 5.11278195,7.16875 5.11278195,7.375 L5.11278195,8.625 C5.11278195,8.83125 4.94022556,9 4.72932331,9 Z M8.18045113,8.625 L8.18045113,7.375 C8.18045113,7.16875 8.00789474,7 7.79699248,7 L6.51879699,7 C6.30789474,7 6.13533835,7.16875 6.13533835,7.375 L6.13533835,8.625 C6.13533835,8.83125 6.30789474,9 6.51879699,9 L7.79699248,9 C8.00789474,9 8.18045113,8.83125 8.18045113,8.625 Z M11.2481203,8.625 L11.2481203,7.375 C11.2481203,7.16875 11.0755639,7 10.8646617,7 L9.58646617,7 C9.37556391,7 9.20300752,7.16875 9.20300752,7.375 L9.20300752,8.625 C9.20300752,8.83125 9.37556391,9 9.58646617,9 L10.8646617,9 C11.0755639,9 11.2481203,8.83125 11.2481203,8.625 Z M8.18045113,11.625 L8.18045113,10.375 C8.18045113,10.16875 8.00789474,10 7.79699248,10 L6.51879699,10 C6.30789474,10 6.13533835,10.16875 6.13533835,10.375 L6.13533835,11.625 C6.13533835,11.83125 6.30789474,12 6.51879699,12 L7.79699248,12 C8.00789474,12 8.18045113,11.83125 8.18045113,11.625 Z M5.11278195,11.625 L5.11278195,10.375 C5.11278195,10.16875 4.94022556,10 4.72932331,10 L3.45112782,10 C3.24022556,10 3.06766917,10.16875 3.06766917,10.375 L3.06766917,11.625 C3.06766917,11.83125 3.24022556,12 3.45112782,12 L4.72932331,12 C4.94022556,12 5.11278195,11.83125 5.11278195,11.625 Z M11.2481203,11.625 L11.2481203,10.375 C11.2481203,10.16875 11.0755639,10 10.8646617,10 L9.58646617,10 C9.37556391,10 9.20300752,10.16875 9.20300752,10.375 L9.20300752,11.625 C9.20300752,11.83125 9.37556391,12 9.58646617,12 L10.8646617,12 C11.0755639,12 11.2481203,11.83125 11.2481203,11.625 Z M14.3157895,3.5 L14.3157895,14.5 C14.3157895,15.328125 13.6287594,16 12.7819549,16 L1.53383459,16 C0.687030075,16 0,15.328125 0,14.5 L0,3.5 C0,2.671875 0.687030075,2 1.53383459,2 L3.06766917,2 L3.06766917,0.375 C3.06766917,0.16875 3.24022556,0 3.45112782,0 L4.72932331,0 C4.94022556,0 5.11278195,0.16875 5.11278195,0.375 L5.11278195,2 L9.20300752,2 L9.20300752,0.375 C9.20300752,0.16875 9.37556391,0 9.58646617,0 L10.8646617,0 C11.0755639,0 11.2481203,0.16875 11.2481203,0.375 L11.2481203,2 L12.7819549,2 C13.6287594,2 14.3157895,2.671875 14.3157895,3.5 Z M12.7819549,14.3125 L12.7819549,5 L1.53383459,5 L1.53383459,14.3125 C1.53383459,14.415625 1.62011278,14.5 1.72556391,14.5 L12.5902256,14.5 C12.6956767,14.5 12.7819549,14.415625 12.7819549,14.3125 Z" id="Shape"></path>
                </g>
            </g>
        </g>
    </g>
</svg>