<?xml version="1.0" encoding="UTF-8"?>
<svg width="18px" height="18px" viewBox="0 0 18 18" version="1.1" xmlns="http://www.w3.org/2000/svg" xmlns:xlink="http://www.w3.org/1999/xlink">
    <title>FCADCE39-A0BF-4882-B1FE-9A9876FAD971</title>
    <g id="Public" stroke="none" stroke-width="1" fill="none" fill-rule="evenodd">
        <g id="D---Reserve-Detail-B" transform="translate(-121.000000, -429.000000)" fill="#FFFFFF" fill-rule="nonzero">
            <g id="Group-2" transform="translate(100.000000, 412.000000)">
                <g id="Icon-Alert-Circle" transform="translate(21.750000, 17.750000)">
                    <path d="M8.25,0 C12.8063492,0 16.5,3.69365081 16.5,8.25 C16.5,12.8063492 12.8063492,16.5 8.25,16.5 C3.69365081,16.5 0,12.8063492 0,8.25 C0,3.69365081 3.69365081,0 8.25,0 Z M8.25,1.5 C4.52207794,1.5 1.5,4.52207794 1.5,8.25 C1.5,11.9779221 4.52207794,15 8.25,15 C11.9779221,15 15,11.9779221 15,8.25 C15,4.52207794 11.9779221,1.5 8.25,1.5 Z M8.25,10.125 C8.87132034,10.125 9.375,10.6286797 9.375,11.25 C9.375,11.8713203 8.87132034,12.375 8.25,12.375 C7.62867966,12.375 7.125,11.8713203 7.125,11.25 C7.125,10.6286797 7.62867966,10.125 8.25,10.125 Z M8.25,4.5 C8.63462688,4.5 8.95163037,4.78953014 8.9949542,5.16253416 L9,5.25 L9,8.25 C9,8.66421356 8.66421356,9 8.25,9 C7.86537312,9 7.54836963,8.71046986 7.5050458,8.33746584 L7.5,8.25 L7.5,5.25 C7.5,4.83578644 7.83578644,4.5 8.25,4.5 Z" id="Combined-Shape"></path>
                </g>
            </g>
        </g>
    </g>
</svg>