<?xml version="1.0" encoding="UTF-8"?>
<svg width="57px" height="59px" viewBox="0 0 57 59" version="1.1" xmlns="http://www.w3.org/2000/svg" xmlns:xlink="http://www.w3.org/1999/xlink">
    <title>69AC2575-7D1D-42AF-8698-F690685BE3AC</title>
    <g id="Public" stroke="none" stroke-width="1" fill="none" fill-rule="evenodd">
        <g id="D---Home" transform="translate(-99.000000, -63.000000)" fill="#FFB511" stroke="#FFB511" stroke-width="0.75">
            <g id="Header/D/PreLogin" transform="translate(0.000000, 40.000000)">
                <g id="Group-25" transform="translate(100.000000, 24.000000)">
                    <path d="M3.15662484,25.9859289 C2.88210324,26.0129539 2.6265472,26.0393129 2.3626578,25.9567152 C2.3626578,25.7823846 2.35959266,25.6168087 2.3633283,25.4513279 C2.37214058,25.0640324 2.35509074,24.673216 2.40403719,24.2908688 C2.44321351,23.985029 2.42635524,23.6882294 2.41754296,23.3849589 C2.39781112,22.7097135 2.51706423,22.0620641 2.80269696,21.4365866 C3.15145242,20.6728437 3.7266451,20.1428104 4.43296829,19.7272528 C4.74915664,19.5413129 5.07358255,19.3690758 5.3877594,19.1799957 C5.6755952,19.0067119 5.96410151,18.8320007 6.23574954,18.6353078 C7.04954421,18.0460858 7.42387443,17.2405683 7.35356778,16.2466367 C7.33038766,15.9179589 7.33383594,15.5952761 7.36793562,15.2698337 C7.43201621,14.6575833 7.4806753,14.04362 7.6406373,13.4452628 C7.88402857,12.5351659 8.39561959,11.8395566 9.27167492,11.4416985 C9.68546881,11.2537603 10.1293394,11.1637402 10.5788613,11.1085482 C11.4597059,11.0004481 12.3378686,11.052024 13.2113377,11.1828671 C14.1722591,11.3269372 15.1295406,11.4950825 16.0910367,11.6348705 C16.993912,11.7661893 17.9010976,11.8459322 18.8148925,11.743827 C19.8822317,11.6244982 20.8526359,11.2650841 21.6893233,10.5866985 C21.8550324,10.4524297 22.0213163,10.4473863 22.2029258,10.5012461 C22.3830986,10.5547252 22.4337692,10.6453162 22.3464127,10.8097503 C22.2585773,10.9748504 22.1497648,11.1374765 22.0171017,11.2680341 C21.8890363,11.394024 21.7284996,11.4975566 21.5652809,11.5764431 C20.7503368,11.97059 19.9142241,12.3025032 19.0007166,12.3983279 C18.2965007,12.4722661 17.5909438,12.4737886 16.8910382,12.388812 C15.7595226,12.251403 14.632509,12.0775482 13.5026217,11.9261509 C12.8422757,11.8376534 12.1797265,11.7621927 11.5116218,11.7799873 C10.9501264,11.7948321 10.3979223,11.866772 9.87368757,12.0849706 C9.58144563,12.2066785 9.31880144,12.3728254 9.07742167,12.5767503 C8.72512214,12.8745967 8.49370407,13.2341058 8.45184575,13.7023813 C8.40778437,14.1942561 8.35596434,14.6854648 8.30835889,15.1770541 C8.24753502,15.804625 8.19954642,16.4338137 8.12282213,17.0595766 C8.07550403,17.4449689 7.95337736,17.8156117 7.78623145,18.1690307 C7.4340277,18.9139322 6.86659366,19.4344497 6.09705195,19.7289656 C5.13689685,20.0964681 4.3509758,20.6875933 3.69800519,21.4741743 C3.39637626,21.837585 3.2542304,22.2429606 3.20748701,22.7001025 C3.13526465,23.4066551 3.1609352,24.1131125 3.18804253,24.8199506 C3.20250616,25.1992528 3.22118435,25.5786501 3.15662484,25.9859289" id="Fill-11"></path>
                    <path d="M6.5182405,24.7393417 C6.39735904,24.7670329 6.28749293,24.8014803 6.17504061,24.8157541 C5.95415896,24.8437307 5.82025065,24.7378192 5.80684067,24.5121982 C5.79563375,24.3230229 5.8073196,24.1322299 5.81354566,23.9421982 C5.82379472,23.6306489 5.83940778,23.31929 5.84975263,23.0077407 C5.86402469,22.5808593 5.90559565,22.1577841 6.03299053,21.7477457 C6.17437011,21.2923167 6.41325946,20.9030229 6.81651694,20.6267775 C6.97686207,20.5169644 7.14918041,20.4439778 7.34410416,20.4184753 C7.90540792,20.3450129 8.46795689,20.2777357 9.02667444,20.187906 C9.53912754,20.1054987 10.0124043,19.9227942 10.4271561,19.5967808 C10.6135549,19.4501414 10.6837658,19.2911314 10.6125012,19.065891 C10.5001447,18.7110446 10.3991867,18.352487 10.2814661,17.9994486 C10.1323279,17.5523935 9.96431993,17.1120947 9.92236582,16.6362065 C9.88338107,16.1956222 9.96977971,15.7862499 10.2152783,15.4188426 C10.8913332,14.4068309 11.8125993,13.7824002 13.0509159,13.6513668 C13.7279287,13.5797124 14.3970871,13.6337624 15.0643297,13.7333935 C15.9344463,13.863285 16.8012105,14.0161097 17.6722849,14.1387691 C18.4114626,14.2428726 19.1520771,14.246108 19.8876149,14.0825304 C20.5508345,13.9349394 21.1447054,13.6493684 21.6573501,13.2077374 C21.7832124,13.0992566 21.9074463,13.0502499 22.0699945,13.0617641 C22.212332,13.0718509 22.3559146,13.0638576 22.545666,13.0638576 C22.471911,13.1826155 22.4268918,13.267497 22.3703783,13.3438142 C22.153807,13.6359511 21.8754539,13.8615721 21.5698978,14.0549344 C20.9827319,14.4264336 20.3379989,14.6563367 19.66817,14.8342833 C18.8000649,15.0648526 17.9261168,15.0571447 17.0475711,14.9359127 C16.2289871,14.8229594 15.4134683,14.6886907 14.5944055,14.5802098 C13.9480441,14.4946623 13.2990965,14.4540295 12.6512983,14.586871 C11.8173886,14.7577758 11.2670044,15.2532666 10.9354904,16.0211965 C10.7898962,16.358724 10.7482295,16.6896856 10.8688236,17.0392983 C10.980318,17.3626472 11.0833834,17.6889461 11.1964104,18.011724 C11.3559893,18.4671531 11.4626945,18.9277207 11.4480393,19.4169311 C11.4366408,19.7982316 11.2923876,20.0838025 10.9772529,20.3006689 C10.6232292,20.544275 10.230125,20.6862516 9.81345757,20.7624736 C9.3321348,20.8504953 8.84468176,20.9063534 8.36402949,20.9978008 C8.07245805,21.0532783 7.77935404,21.1255037 7.50368301,21.2326523 C6.95023367,21.447901 6.63701468,21.8697391 6.5655586,22.4543935 C6.53711027,22.6866756 6.54994554,22.9237157 6.54161219,23.1585671 C6.53605663,23.3178626 6.52082671,23.4769678 6.51929414,23.6362633 C6.51584586,23.9929177 6.5182405,24.3495721 6.5182405,24.7393417" id="Fill-13"></path>
                    <path d="M24.4229972,14.5721499 C24.3845871,14.7822601 24.3555641,14.9764788 24.3127479,15.1674621 C24.1903339,15.7136725 23.9901419,16.2295272 23.6759651,16.6970414 C23.2871712,17.2756057 22.7718446,17.6796491 22.0791229,17.8462718 C21.8196397,17.9086958 21.5705012,18.0159396 21.309677,18.0692284 C20.6784497,18.1982634 20.0432952,18.1576307 19.4149415,18.0459145 C18.7222199,17.922589 18.0346707,17.7710965 17.3426196,17.6434888 C16.8605305,17.5545155 16.3758552,17.4883803 15.8821761,17.5651733 C15.3989377,17.6404437 15.0016189,17.8534087 14.6957754,18.2366124 C14.5863882,18.3737359 14.5197214,18.5205656 14.5220203,18.6954671 C14.5282463,19.1819179 14.5406985,19.6683686 14.541369,20.1548194 C14.5419437,20.5873152 14.5599514,21.0227609 14.5168478,21.4516407 C14.4484569,22.1310731 14.0615788,22.5784137 13.4016158,22.7861449 C12.990025,22.9156558 12.5629169,22.9537192 12.1376287,23.0069129 C11.614256,23.072382 11.0874351,23.1250047 10.5708632,23.2266341 C9.74873522,23.3882134 9.11607117,23.8573452 8.65601281,24.5404888 C8.43589745,24.8672634 8.27009253,25.2304838 8.08560942,25.5802868 C7.92593478,25.8830815 7.78225634,26.1944404 7.61693035,26.49419 C7.4920259,26.7206674 7.32928612,26.922023 7.11654625,27.0928327 C7.00917057,27.0037643 6.95016662,26.8946174 6.95101938,26.7739563 C6.9522739,26.6014337 6.95792526,26.4226307 7.00371078,26.2581015 C7.10524355,25.8930731 7.22555029,25.5328027 7.35131682,25.1751015 C7.66309903,24.2882234 8.21587787,23.5914721 9.03024725,23.1043553 C9.63513347,22.7425623 10.2945217,22.5190347 10.9827414,22.3960898 C11.6522829,22.2763803 12.3291042,22.1927359 13.0054465,22.1167042 C13.2619604,22.0879663 13.4516159,21.9806274 13.5582253,21.7680431 C13.6519036,21.5813419 13.7303521,21.3713269 13.7479766,21.1658795 C13.7824595,20.7657376 13.782651,20.3613135 13.7734556,19.9590781 C13.7599498,19.3649078 13.7515207,18.7723553 13.8927087,18.1896992 C14.0073641,17.7168561 14.2387822,17.3162384 14.6388787,17.0201048 C14.8995114,16.8272184 15.1848568,16.7319646 15.5123478,16.7254938 C16.2134028,16.711791 16.9015268,16.8057125 17.5883097,16.9282768 C18.2960697,17.0545523 19.0018181,17.1993836 19.7144632,17.2889279 C20.5928174,17.3992167 21.4594857,17.3404087 22.2642765,16.9153352 C22.3857327,16.8511032 22.5026869,16.7783068 22.6212695,16.7087459 C22.9303698,16.5273736 23.140715,16.2626424 23.2712708,15.934821 C23.3669606,15.6946407 23.4467501,15.44818 23.5460798,15.2096174 C23.609873,15.0560314 23.6806586,14.901018 23.776061,14.7658928 C23.9216552,14.5594938 24.130851,14.4913603 24.4229972,14.5721499" id="Fill-15"></path>
                    <path d="M44.7949329,13.6017035 C44.7120783,13.5403262 44.6385149,13.4875132 44.5667715,13.4325115 C42.1782612,11.6019456 39.660536,9.97378197 36.9541132,8.6415616 C34.1688588,7.27042137 31.2586999,6.26193055 28.2061079,5.66671352 C27.875839,5.60238631 27.5442292,5.54281703 27.2112784,5.49514257 C27.11942,5.48201068 27.0151094,5.50570518 26.9252625,5.53720267 C26.4705681,5.6968788 26.0102224,5.70525275 25.5456621,5.59838965 C25.4448957,5.57517095 25.350451,5.52502237 25.2422133,5.48296227 C25.3758342,5.24487546 25.5681718,5.11441302 25.7915438,5.02515426 C26.1539966,4.88041803 26.5346487,4.85053823 26.9197069,4.87299566 C28.1108012,4.94265175 29.2624317,5.21870684 30.4085067,5.52939967 C32.9835117,6.22748314 35.489551,7.10960334 37.8937702,8.26720768 C40.2323762,9.39312421 42.4214609,10.7531309 44.4342042,12.3884314 C44.6115992,12.5324063 44.7724233,12.6967452 44.9370787,12.8554698 C44.9859294,12.9025733 45.0281709,12.9590975 45.0629411,13.0173346 C45.1531711,13.1687319 45.1485734,13.2095549 45.0344927,13.3404932 C44.9600673,13.4259456 44.8812357,13.5078771 44.7949329,13.6017035" id="Fill-17"></path>
                    <path d="M29.8402106,9.92796311 C29.9835059,10.1807995 29.9960538,10.4442937 29.9909772,10.6976058 C29.9840806,11.0496927 30.0190424,11.394928 30.058985,11.7426376 C30.1135828,12.2184306 30.1468204,12.6966025 30.1976826,13.1728713 C30.2104221,13.2919147 30.2478743,13.4103871 30.2887747,13.5238162 C30.3221081,13.6165958 30.3980661,13.6469514 30.4931812,13.6002285 C30.5892542,13.553125 30.6866682,13.5080199 30.7803465,13.4567294 C31.6723023,12.9682803 32.5612887,12.4746927 33.4562138,11.9916676 C33.778724,11.8175274 34.1145484,11.6674623 34.4451045,11.5082619 C34.5119629,11.4760983 34.5829401,11.4524038 34.6713502,11.4170048 C34.6861012,11.493322 34.7020974,11.5496559 34.7073656,11.6069414 C34.7467335,12.0345841 34.6974997,12.4574689 34.6336107,12.8794022 C34.5503729,13.4286576 34.4726908,13.9781985 34.5136871,14.536494 C34.5320779,14.7873321 34.5786297,15.0309381 34.6906989,15.2826326 C34.7762354,15.2643621 34.8569827,15.2505641 34.9358143,15.2296292 C36.3442461,14.8551801 37.6986549,14.3296192 39.0423356,13.7750349 C39.8481801,13.4423604 40.6443502,13.0839932 41.4609226,12.7799614 C41.9592952,12.5944022 42.4495261,12.7004088 42.9183009,13.0299431 C42.8331475,13.1022636 42.7741435,13.1573604 42.7101587,13.2060816 C42.1558473,13.6288713 41.5275894,13.9070199 40.865615,14.1099932 C40.1491385,14.3297144 39.4227961,14.5183187 38.7083311,14.7443204 C38.2717403,14.8824907 37.8506666,15.0679548 37.4207808,15.2273454 C37.1698224,15.3203154 36.9149369,15.4025324 36.6628291,15.4920766 C35.8987472,15.7631835 35.1351442,16.0354322 34.3714454,16.3073003 C34.3069817,16.3302336 34.2424222,16.3527861 34.1543952,16.3838078 C34.0984564,16.295691 34.0343758,16.2124272 33.989165,16.1202185 C33.8360995,15.8074322 33.7576511,15.4706659 33.7611952,15.1271434 C33.7672297,14.5193654 33.8019041,13.911873 33.8255631,13.3042853 C33.8335133,13.1007411 33.8444329,12.897292 33.8556398,12.6565407 C33.7447201,12.6835658 33.6655053,12.6972686 33.5899305,12.7220098 C33.1653128,12.8611317 32.7767105,13.0749531 32.3969205,13.3044756 C31.9454829,13.5772953 31.5011334,13.8619147 31.046439,14.12912 C30.6501739,14.3619731 30.2351348,14.5583805 29.7842718,14.6676225 C29.7045782,14.6869397 29.6226815,14.6974072 29.5110912,14.7174856 C29.5606124,13.5600716 29.4400183,12.4528062 28.9492128,11.3831284 C28.8585038,11.4200499 28.7821626,11.4480265 28.7085035,11.4815224 C28.0819697,11.7665224 27.4553401,12.0508563 26.7931741,12.2484055 C26.2697057,12.4045608 25.7379997,12.51209 25.1887649,12.4963888 C24.651216,12.4809731 24.147192,12.3438496 23.6810992,12.0696977 C23.5551411,11.9956643 23.4996812,11.9107828 23.4958498,11.7617644 C23.4867501,11.405681 23.5538959,11.0662503 23.6749689,10.7344322 C23.7792794,10.4485758 23.8910613,10.1652886 23.9864637,9.87657746 C24.057824,9.66075776 24.104759,9.43780117 24.0927858,9.17820851 C23.8981494,9.13100985 23.7089728,9.07762588 23.5166353,9.04013339 C22.8467106,8.90957579 22.1680694,8.84981619 21.4877999,8.80414007 C20.5939285,8.74419015 19.6985245,8.69927529 18.8070477,8.61334708 C17.9966055,8.53512671 17.2037879,8.36241386 16.47007,7.98739382 C16.4223687,7.96303322 16.3747633,7.93857746 16.328403,7.91193306 C16.3091501,7.90089466 16.2931539,7.88414674 16.2495715,7.84855743 C16.2981348,7.64891469 16.3398973,7.43395142 16.4031158,7.22536377 C16.6117369,6.53736711 16.9810863,5.93625025 17.4359722,5.38356912 C17.9423908,4.76808331 18.5321429,4.23614674 19.1351134,3.71781786 C19.8706512,3.08548898 20.6107868,2.45953573 21.3101176,1.78552738 C21.9163448,1.20125359 22.6713271,0.85649399 23.4857923,0.655519032 C24.9595499,0.291632554 26.3882883,0.403253589 27.7968159,1.00275275 C29.3440411,1.66125025 30.7932776,2.49512504 32.2491233,3.32129199 C32.4333191,3.42587129 32.6188558,3.52797646 32.8214424,3.64112003 C32.9633967,3.37010835 33.0032435,3.10033372 33.016462,2.82960751 C33.0323624,2.50311836 33.0140673,2.17501152 33.0289141,1.84852237 C33.045485,1.48482621 33.0677073,1.11998815 33.1176116,0.759812855 C33.1409833,0.591667613 33.2337037,0.432467279 33.2979759,0.270412187 C33.3528611,0.131861269 33.4542023,0.0882786311 33.6056393,0.0959864775 C34.3272882,0.132812855 35.0117723,0.302956427 35.6556433,0.630587479 C36.0537283,0.833180134 36.4135949,1.08868097 36.739266,1.39356912 C36.8806456,1.52583957 36.9991324,1.67200317 37.0762399,1.84966427 C37.1883091,2.10782955 37.3001867,2.36608998 37.4119685,2.62435042 C37.4356275,2.67916177 37.4587119,2.73416344 37.4831372,2.79144891 C38.0233681,2.51663088 38.579691,2.58171937 39.1329488,2.67221519 C39.5044055,2.73302154 39.8601533,2.85539549 40.1925294,3.03505492 C40.4713613,3.18578614 40.7200208,3.37362922 40.9007683,3.63883623 C40.9136036,3.65767763 40.9255768,3.67794641 40.9417645,3.69364758 C41.6941606,4.42817679 42.1337209,5.34817012 42.4735683,6.3153621 C42.7329557,7.05350735 42.9342013,7.81163589 43.1611175,8.56100985 C43.1722286,8.59736043 43.1872669,8.63380618 43.1902363,8.67110835 C43.2060409,8.86675442 43.331999,8.9267995 43.5075741,8.96115175 C44.0562341,9.06887129 44.5956988,9.21160918 45.1173473,9.41629533 C45.3487654,9.50698147 45.5498194,9.63525526 45.7312374,9.8061601 C46.608921,10.632898 47.1294201,11.6415791 47.3053783,12.8265891 C47.3465661,13.1038813 47.3675432,13.3840282 47.359593,13.6795908 C47.3317194,13.6439063 47.2982902,13.6112669 47.2770258,13.5719664 C47.0524085,13.1566943 46.8352625,12.7373304 46.6051854,12.324913 C46.341296,11.8514038 46.0423491,11.4006376 45.6708924,11.0010666 C45.3508726,10.6567828 44.9960827,10.3501818 44.5572887,10.1723304 C43.9814256,9.9390015 43.3828612,9.77799316 42.755178,9.75601152 C42.4730893,9.74611503 42.4635108,9.7519197 42.3801773,9.47529366 C42.1674374,8.7691217 41.9640845,8.06009499 41.7567086,7.35230534 C41.5812294,6.75318681 41.3871677,6.16072938 41.1108262,5.59834207 C40.8324731,5.03157746 40.4809399,4.51971937 39.9785443,4.12214674 C39.4990415,3.74274942 38.9485615,3.53073606 38.3475067,3.4359581 C38.1986558,3.41245392 38.0703031,3.46659917 37.9661841,3.55690467 C37.8461647,3.6611985 37.7439615,3.78595142 37.6370647,3.90451903 C37.5503787,4.00062922 37.4700146,4.10254407 37.3830412,4.1985591 C37.3529645,4.23176945 37.3145545,4.26079282 37.2746119,4.28182287 C37.1492285,4.34757746 37.016757,4.39249232 36.8837108,4.30941886 C36.7831359,4.24661419 36.737925,4.06257746 36.7954922,3.91346394 C36.9256649,3.57717346 36.8924273,3.244499 36.7308369,2.94122855 C36.5237484,2.55260083 36.2757594,2.18547896 36.0444371,1.8096025 C36.0327513,1.79057078 36.0161804,1.77258581 35.9976937,1.7597394 C35.4702023,1.39290301 34.9458718,1.01883456 34.2972115,0.885517362 C34.1872496,0.862964775 34.0732647,0.859063272 33.9582262,0.84631202 C33.7995094,1.17451402 33.7591837,1.50557078 33.7515208,1.83938715 C33.7394518,2.35980952 33.8505632,2.86662421 33.9428047,3.37562755 C34.0131114,3.76425526 34.0722111,4.1553571 34.1214449,4.5472202 C34.1595676,4.84972938 33.8323639,5.14186628 33.5315013,5.07221018 C33.4012328,5.04204491 33.2660793,4.9827611 33.1620561,4.90054407 C32.8127259,4.62439382 32.4248899,4.41923189 32.0343719,4.20778948 C31.2615735,3.78918681 30.5132004,3.32624023 29.7536204,2.88356244 C28.9139636,2.39435209 28.0601306,1.93302321 27.1378108,1.61167262 C26.3353188,1.33209666 25.5124245,1.17927195 24.6580168,1.22171269 C24.1109851,1.24883289 23.5807158,1.3568379 23.0651976,1.53792471 C23.001117,1.56038214 22.9365575,1.58959583 22.8812892,1.62842053 C21.5729534,2.54698648 20.2850198,3.49153072 19.1313778,4.60222187 C18.3638476,5.34112838 17.6717964,6.14198314 17.1216038,7.0568379 C17.0712206,7.14057746 17.0262013,7.22745726 16.9649943,7.33755576 C17.2905696,7.46973105 17.5690185,7.65500484 17.9175823,7.68231536 C19.2535045,7.78698982 20.5909591,7.8791985 21.9236245,8.01689299 C22.7674959,8.10396311 23.6039917,8.26183122 24.4431696,8.39181786 C24.5452771,8.40761419 24.6330167,8.42778781 24.7114651,8.33005993 C24.7717143,8.25507496 24.860316,8.26773105 24.9438411,8.30474775 C25.0622321,8.35718013 25.1814852,8.40761419 25.3282288,8.47089466 C25.0045692,9.44493806 24.6142427,10.3990933 24.2710428,11.3851267 C24.6216182,11.6226426 24.9972894,11.7565307 25.4077308,11.7934523 C25.9184598,11.839509 26.3954722,11.7146609 26.8519865,11.4968429 C27.2752632,11.2948212 27.6614708,11.0340866 28.0337895,10.7526075 C28.3383878,10.5221334 28.6422198,10.290327 28.9400173,10.0510983 C29.0543854,9.95917513 29.1721059,9.91816177 29.3185621,9.92586962 C29.4931793,9.93500484 29.6686586,9.92796311 29.8402106,9.92796311" id="Fill-8"></path>
                    <path d="M45.3939666,46.7054194 C45.3878363,46.6940003 45.3815145,46.6826765 45.3752884,46.6712574 C45.3412845,46.6786798 45.3056522,46.6821055 45.2735641,46.694381 C44.6665706,46.9256164 44.0617801,47.162371 43.4528709,47.3887533 C43.0236555,47.5483342 42.590034,47.6968768 42.156604,47.8453242 C41.9404159,47.9192624 41.7205879,47.9047983 41.499802,47.8546497 C41.1198204,47.7682457 40.7825593,47.5890621 40.4655088,47.3747649 C40.1112936,47.1353459 39.7724041,46.8735646 39.4202003,46.630815 C39.1500849,46.4446848 38.8714445,46.2706397 38.5930914,46.0968801 C38.5198154,46.051204 38.4330337,46.0269386 38.352478,45.9928718 C38.3394511,46.0063843 38.3262327,46.0200871 38.3131101,46.0335997 C38.7826512,47.018396 39.2521923,48.0030972 39.7275764,49.0001689 C39.4416563,49.3481639 39.1217323,49.6481038 38.7587048,49.9054127 C38.3157921,50.2193409 37.8852357,50.5488751 37.5152158,50.9486364 C37.4549667,51.0137249 37.4018056,51.0853793 37.3419396,51.1583659 C37.3818822,51.1840588 37.3993152,51.200997 37.4200049,51.2074678 C37.4708671,51.2232641 37.5229744,51.2359202 37.5751776,51.2467683 C38.5561182,51.4492658 39.5372504,51.4445078 40.5143595,51.2287833 C40.7366779,51.1797766 40.7800688,51.1186848 40.9504715,51.419386 C41.1190542,51.7167566 41.2771962,52.022977 41.4057405,52.3389987 C41.7124461,53.0925596 41.9976957,53.8545896 42.2953974,54.6117666 C42.3258572,54.6888451 42.3223132,54.7921873 42.443482,54.8492825 C42.443482,54.2739536 42.4408958,53.7196548 42.4442483,53.1655462 C42.4476966,52.6057282 42.4292099,52.0453392 42.4576583,51.4531673 C42.5864899,51.4711523 42.6948235,51.4697249 42.791088,51.5029352 C43.0726978,51.6000922 43.3477941,51.715805 43.6285417,51.8154361 C44.146742,51.9994728 44.6619728,52.1942624 45.1884106,52.3521306 C45.5999057,52.4755513 46.0278759,52.5285546 46.4581449,52.4261639 C46.5046967,52.4151255 46.5462677,52.3838184 46.6235667,52.3452791 C46.4512483,52.1125212 46.3046963,51.8907065 46.1341979,51.6886848 C45.5655186,51.0147716 44.8713602,50.4734144 44.2080448,49.8984661 C43.8515307,49.5894861 43.5261469,49.2451072 43.1864911,48.9170003 C43.1085216,48.8416347 43.0996135,48.7607499 43.1644604,48.6736798 C43.2734644,48.5273259 43.3689627,48.3677449 43.496166,48.238805 C43.6937718,48.038401 43.904117,47.8477983 44.1253818,47.6733726 C44.4730836,47.3992207 44.8347701,47.1427683 45.1891769,46.8770855 C45.2603456,46.8237015 45.325863,46.7628952 45.3939666,46.7054194 L45.3939666,46.7054194 Z M42.5748041,56.9375379 C42.471164,56.6843209 42.364842,56.4321506 42.2644587,56.1776013 C41.851431,55.1292391 41.417618,54.0901072 40.8630192,53.1057866 C40.6948196,52.8073693 40.5051641,52.5210371 40.3313132,52.2257599 C40.2649337,52.1132825 40.1816002,52.0774077 40.0497034,52.0836881 C39.5756604,52.1061456 39.0998932,52.142401 38.626808,52.1232741 C37.8623429,52.0922524 37.0994104,52.0228818 36.3361906,51.9667382 C36.1303472,51.9517032 35.9251744,51.9259152 35.7103218,51.904219 C35.709561,51.7999252 35.7899251,51.7561523 35.8425114,51.7004845 C36.587532,50.9125713 37.3721121,50.1652908 38.1875351,49.449603 C38.4218267,49.2439653 38.6489345,49.0302391 38.8920384,48.8086147 C38.1883972,47.6604311 37.7788179,46.4076681 37.3515182,45.1048518 C37.5920359,45.1534778 37.7924194,45.1695596 37.974029,45.2360755 C38.3535316,45.375007 38.7334174,45.520219 39.094146,45.7002591 C39.5109093,45.9082758 39.9057376,46.1591139 40.312635,46.3867332 C40.7941493,46.6561272 41.2895526,46.892977 41.8339023,47.0143042 C41.9795922,47.0467533 42.1175235,47.0482758 42.2633092,47.0084043 C42.9004752,46.8340738 43.5088097,46.5976047 44.0921442,46.2832958 C44.5235626,46.0509185 45.006418,45.9400588 45.4882196,45.8459469 C45.7820899,45.7884711 46.077397,45.7466965 46.3769187,45.8055045 C46.5372638,45.8369068 46.6864978,45.8882925 46.8082413,46.0556765 C46.7326665,46.1573058 46.6652334,46.2767299 46.5708846,46.3689386 C46.374524,46.5606831 46.1649451,46.7392007 45.9589102,46.9211439 C45.5697332,47.2646664 45.1677209,47.5949619 44.794157,47.954376 C44.5987543,48.1424093 44.4340988,48.3692674 44.2889836,48.5993609 C44.1344814,48.8444895 44.1514355,48.897588 44.3583324,49.0916164 C44.7199232,49.4305713 45.0917629,49.758583 45.4538326,50.0968718 C45.6934882,50.3206848 45.9363048,50.5433559 46.1558455,50.7860104 C46.7626474,51.456593 47.2443533,52.2152925 47.7217488,53.0167182 C47.6208866,53.0450755 47.5368826,53.0719102 47.451346,53.0922741 C46.8011532,53.2466214 46.1589106,53.1764895 45.518871,53.0262341 C45.0498088,52.9161356 44.581034,52.8044194 44.1094814,52.7057399 C43.9155155,52.6652023 43.7155151,52.647027 43.5171431,52.6366548 C43.2779664,52.6240938 43.1521998,52.7172541 43.1127362,52.9474427 C43.0794985,53.1409953 43.0644602,53.3401623 43.0653223,53.5366648 C43.069441,54.4034644 43.0840005,55.2702641 43.090897,56.1370638 C43.0931959,56.4185429 43.0987515,56.7036381 42.8966438,56.9375379 L42.5748041,56.9375379 Z" id="Fill-6"></path>
                    <path d="M53.7704386,48.1357673 C53.7860517,48.0741045 53.800228,48.0328057 53.8067414,47.9903649 C53.864979,47.614774 53.929347,47.2399442 53.9781019,46.8631162 C54.1529106,45.5122447 54.2466848,44.154617 54.3146926,42.7948007 C54.3469723,42.1492447 54.3982176,41.5046404 54.4304016,40.8590845 C54.4496545,40.4729309 54.5052102,40.087824 54.4563595,39.6983399 C54.4262828,39.4575886 54.4162253,39.2130311 54.414118,38.9700912 C54.4077004,38.2556404 54.4352867,37.5398574 54.4022406,36.8268341 C54.3620107,35.9615569 54.2958228,35.0960895 54.2005161,34.2350945 C54.058466,32.9505486 53.8408411,31.6771362 53.5775264,30.4104801 C53.2861465,29.0081279 52.9241726,27.6299459 52.3951486,26.2947756 C52.1376769,25.6449376 51.9282895,24.9760678 51.7102814,24.3114801 C51.6161241,24.0242915 51.5553961,23.7263499 51.4741699,23.4130878 C51.3866218,23.4130878 51.3042462,23.4123265 51.2218705,23.4133733 C51.1069278,23.4147055 50.9920808,23.4214618 50.8774254,23.4187973 C50.747157,23.4157523 50.6444748,23.3615119 50.5744555,23.2364735 C50.6216778,23.1794735 50.6648771,23.1279927 50.7074059,23.0757506 C50.9404524,22.7898942 51.0199544,22.4685436 50.9132492,22.1140778 C50.8653564,21.9550678 50.8075977,21.7944401 50.7252221,21.6509409 C50.5280952,21.307799 50.3140144,20.974173 50.1051059,20.6376922 C50.0949526,20.6213249 50.0691863,20.6145686 50.0338414,20.5930628 C50.139493,21.3015185 49.9228259,21.9294701 49.6256989,22.5390561 C49.3680355,23.0678524 49.0429391,23.5562063 48.7073063,24.0382798 C48.3636275,24.5319626 47.98719,25.0020461 47.6888177,25.5280828 C47.4692771,25.915188 47.1346021,26.2151279 46.8106551,26.5181129 C46.4761717,26.8310895 46.1349833,27.137405 45.8081628,27.4579943 C45.484599,27.7753482 45.2100773,28.1310511 45.0418778,28.5568858 C45.0103643,28.6365336 44.9910156,28.7209392 44.9622799,28.8153366 C45.0872802,28.8153366 45.1783723,28.8212364 45.2684108,28.8142898 C45.970711,28.7599543 46.6724365,28.6990528 47.3748325,28.6479526 C48.2081674,28.5873366 49.0370004,28.4974117 49.8490709,28.2945336 C49.9628643,28.2660811 50.0405464,28.2865402 50.1117151,28.3711362 C50.1410255,28.4060594 50.1720601,28.44241 50.2095122,28.4672464 C50.3702405,28.5737289 50.3582673,28.7004801 50.2870986,28.8598708 C49.9829792,29.5407306 49.6990707,30.2306304 49.3880547,30.9082548 C48.4283786,32.9991746 47.3209052,35.0151095 46.2331636,37.0414167 C45.2823955,38.8126037 44.3521255,40.5946387 43.4137137,42.3722965 C43.3731006,42.4491846 43.3420661,42.531021 43.3065296,42.6105736 C43.4135222,42.5965853 43.4844993,42.5572848 43.5528903,42.5137973 C44.3268381,42.0215419 45.0854603,41.5033082 45.8783737,41.0435018 C46.631536,40.6066287 47.3195642,40.0939142 47.9595079,39.5119242 C48.5470569,38.9776087 49.1235906,38.4313983 49.7155458,37.9019359 C50.3091293,37.3710461 50.9424639,36.8920177 51.6674652,36.5463065 C51.9563547,36.408612 52.2525238,36.2892831 52.5826011,36.2190561 C52.6034824,36.2844301 52.625992,36.339622 52.6388273,36.3969075 C52.7532911,36.9049593 52.7803984,37.420814 52.7647854,37.9389526 C52.741701,38.706597 52.7189998,39.4745269 52.6799193,40.2415052 C52.656835,40.6962681 52.6225437,41.152173 52.5582716,41.6027489 C52.419574,42.5748891 52.1718723,43.5246671 51.9204351,44.4730177 C51.7665076,45.05339 51.6145916,45.6345235 51.4561622,46.2137539 C51.4053958,46.3993132 51.4484993,46.5420511 51.6075034,46.6507222 C51.7650708,46.7584417 51.9233086,46.8654952 52.0802055,46.9745469 C52.6007046,47.3360544 53.120629,47.6984184 53.6412238,48.0598307 C53.6764729,48.0842865 53.7151703,48.1035085 53.7704386,48.1357673 L53.7704386,48.1357673 Z M55.1725486,42.8292481 C55.1557861,42.910228 55.1261884,42.9908274 55.1242727,43.0719977 C55.0961117,44.253011 54.9298278,45.4199409 54.7613409,46.5862998 C54.6111491,47.6244801 54.4496545,48.6610427 54.2922787,49.6980811 C54.2847117,49.7479442 54.269386,49.7966654 54.2499415,49.8789776 C53.0079851,48.8372765 51.8021398,47.7941479 50.4262751,46.9547539 C50.4354705,46.9092681 50.4383441,46.8640678 50.4537656,46.8235302 C50.8763718,45.7107456 51.1455294,44.5557105 51.4113345,43.3996287 C51.5458175,42.8144985 51.684994,42.2303199 51.8164119,41.6444284 C51.8528104,41.4819927 51.8823124,41.3159409 51.8923699,41.1501746 C51.9495539,40.2014434 52.0064506,39.2525219 52.0485005,38.3031245 C52.0602821,38.038774 52.0241709,37.7719492 52.0046306,37.5066471 C51.9992666,37.4324234 51.9751287,37.3593416 51.9527148,37.2534301 C51.7214883,37.3535369 51.5138251,37.4536437 51.3322156,37.6033282 C50.5836509,38.2205269 49.8325958,38.8345853 49.0873837,39.4555903 C47.9313469,40.4190711 46.7774175,41.3851212 45.5415914,42.2484952 C44.3981984,43.0473516 43.2024107,43.7524768 41.8923507,44.2520594 C41.8218524,44.2788942 41.7503006,44.3028741 41.647331,44.3395102 C41.6677334,44.2497756 41.6778866,44.1851629 41.6972353,44.1235002 C41.8714694,43.5694868 42.1213741,43.0480177 42.4030796,42.5415836 C42.721471,41.9692047 43.0852648,41.4183316 43.3618937,40.827016 C44.111512,39.2245452 45.0492533,37.7243699 45.8833545,36.1681462 C46.9918815,34.0996838 48.0452361,32.0062898 48.905391,29.8215436 C48.9527091,29.7011679 48.9977283,29.5799359 49.0422686,29.4586087 C49.0497399,29.4382447 49.0488778,29.4149309 49.0560618,29.3618324 C48.9732072,29.3572648 48.8935136,29.3425152 48.816023,29.3503182 C48.5267504,29.3795319 48.238723,29.4214968 47.9492589,29.4482364 C47.621672,29.4786871 47.2926484,29.493627 46.9649658,29.5227456 C46.3550029,29.5771763 45.745519,29.6353182 45.1360351,29.6949826 C44.6500188,29.7425619 44.178083,29.676617 43.6834461,29.5450127 C43.7275074,29.413218 43.7619903,29.2995035 43.8032739,29.1882631 C44.0605541,28.4964601 44.4398651,27.8708875 44.8978162,27.2967005 C45.3589282,26.7187072 45.8495422,26.1639326 46.3287577,25.600213 C46.8474368,24.9900561 47.3788555,24.3901763 47.8838373,23.768981 C48.2791446,23.2828157 48.6054862,22.7492614 48.8563487,22.1727907 C49.3627673,21.0091913 49.3415987,19.8524434 48.8078812,18.7052114 C48.695812,18.4641746 48.5616164,18.2327489 48.4274207,18.0027506 C48.3734934,17.9103516 48.3515585,17.8244234 48.3804857,17.7224134 C48.4279954,17.5544584 48.4723442,17.3856471 48.5307734,17.170779 C48.6160226,17.2753583 48.6817315,17.3528174 48.744088,17.4329409 C50.1437075,19.2298207 51.273499,21.1830461 52.1680409,23.2718725 C53.0881576,25.4206487 53.7348064,27.6518324 54.195631,29.9386838 C54.4708231,31.3035436 54.6814557,32.6786805 54.827433,34.0622865 C54.9310731,35.0450845 55.0000387,36.0315937 55.0759009,37.0169609 C55.1037745,37.3807523 55.1040619,37.7463516 55.123219,38.110809 C55.1290619,38.2230962 55.1554988,38.3344317 55.1725486,38.4461479 L55.1725486,42.8292481 Z" id="Fill-3"></path>
                    <path d="M1.28403504,28.4971357 C1.26976298,28.5085548 1.25549092,28.5198786 1.24131465,28.5312977 C1.27244498,28.5969571 1.29514617,28.668326 1.3362382,28.7270389 C1.49342241,28.951518 1.63575985,29.1911274 1.82206289,29.3895331 C2.1505118,29.7395264 2.50194926,30.0690606 2.85309936,30.3971674 C3.60597437,31.1003895 4.36584173,31.7962843 5.11986617,32.4983644 C5.23116906,32.6019922 5.33145661,32.7187518 5.42638017,32.8377 C5.49726153,32.926483 5.55798961,33.0249721 5.61105485,33.1255548 C5.71967575,33.3313828 5.73758766,33.5432058 5.64074839,33.7622609 C5.60425407,33.8448586 5.58279809,33.9351641 5.56297047,34.0238519 C5.37341071,34.8727618 5.26718446,35.7321391 5.25233769,36.6013177 C5.23212692,37.7789053 5.37590114,38.9381274 5.66948408,40.0789838 C6.12120909,41.8347551 6.88136381,43.4559721 7.86326225,44.9761307 C9.09372438,46.8810155 10.5622138,48.5906349 12.2142285,50.1471441 C13.296606,51.1669588 14.4521638,52.0888553 15.7723771,52.7928386 C15.8036032,52.8094913 15.8279327,52.8388953 15.8581052,52.864493 C15.786266,53.0728903 15.6770704,53.2513127 15.5182578,53.3826316 C15.2544642,53.6008302 14.9795595,53.8076098 14.6959382,53.9998302 C14.4179683,54.1881491 14.1223739,54.3507751 13.8365496,54.5280556 C13.7768751,54.5649771 13.7263961,54.6165531 13.639327,54.687922 C13.7359747,54.7020055 13.7797487,54.7107601 13.8238101,54.7144713 C14.4952673,54.7708052 15.1669161,54.8247601 15.838086,54.8840439 C15.9733353,54.8959387 16.0896191,54.869675 16.2096384,54.8039204 C16.7555207,54.5052175 17.3408667,54.3522977 17.966251,54.335074 C18.6720953,54.3157568 19.3527479,54.4510723 20.0250672,54.6403427 C20.7612756,54.8475982 21.4908747,55.0787384 22.2300523,55.2748603 C23.018368,55.4840189 23.8200937,55.598685 24.6397313,55.4884913 C24.9498851,55.4467167 25.2561118,55.3909538 25.5646373,55.2695314 C25.5363805,55.1846499 25.514733,55.113281 25.4889666,55.0434346 C25.4179895,54.8506432 25.3422231,54.6596599 25.2753647,54.4655364 C25.2598474,54.4205264 25.253334,54.3542008 25.2758436,54.3178503 C25.3841772,54.1429487 25.7336031,54.0560689 25.9192357,54.1484679 C26.1963435,54.2866382 26.3531445,54.6181708 26.2790065,54.9127818 C26.2673206,54.9590289 26.247493,55.0032776 26.2268991,55.0609437 C26.2840831,55.0609437 26.3144471,55.0649404 26.343566,55.0603728 C27.1990274,54.9283878 28.045006,54.7520589 28.8780536,54.5171124 C29.7704883,54.265513 30.6419459,53.9563427 31.4790165,53.5565815 C31.5485568,53.5234663 31.6340934,53.5042442 31.6824651,53.4060406 C31.6224075,53.3886265 31.5811239,53.3744479 31.5386909,53.3648369 C30.6811222,53.1691908 29.8195305,52.9895314 28.9664637,52.7760907 C26.4489302,52.1461407 24.0588873,51.2030239 21.8430784,49.8491073 C20.9604139,49.3098436 20.144033,48.6793227 19.3686484,47.996084 C19.2743953,47.9131057 19.2523646,47.8309838 19.2783225,47.7158419 C19.4610815,46.905281 19.4822501,46.0881541 19.3653916,45.267316 C19.2768857,44.6461207 19.1086862,44.0478586 18.8213293,43.4862326 C18.7889538,43.4229521 18.7482449,43.3637634 18.7113674,43.3027668 C18.6356968,43.508119 18.6017886,43.70072 18.5662522,43.8930356 C18.4188381,44.6892275 18.1856959,45.4579187 17.8358868,46.1914012 C17.7672085,46.3353761 17.6692198,46.4175932 17.5219973,46.464316 C17.165579,46.5775548 16.8125132,46.5643277 16.4620336,46.4455698 C15.9044654,46.2567751 15.4309971,45.9152509 14.9384674,45.6088402 C14.9004405,45.5851457 14.8709386,45.5471775 14.8392335,45.5141574 C14.4423937,45.1015497 14.0349216,44.6984579 13.6512044,44.2740506 C12.0907608,42.5479688 10.777061,40.6580239 9.82303613,38.5325614 C9.02973958,36.7654663 8.54075397,34.9213878 8.43711392,32.9859571 C8.34592601,31.2829988 8.57130958,29.6171524 9.08433739,27.9896549 C9.10857115,27.9126716 9.12868613,27.8344513 9.15071683,27.7568018 C9.04851357,27.7751674 8.97868585,27.8158002 8.91431791,27.8636649 C8.585869,28.1083177 8.30828226,28.4030239 8.09180675,28.747498 C7.89333893,29.0632342 7.72102059,29.3950523 7.53146084,29.7164028 C7.31498533,30.0834295 7.09381632,30.4477918 6.87063582,30.810917 C6.82829857,30.8798119 6.76699577,30.9372876 6.69975426,31.0175063 C4.88595767,30.1734496 3.08499635,29.3353878 1.28403504,28.4971357 L1.28403504,28.4971357 Z M2.87356875e-05,27.6708736 C0.0501246175,27.6457518 0.108936991,27.6299554 0.14859224,27.5935097 C0.231734162,27.5171925 0.304722808,27.4300272 0.389301515,27.3393411 C0.478190575,27.3778803 0.555393788,27.4085214 0.630106576,27.4441107 C1.6727331,27.9397918 2.7128692,28.4408018 3.75817772,28.9307735 C4.52024815,29.2879988 5.29994314,29.6031641 6.10904431,29.8422025 C6.18902531,29.8658018 6.26986838,29.8868319 6.36642029,29.9136666 C6.41651617,29.8311641 6.46412162,29.7550372 6.50952401,29.6775781 C7.10751367,28.6566215 7.83184456,27.7390072 8.7504287,26.9808786 C9.27198143,26.5504763 9.83845761,26.1920139 10.4681523,25.937084 C10.6482293,25.8640973 10.6490914,25.8663811 10.8079997,26.0351925 C10.7650877,26.1471942 10.7242831,26.2691875 10.672463,26.3863277 C10.4292633,26.9362492 10.1815617,27.4840773 9.93845781,28.0339037 C9.65493236,28.6750823 9.38663682,29.323493 9.26297758,30.0165331 C9.20052535,30.3670022 9.15473982,30.7246082 9.14870533,31.0798352 C9.13836048,31.695321 9.14736433,32.3123294 9.17878202,32.9271491 C9.28290099,34.9580239 9.79956865,36.8857467 10.685011,38.717074 C11.5597253,40.5259437 12.745264,42.1129988 14.173715,43.526104 C14.7716089,44.1174195 15.4030277,44.6711474 16.0707493,45.183291 C16.3524548,45.3994913 16.6869382,45.5147284 17.0179733,45.6339621 C17.1368433,45.6767835 17.2016902,45.6275865 17.2637592,45.5340456 C17.5120356,45.1600723 17.6786068,44.7504145 17.7512123,44.3124947 C17.8332048,43.8182409 17.8788945,43.3180873 17.9378985,42.8202175 C17.9861744,42.4126533 18.0300442,42.0046132 18.0781286,41.5970489 C18.0840673,41.5462342 18.1037034,41.4968469 18.1216153,41.4297601 C18.3055237,41.4770539 18.4526504,41.5674546 18.5920185,41.6712726 C18.8214251,41.8424629 19.017594,42.0504796 19.1561958,42.2966549 C19.4250661,42.7738753 19.6912543,43.2544262 19.9203736,43.7509638 C20.0160634,43.9583144 20.0249715,44.2086766 20.0541861,44.4419104 C20.1137647,44.9165614 20.1769832,45.3917835 20.2070599,45.8688135 C20.2340715,46.2966466 20.158305,46.7190556 20.014435,47.1240506 C19.9660633,47.2601274 19.9864656,47.3429154 20.0968107,47.4377885 C21.190012,48.3777651 22.3670258,49.1995548 23.6451891,49.8694713 C25.5197138,50.8519838 27.4872463,51.6119204 29.5227867,52.1936249 C30.7065054,52.5318185 31.9001859,52.8361357 33.0893644,53.1556783 C33.1772956,53.1792776 33.2654184,53.2022109 33.3620661,53.2278085 C33.357181,53.4066115 33.2780621,53.5552492 33.2142688,53.7054095 C33.194537,53.7518469 33.1251882,53.7859137 33.0711651,53.8081808 C30.8838046,54.7133294 28.6582256,55.4992442 26.3156924,55.9129938 C25.0892532,56.1297651 23.8528524,56.2185481 22.6092676,56.1426115 C21.2358933,56.0586816 19.9153927,55.7500823 18.6737236,55.1472526 C18.5459456,55.0852092 18.4402941,55.0801658 18.3065773,55.1299337 C17.1777438,55.5497735 16.0091591,55.6876583 14.8083905,55.6221891 C13.5019704,55.5510105 12.231853,55.2756215 10.9631724,54.9862442 C10.8215055,54.9539855 10.6804133,54.9193477 10.5394168,54.8842342 C10.5178651,54.8788102 10.4985164,54.8650122 10.4668113,54.8496917 L10.4668113,54.3560088 C10.7285934,54.3214663 10.9849158,54.2939654 11.2388434,54.2526666 C11.7746682,54.1655965 12.3127919,54.0874713 12.8433484,53.9751841 C13.3102076,53.8765047 13.746128,53.6863778 14.1407647,53.4133678 C14.214807,53.3620773 14.2837727,53.3035548 14.368543,53.2378002 C14.3275467,53.1913628 14.3033129,53.1544412 14.2704585,53.1282726 C13.0511075,52.1539437 11.904362,51.1018703 10.8189193,49.9818536 C8.72370451,47.8199454 7.00262841,45.4050105 5.7739862,42.6563544 C5.10932975,41.1691207 4.64218326,39.6215564 4.39084178,38.0122342 C4.30147379,37.4402359 4.22771886,36.8657634 4.33911754,36.287675 C4.46430935,35.6384078 4.59429044,34.989902 4.72216425,34.3412058 C4.75894593,34.154695 4.79285404,33.9676132 4.83385029,33.7821491 C4.86181969,33.6553027 4.83595757,33.5497718 4.76249,33.4396733 C4.39984562,32.8964129 3.95894439,32.422523 3.47139556,31.9907885 C3.11124161,31.671912 2.7322179,31.3737801 2.37493752,31.0519538 C1.9612394,30.6791224 1.54323094,30.308099 1.16142944,29.9042459 C0.639589352,29.3522309 0.286906682,28.6977301 0.100699427,27.9585381 C0.0832664436,27.8891674 0.0343199894,27.8275047 2.87356875e-05,27.7622259 L2.87356875e-05,27.6708736 Z" id="Fill-1"></path>
                </g>
            </g>
        </g>
    </g>
</svg>