<?xml version="1.0" encoding="UTF-8"?>
<svg width="168px" height="173px" viewBox="0 0 168 173" version="1.1" xmlns="http://www.w3.org/2000/svg" xmlns:xlink="http://www.w3.org/1999/xlink">
    <title>310D8BAB-E7BF-46D0-9205-E53DCFA1921A</title>
    <defs>
        <polygon id="path-1" points="0.230731163 0.0288237062 41.0934719 0.0288237062 41.0934719 99.3010758 0.230731163 99.3010758"></polygon>
        <polygon id="path-3" points="0.186714845 0.189462437 94.1823458 0.189462437 94.1823458 49.6269417 0.186714845 49.6269417"></polygon>
    </defs>
    <g id="Public" stroke="none" stroke-width="1" fill="none" fill-rule="evenodd" opacity="0.30405971">
        <g id="D---Forgot-Password" transform="translate(-86.000000, -152.000000)">
            <g id="Group-25" transform="translate(86.000000, 152.000000)">
                <path d="M3.87936844,86.4913067 C3.83624923,86.5259644 3.79313003,86.5603334 3.75030021,86.5949912 C3.84435217,86.7942733 3.91293775,87.0108843 4.03708634,87.189083 C4.51197639,87.8703968 4.94201089,88.5976322 5.5048757,89.1998109 C6.49719623,90.2620713 7.55897051,91.2622366 8.61987662,92.2580696 C10.8944871,94.3924102 13.1902231,96.504512 15.4683063,98.6353868 C15.8045782,98.949906 16.1075702,99.3042816 16.3943564,99.6653 C16.6085054,99.9347641 16.7919791,100.233687 16.9523015,100.538964 C17.2804705,101.163671 17.3345866,101.806572 17.0420126,102.471424 C16.9317548,102.722115 16.8669313,102.9962 16.8070274,103.265375 C16.2343233,105.841891 15.9133891,108.450176 15.8685335,111.08821 C15.8074721,114.662292 16.2418475,118.180632 17.1288298,121.643232 C18.4935961,126.972151 20.7902003,131.892687 23.7567438,136.506502 C27.474256,142.287994 31.9109041,147.476839 36.9020245,152.200981 C40.1721389,155.296208 43.6633476,158.094245 47.6520189,160.230896 C47.7463603,160.281439 47.8198655,160.370682 47.9110235,160.448373 C47.6939805,161.080878 47.3640752,161.622405 46.8842655,162.020969 C46.0872837,162.683222 45.2567325,163.310816 44.3998468,163.894222 C43.5600352,164.465786 42.6669756,164.95937 41.8034339,165.497432 C41.6231436,165.609492 41.4706347,165.76603 41.2075786,165.982641 C41.4995738,166.025385 41.6318253,166.051956 41.764945,166.06322 C43.7935734,166.234198 45.8227806,166.397956 47.8505409,166.577888 C48.2591605,166.613989 48.6104807,166.534277 48.9730872,166.334706 C50.6223245,165.428116 52.3907907,164.963991 54.2802223,164.911716 C56.412742,164.853086 58.4691519,165.263781 60.5003848,165.838233 C62.7246414,166.467272 64.9289299,167.168803 67.1621575,167.76405 C69.5438426,168.398864 71.9660423,168.746886 74.442358,168.412439 C75.379405,168.285649 76.3045868,168.116404 77.2367141,167.747876 C77.1513439,167.490253 77.0859416,167.273642 77.0080955,167.061652 C76.793657,166.476514 76.564749,165.896863 76.3627544,165.307681 C76.3158731,165.171071 76.2961945,164.969767 76.3642013,164.85944 C76.6915021,164.328599 77.7471992,164.064911 78.3080383,164.34535 C79.1452454,164.764709 79.6189779,165.770939 79.3949896,166.66511 C79.3596839,166.805474 79.29978,166.939772 79.2375611,167.114794 C79.4103273,167.114794 79.5020641,167.126924 79.5900389,167.113061 C82.1745867,166.712475 84.7304849,166.177302 87.2473154,165.464218 C89.943568,164.700592 92.5764441,163.762233 95.105429,162.548923 C95.3155266,162.448415 95.5739525,162.390075 95.7200947,162.092018 C95.5386468,162.039165 95.4139194,161.996131 95.2857194,161.966961 C92.6948049,161.373158 90.091736,160.827876 87.5144229,160.180065 C79.9083686,158.268111 72.6874932,155.405669 65.9930193,151.296414 C63.3262845,149.659701 60.859808,147.746015 58.5171907,145.672325 C58.2324303,145.420479 58.1658705,145.171232 58.2442954,144.821766 C58.7964527,142.361642 58.860408,139.88159 58.5073515,137.390275 C58.2399545,135.504893 57.7317845,133.689115 56.8636126,131.98453 C56.7657985,131.792469 56.6428075,131.612826 56.5313921,131.427696 C56.3027735,132.050958 56.2003292,132.635519 56.0929653,133.219213 C55.6475931,135.635726 54.9432163,137.968771 53.8863616,140.194954 C53.6788685,140.631931 53.3828219,140.881467 52.9380285,141.023275 C51.8612059,141.366964 50.7945119,141.326819 49.7356316,140.966378 C48.0510886,140.39337 46.6206306,139.356814 45.1325839,138.426831 C45.0176958,138.354916 44.9285635,138.239679 44.8327752,138.13946 C43.6338298,136.88716 42.402762,135.663741 41.243463,134.375627 C36.529,129.136818 32.5600073,123.400669 29.6776764,116.949704 C27.2809431,111.586415 25.8036038,105.989475 25.4904832,100.115273 C25.2149833,94.9466456 25.8959195,89.8906556 27.4458958,84.9510579 C27.5191116,84.7174068 27.5798836,84.4800012 27.6464435,84.2443284 C27.3376637,84.3000696 27.1266979,84.4233935 26.9322274,84.5686673 C25.9399068,85.3112098 25.1012527,86.2056689 24.4472299,87.2511781 C23.8476125,88.2094653 23.3269987,89.2165621 22.7542946,90.1918893 C22.1002717,91.3058476 21.4320687,92.411719 20.7577885,93.5138359 C20.6298779,93.7229377 20.4446678,93.8973818 20.2415156,94.1408526 C14.7616143,91.5790663 9.32049138,89.0354753 3.87936844,86.4913067 L3.87936844,86.4913067 Z M8.68171946e-05,83.9835287 C0.151438126,83.9072816 0.329123983,83.8593384 0.44893171,83.7487224 C0.700122792,83.517093 0.920638465,83.2525387 1.17617041,82.9772983 C1.44472493,83.0942683 1.67797379,83.1872666 1.90369849,83.2952833 C5.05371568,84.799719 8.19620872,86.3203284 11.3543288,87.8074352 C13.6567208,88.8916456 16.0123607,89.8481998 18.4568435,90.5737023 C18.6984847,90.6453284 18.9427304,90.7091564 19.2344362,90.7906022 C19.3857875,90.5401998 19.5296146,90.3091481 19.6667858,90.0740529 C21.4734516,86.9753601 23.6618237,84.19032 26.43708,81.8893334 C28.012812,80.5830245 29.7242683,79.4950596 31.6267224,78.721325 C32.1707769,78.4998042 32.1733814,78.5067357 32.6534805,79.019093 C32.5238334,79.3590279 32.400553,79.7292883 32.2439927,80.0848192 C31.5092298,81.7538793 30.7608656,83.4165855 30.0263922,85.0853568 C29.1697958,87.0313902 28.3592126,88.9993735 27.9856093,91.1028109 C27.7969266,92.1665154 27.6585979,93.251881 27.6403663,94.3300262 C27.6091121,96.1980796 27.6363148,98.0707541 27.7312349,99.9367858 C28.0458026,106.100669 29.6067757,111.951477 32.2819029,117.509716 C34.9246183,122.999794 38.5064063,127.816646 42.822089,132.105544 C44.6284654,133.900238 46.5361286,135.580851 48.5534708,137.135252 C49.4045687,137.791439 50.4151208,138.141193 51.4152549,138.503078 C51.7743887,138.633045 51.9703061,138.483727 52.1578313,138.199823 C52.9079318,137.064781 53.4111822,135.821434 53.6305403,134.492308 C53.8782587,132.992205 54.016298,131.474195 54.1945626,129.963116 C54.3404155,128.726123 54.4729564,127.487686 54.6182306,126.250692 C54.6361728,126.096465 54.6954979,125.94657 54.7496139,125.742956 C55.3052439,125.886497 55.749748,126.160871 56.1708114,126.475968 C56.863902,126.995545 57.456574,127.626894 57.8753223,128.374058 C58.6876418,129.822464 59.4918584,131.280978 60.1840809,132.788013 C60.4731821,133.41734 60.5000868,134.177212 60.5883596,134.885096 C60.7683606,136.325704 60.9593584,137.768045 61.0502271,139.215873 C61.1318352,140.514383 60.9029272,141.796432 60.4682625,143.025627 C60.3221202,143.438632 60.3837604,143.689901 60.7171384,143.977849 C64.0199539,146.830761 67.5759862,149.324964 71.4376149,151.35822 C77.1009899,154.340232 83.0453632,156.646706 89.1952038,158.41223 C92.7714934,159.438677 96.3778797,160.362307 99.9706646,161.332146 C100.236325,161.403772 100.502565,161.473377 100.79456,161.551068 C100.779801,162.093751 100.540764,162.544879 100.34803,163.000629 C100.288415,163.14157 100.078897,163.244966 99.9156803,163.312549 C93.3071555,166.059754 86.5831638,168.445075 79.5058262,169.700841 C75.8004683,170.358761 72.0650139,170.628225 68.3078551,170.397751 C64.158572,170.143016 60.1690326,169.20639 56.4176616,167.376749 C56.0316145,167.188442 55.7124166,167.173135 55.3084272,167.324185 C51.8979585,168.598435 48.3673926,169.016928 44.7395914,168.818223 C40.7925924,168.60219 36.9552724,167.76636 33.1222933,166.888075 C32.6942845,166.790166 32.2680121,166.685038 31.8420291,166.578465 C31.7769162,166.562003 31.7184593,166.520125 31.622671,166.473626 L31.622671,164.975255 C32.4135756,164.870415 33.187985,164.786948 33.9551596,164.661602 C35.5740109,164.397337 37.1998075,164.16022 38.8027423,163.819419 C40.2132323,163.519918 41.5302492,162.942866 42.7225386,162.114257 C42.9462376,161.958585 43.1545989,161.780964 43.4107096,161.581393 C43.2868504,161.440452 43.2136346,161.328392 43.1143736,161.248968 C39.4304306,158.291794 35.9658458,155.098659 32.686471,151.69931 C26.35634,145.137729 21.1565688,137.80819 17.444555,129.465777 C15.4364733,124.951893 14.0251151,120.254899 13.2657541,115.370465 C12.9957526,113.6344 12.7729218,111.890826 13.1094831,110.136277 C13.4877167,108.165694 13.8804198,106.197422 14.2667563,104.228572 C14.3778823,103.662495 14.4803266,103.094686 14.6041858,102.531786 C14.6886879,102.146796 14.6105524,101.8265 14.3885898,101.492342 C13.2929568,99.8434987 11.9608916,98.4052015 10.4878933,97.0948492 C9.39978442,96.1270312 8.25466563,95.2221748 7.17523852,94.2454035 C5.92536031,93.1138275 4.66245953,91.9877391 3.50894841,90.7620095 C1.93234817,89.0865955 0.866811805,87.100128 0.304236387,84.8566155 C0.251567289,84.6460696 0.103688669,84.4589177 8.68171946e-05,84.2607908 L8.68171946e-05,83.9835287 Z" id="Fill-1" fill="#FFFFFF"></path>
                <g id="Group-5" transform="translate(125.595541, 52.085997)">
                    <mask id="mask-2" fill="white">
                        <use xlink:href="#path-1"></use>
                    </mask>
                    <g id="Clip-4"></g>
                    <path d="M36.8574584,94.0102795 C36.9046291,93.8231275 36.9474589,93.697782 36.9671374,93.5689706 C37.143087,92.429019 37.3375575,91.291378 37.4848573,90.1476718 C38.0129952,86.0476584 38.2963087,81.9271392 38.501776,77.7999773 C38.5993007,75.8406584 38.7541247,73.8842277 38.8513599,71.9249088 C38.9095275,70.7528988 39.077374,69.5840658 38.9297848,68.4019472 C38.8389161,67.6712461 38.8085301,66.9289923 38.8021635,66.1916484 C38.7827744,64.0232277 38.8661189,61.8507636 38.7662791,59.6866751 C38.644735,57.0604831 38.4447661,54.4337135 38.1568224,51.8205182 C37.7276561,47.9218087 37.0701605,44.0568905 36.2746256,40.2124781 C35.3942993,35.956216 34.300692,31.7733129 32.7023875,27.7209539 C31.9245054,25.7486384 31.2918975,23.7185599 30.6332444,21.7014781 C30.3487733,20.8298354 30.1652997,19.9255566 29.9198964,18.9747786 C29.6553934,18.9747786 29.4065174,18.9724681 29.1576414,18.9756451 C28.8103727,18.9796885 28.4633933,19.0001943 28.1169927,18.9921075 C27.7234214,18.9828654 27.4131946,18.8182411 27.2016501,18.4387386 C27.3443196,18.2657386 27.4748348,18.1094898 27.6033243,17.9509306 C28.3074117,17.0833312 28.547606,16.108004 28.2252248,15.0321693 C28.0805295,14.5495599 27.9060269,14.0620407 27.6571509,13.6265082 C27.061585,12.5850424 26.4147969,11.5724581 25.7836359,10.5512093 C25.7529605,10.5015332 25.6751144,10.4810274 25.5683292,10.4157553 C25.8875271,12.5659806 25.2329255,14.4718688 24.3352357,16.3220157 C23.5567749,17.9269589 22.574583,19.4091559 21.5605582,20.8722912 C20.5222245,22.3706618 19.3849193,23.7974063 18.4834674,25.393974 C17.8201841,26.5688721 16.8090531,27.479216 15.830334,28.398802 C14.8197818,29.3487135 13.7889724,30.278408 12.8015715,31.2514247 C11.8240099,32.2146217 10.9946163,33.294211 10.4864463,34.5866568 C10.3912368,34.8283947 10.3327799,35.0845733 10.2459627,35.3710775 C10.6236175,35.3710775 10.898828,35.388984 11.1708552,35.3679005 C13.2926674,35.2029873 15.4127433,35.0181459 17.5348449,34.8630524 C20.0525435,34.6790775 22.5566408,34.4061476 25.0100947,33.7903947 C25.3538908,33.7040391 25.5885866,33.7661342 25.8036038,34.0228905 C25.8921574,34.1288855 25.98592,34.2392127 26.0990717,34.3145933 C26.5846692,34.637777 26.5484954,35.0224781 26.3334781,35.5062427 C25.4146628,37.5727119 24.5569089,39.6666184 23.6172575,41.7232678 C20.7178526,48.069393 17.371918,54.1879322 14.0855978,60.3379523 C11.2131062,65.7136601 8.40254425,71.1222928 5.56738408,76.5176401 C5.44468245,76.7510023 5.35091988,76.999383 5.24355595,77.2408321 C5.5668053,77.1983763 5.78124377,77.0790958 5.98786869,76.9471075 C8.32614512,75.4530691 10.618119,73.8801843 13.0136948,72.4846317 C15.2891735,71.1586835 17.3678665,69.6025499 19.3012854,67.8361593 C21.0764076,66.2144648 22.8182499,64.5566684 24.6066841,62.9497035 C26.400038,61.3384063 28.3134889,59.8845132 30.5038867,58.8352494 C31.3766889,58.4173346 32.2714848,58.0551609 33.268725,57.8420157 C33.3318121,58.0404314 33.3998189,58.2079439 33.4385973,58.3818104 C33.7844191,59.923792 33.8663167,61.4894564 33.819146,63.0620524 C33.7494028,65.3919205 33.6808173,67.7226551 33.5627459,70.0505015 C33.4930027,71.4307469 33.3894009,72.8144581 33.1952197,74.1819957 C32.7761821,77.1325265 32.0278179,80.015186 31.2681674,82.8935132 C30.8031167,84.654994 30.3441431,86.4187853 29.865491,88.1768003 C29.7121139,88.739989 29.8423397,89.173211 30.3227282,89.5030374 C30.7987758,89.8299756 31.2768491,90.1548922 31.750871,90.4858738 C33.3234198,91.5830808 34.8942322,92.6828871 36.4670704,93.7798053 C36.5735662,93.8540307 36.69048,93.9123713 36.8574584,94.0102795 L36.8574584,94.0102795 Z M41.0935587,77.9045282 C41.0429153,78.1503095 40.9534936,78.3949356 40.9477058,78.6412945 C40.8626249,82.2257736 40.3602428,85.7675082 39.8512046,89.3075098 C39.3974401,92.4584781 38.9095275,95.6045366 38.4340586,98.7520391 C38.4111968,98.903378 38.3648943,99.0512511 38.306148,99.3010758 C34.5539088,96.1394214 30.91077,92.9734347 26.7539627,90.4258003 C26.7817442,90.2877469 26.790426,90.1505599 26.8370178,90.0275249 C28.1138094,86.6501259 28.9269971,83.1444932 29.7300561,79.6356835 C30.1363606,77.8597619 30.5568452,76.0867285 30.9538892,74.3084965 C31.0638576,73.8154898 31.15299,73.3115082 31.183376,72.808393 C31.3561422,69.9289105 31.5280402,67.0488504 31.6550827,64.1673462 C31.6906778,63.365019 31.5815775,62.5551826 31.5225418,61.7499673 C31.5063359,61.5246918 31.4334095,61.3028821 31.3656921,60.9814314 C30.6671031,61.2852644 30.0397041,61.5890975 29.4910195,62.043403 C27.2294316,63.9166551 24.9603195,65.7803763 22.7088603,67.665181 C19.2162046,70.5894297 15.7299154,73.5214765 11.9961973,76.1418922 C8.54174115,78.5664915 4.92898831,80.7066083 0.970992437,82.2228855 C0.758000921,82.3043312 0.541826108,82.3771125 0.230731163,82.4883062 C0.292371371,82.2159539 0.323046779,82.0198487 0.38150369,81.8326968 C0.907905276,80.1512177 1.66292547,78.5685132 2.51402337,77.0314414 C3.47595788,75.294221 4.57506355,73.6222728 5.41082374,71.8275783 C7.67559494,66.9639389 10.5087294,62.4107753 13.0287431,57.6874998 C16.3778611,51.4095349 19.56029,45.0559005 22.159018,38.425004 C22.301977,38.0596534 22.4379906,37.6917035 22.5725573,37.3234648 C22.5951297,37.2616584 22.5925252,37.1908988 22.6142295,37.0297402 C22.3639066,37.0158771 22.1231336,36.9711109 21.8890166,36.9947937 C21.0150568,37.0834598 20.1448591,37.210827 19.2703206,37.291984 C18.2806046,37.3844047 17.2865477,37.4297486 16.2965423,37.5181259 C14.4537027,37.6833279 12.61231,37.8597937 10.7709173,38.0408805 C9.30254916,38.1852878 7.87672144,37.9851392 6.38230814,37.5857085 C6.51542784,37.1857002 6.61960847,36.8405666 6.74433584,36.5029422 C7.52163912,34.4032594 8.66762608,32.5045917 10.0512028,30.7618838 C11.4443293,29.0076234 12.9265882,27.3238337 14.3744096,25.6128955 C15.94146,23.7610157 17.5469993,21.9403279 19.0726668,20.0549456 C20.266982,18.5793913 21.2529359,16.9600073 22.01085,15.2103679 C23.5408584,11.6787419 23.476903,8.16791052 21.8644184,4.6859606 C21.5258313,3.95439299 21.120395,3.25199566 20.7149587,2.55393055 C20.5520318,2.27349149 20.4857613,2.01269182 20.5731573,1.70308247 C20.7166951,1.19332454 20.8506829,0.680967279 21.0272112,0.0288237062 C21.2847689,0.346231052 21.4832909,0.58132621 21.6716842,0.82450818 C25.9002603,6.27819599 29.313623,12.2064063 32.0162423,18.5461776 C34.7961288,25.0679022 36.7498051,31.8397402 38.1420635,38.7805349 C38.9734828,42.923004 39.6098528,47.0966651 40.0508842,51.2960307 C40.3640049,54.2789088 40.5723661,57.2730508 40.8015635,60.2637269 C40.8857762,61.3678654 40.8866444,62.4774915 40.9445225,63.5836518 C40.9621753,63.9244531 41.0420471,64.2623663 41.0935587,64.6014347 L41.0935587,77.9045282 Z" id="Fill-3" fill="#FFFFFF" mask="url(#mask-2)"></path>
                </g>
                <path d="M137.145729,141.755045 C137.127208,141.720387 137.108108,141.686018 137.089298,141.65136 C136.986564,141.673888 136.878911,141.684285 136.781965,141.721542 C134.948097,142.423362 133.120884,143.141933 131.281228,143.829023 C129.984468,144.313365 128.674397,144.764205 127.364904,145.214756 C126.711749,145.439165 126.047598,145.395265 125.380552,145.24306 C124.23254,144.980816 123.213595,144.436978 122.255712,143.786567 C121.185546,143.05991 120.161682,142.26538 119.097592,141.528614 C118.28151,140.963692 117.439673,140.43545 116.598704,139.908075 C116.37732,139.769444 116.115132,139.695796 115.871755,139.5924 C115.832397,139.633412 115.792462,139.675001 115.752815,139.716013 C117.171408,142.704956 118.590001,145.693611 120.026247,148.719811 C119.162416,149.776006 118.195851,150.68635 117.09906,151.467305 C115.760918,152.420105 114.460107,153.42027 113.342191,154.633581 C113.160164,154.83113 112.999552,155.048607 112.818683,155.270128 C112.939359,155.348108 112.992028,155.399517 113.054537,155.419157 C113.208203,155.4671 113.365632,155.505512 113.523349,155.538437 C116.486999,156.153035 119.451227,156.138594 122.403301,155.483851 C123.074977,155.335112 123.206071,155.149692 123.720897,156.062347 C124.230225,156.964893 124.708009,157.894298 125.096371,158.853452 C126.023,161.140576 126.884805,163.453404 127.784231,165.751502 C127.876257,165.985442 127.86555,166.299095 128.231629,166.472384 C128.231629,164.72621 128.223816,163.043864 128.233944,161.362096 C128.244362,159.663 128.18851,157.96217 128.274459,156.164876 C128.663689,156.219462 128.99099,156.21513 129.281828,156.315926 C130.132636,156.610806 130.963766,156.962005 131.81197,157.264394 C133.377574,157.822961 134.934206,158.414165 136.524697,158.893309 C137.767919,159.267901 139.060916,159.428771 140.360859,159.118006 C140.501503,159.084504 140.627099,158.989484 140.860637,158.872514 C140.340023,158.166073 139.897255,157.492846 139.38214,156.879692 C137.664028,154.834307 135.566814,153.19124 133.562784,151.446222 C132.485672,150.50844 131.502612,149.46322 130.476432,148.467387 C130.240868,148.238646 130.213955,147.993153 130.409872,147.728888 C130.739199,147.284691 131.027722,146.800349 131.412032,146.409005 C132.009045,145.800761 132.644547,145.222265 133.313039,144.692868 C134.363527,143.860793 135.456267,143.082437 136.527012,142.276066 C136.742029,142.114041 136.939972,141.929489 137.145729,141.755045 L137.145729,141.755045 Z M128.628384,172.810422 C128.315263,172.041886 127.994039,171.276527 127.690758,170.503948 C126.442905,167.322076 125.132255,164.16822 123.456683,161.180721 C122.948513,160.274998 122.37552,159.405955 121.850276,158.509763 C121.649728,158.168384 121.397958,158.059501 120.999467,158.078562 C119.567273,158.146723 118.12987,158.256761 116.700569,158.198709 C114.390943,158.104556 112.085946,157.89401 109.780081,157.723609 C109.158181,157.677976 108.538306,157.599708 107.889187,157.533858 C107.886888,157.217317 108.129687,157.084462 108.288562,156.915506 C110.539442,154.52412 112.909841,152.256058 115.373424,150.083883 C116.081273,149.459754 116.767419,148.811076 117.501892,148.138427 C115.376028,144.653589 114.138594,140.851344 112.847622,136.897182 C113.574282,137.044766 114.179687,137.093576 114.728372,137.295457 C115.874938,137.717127 117.022661,138.157858 118.112506,138.704295 C119.371645,139.335644 120.564513,140.09696 121.793845,140.787804 C123.248612,141.605439 124.74534,142.324298 126.389947,142.692537 C126.83011,142.791023 127.246833,142.795644 127.687285,142.674631 C129.612312,142.145522 131.450232,141.427818 133.212621,140.473863 C134.516036,139.768577 135.974855,139.432108 137.43049,139.14647 C138.31834,138.972026 139.210531,138.845237 140.115456,139.023724 C140.599896,139.119033 141.050767,139.274993 141.418582,139.783018 C141.190253,140.091472 140.986522,140.453935 140.701472,140.733796 C140.108221,141.315758 139.475034,141.857574 138.852555,142.409788 C137.676761,143.452409 136.462188,144.454884 135.333565,145.545738 C134.743208,146.116435 134.245746,146.80497 133.807319,147.503324 C133.340532,148.24731 133.391754,148.408469 134.016838,148.997362 C135.109287,150.02612 136.232702,151.021664 137.326598,152.0484 C138.050654,152.727692 138.784259,153.403519 139.447542,154.139996 C141.280832,156.175273 142.736178,158.477993 144.178501,160.91039 C143.873772,160.996457 143.619977,161.077903 143.361551,161.139709 C141.397167,161.608167 139.456803,161.39531 137.523095,160.939272 C136.105949,160.605113 134.689671,160.266045 133.265001,159.966544 C132.678985,159.843509 132.074737,159.788345 131.475409,159.756864 C130.7528,159.718741 130.37283,160.00149 130.253602,160.700133 C130.153183,161.287582 130.107749,161.892071 130.110353,162.488474 C130.122797,165.119287 130.166784,167.7501 130.18762,170.380913 C130.194566,171.235227 130.21135,172.100516 129.600736,172.810422 L128.628384,172.810422 Z" id="Fill-6" fill="#FFFFFF"></path>
                <g id="Group-10" transform="translate(48.907019, 0.099352)">
                    <mask id="mask-4" fill="white">
                        <use xlink:href="#path-3"></use>
                    </mask>
                    <g id="Clip-9"></g>
                    <path d="M41.2471962,30.0328866 C41.6801246,30.8002673 41.7180347,31.5999952 41.702697,32.3688199 C41.6818609,33.4374342 41.7874885,34.4852539 41.9081644,35.5405828 C42.0731171,36.9846563 42.1735356,38.4359501 42.3272021,39.8814676 C42.365691,40.2427748 42.4788428,40.6023491 42.6024126,40.9466162 C42.7031205,41.2282105 42.9326073,41.3203424 43.2199722,41.1785344 C43.510231,41.0355711 43.8045413,40.898673 44.0875654,40.7430018 C46.7823711,39.260516 49.4682057,37.7624342 52.1719825,36.2964109 C53.1463608,35.76788 54.1609644,35.3124192 55.1596515,34.8292322 C55.3616462,34.7316129 55.5760847,34.659698 55.8431922,34.5522589 C55.8877584,34.7838883 55.9360866,34.9548666 55.9520031,35.1287331 C56.0709427,36.4266663 55.9221959,37.7101588 55.7291723,38.9907631 C55.4776918,40.6578015 55.242996,42.3257063 55.3668552,44.0201821 C55.4224182,44.7814977 55.5630621,45.5208633 55.9016491,46.2847781 C56.160075,46.2293257 56.4040313,46.1874476 56.6421998,46.1239083 C60.8973999,44.9874225 64.9893836,43.392299 69.0489556,41.709087 C71.4835991,40.6993908 73.8890142,39.6117147 76.3560694,38.6889518 C77.861769,38.1257631 79.3428703,38.4475027 80.7591481,39.4476679 C80.5018799,39.6671671 80.3236152,39.8343908 80.1303023,39.9822639 C78.4555986,41.2654676 76.5574853,42.109673 74.5575066,42.7257147 C72.3928645,43.3925878 70.1984153,43.9650185 68.0398504,44.6509534 C66.7208079,45.0703124 65.4486466,45.6332122 64.1498614,46.1169768 C63.3916579,46.3991487 62.6215893,46.6486846 61.8599132,46.9204593 C59.551444,47.7432923 57.2444217,48.5695912 54.9371101,49.3947347 C54.7423502,49.4643391 54.5473009,49.5327881 54.2813509,49.6269417 C54.1123468,49.3594993 53.9187444,49.1067865 53.782152,48.826925 C53.3197058,47.8775912 53.0826948,46.855476 53.0934023,45.8128549 C53.1116339,43.9681955 53.2163933,42.1244025 53.2878728,40.2803207 C53.3118922,39.6625461 53.3448828,39.0450603 53.3787415,38.3143591 C53.0436271,38.3963825 52.804301,38.4379718 52.5759718,38.5130636 C51.2931031,38.9353107 50.1190452,39.5842773 48.9716113,40.2808983 C47.6077132,41.1089301 46.26523,41.9727748 44.8914926,42.7837664 C43.6942835,43.490496 42.4403538,44.0866095 41.078192,44.4181688 C40.837419,44.4767982 40.58999,44.5085678 40.2528499,44.5695077 C40.4024649,41.0566546 40.038122,37.6960068 38.5552844,34.4494409 C38.2812314,34.561501 38.0505871,34.6464125 37.8280457,34.7480753 C35.9351415,35.6130753 34.0419478,36.4760536 32.0413903,37.0756329 C30.4598704,37.5495778 28.8534629,37.8759384 27.194097,37.828284 C25.5700367,37.781496 24.0472631,37.365314 22.6390882,36.5332389 C22.2585395,36.3085411 22.0909823,36.0509184 22.0794067,35.5986346 C22.0519146,34.51789 22.2547774,33.487688 22.6205672,32.4805912 C22.9357136,31.6129918 23.2734325,30.7531905 23.5616656,29.8769267 C23.7772616,29.221895 23.919063,28.5452022 23.8828892,27.7573157 C23.2948474,27.6140636 22.7233009,27.4520386 22.1422044,27.3382456 C20.1182063,26.9419918 18.0678735,26.7606162 16.0126212,26.6219851 C13.3120276,26.4400319 10.6068039,26.3037114 7.91344512,26.0429117 C5.46491085,25.805506 3.06962447,25.2813073 0.852892114,24.1430886 C0.708775572,24.0691521 0.564948421,23.9949267 0.424883348,23.9140586 C0.366715828,23.8805561 0.31838759,23.8297247 0.186714845,23.721708 C0.333435903,23.1157748 0.459610225,22.4633424 0.650608052,21.8302606 C1.28090088,19.7421304 2.39679122,17.917688 3.7711074,16.2402523 C5.30111575,14.3721988 7.08289396,12.7577247 8.90460808,11.1845511 C11.1268389,9.26537746 13.3629604,7.36555442 15.4758015,5.31987997 C17.3073549,3.54655776 19.588332,2.50018214 22.0490207,1.89020551 C26.5015851,0.78577813 30.818136,1.12455776 35.0736255,2.94409032 C39.7481526,4.94268798 44.1266331,7.47357112 48.5250815,9.98106027 C49.0815798,10.2984676 49.6421294,10.6083658 50.2541907,10.9517664 C50.6830676,10.1292222 50.8034541,9.31043255 50.84339,8.48875476 C50.8914289,7.49783155 50.8361553,6.5019985 50.8810108,5.51107529 C50.9310754,4.40722554 50.998214,3.29991002 51.1489865,2.20674641 C51.2195979,1.69641085 51.499728,1.21322387 51.6939091,0.721372454 C51.85973,0.300858264 52.1659053,0.168581135 52.6234319,0.191975125 C54.803701,0.303746411 56.8716866,0.820147078 58.8169705,1.81453606 C60.019678,2.42942254 61.1069187,3.20488998 62.0908469,4.13025225 C62.5179875,4.53170467 62.8759637,4.97532404 63.1089232,5.51454107 C63.4475103,6.29809533 63.7855185,7.0819384 64.1232374,7.86578147 C64.1947169,8.03213873 64.26446,8.19907362 64.3382547,8.37294007 C65.9704179,7.53884324 67.6511988,7.73639249 69.3227192,8.01105526 C70.4449761,8.19560785 71.519773,8.56702354 72.5239585,9.11230568 C73.3663747,9.56978815 74.1176328,10.1399083 74.6637129,10.9448349 C74.7024913,11.0020202 74.7386651,11.0635377 74.7875721,11.1111922 C77.0607357,13.3405528 78.3887493,16.1328132 79.4155074,19.0683257 C80.1991772,21.3086613 80.807187,23.6096479 81.4927534,25.8840636 C81.5263227,25.9943908 81.5717571,26.1050068 81.5807282,26.2182222 C81.6284776,26.8120252 82.0090263,26.9942673 82.5394794,27.0985294 C84.197109,27.4254676 85.8269571,27.8586896 87.4029786,28.4799301 C88.1021464,28.7551705 88.7095774,29.1444927 89.2576833,29.6632038 C91.9093698,32.1724259 93.4819185,35.2338616 94.0135292,38.830471 C94.1379671,39.672077 94.2013437,40.5223474 94.1773243,41.4194058 C94.0931116,41.3111003 93.9921142,41.2120369 93.9278695,41.0927564 C93.2492485,39.8323691 92.5931999,38.5595628 91.8980835,37.3078399 C91.1008123,35.870698 90.1976241,34.5025828 89.0753672,33.2898499 C88.108513,32.2449184 87.03661,31.3143574 85.7109115,30.7745628 C83.9710949,30.0663891 82.1626928,29.5777147 80.2663159,29.5109985 C79.4140604,29.4809618 79.3851213,29.4985795 79.1333515,28.6589952 C78.4906149,26.5157013 77.8762385,24.3637431 77.2497078,22.2155394 C76.7195441,20.3971621 76.1332386,18.5990018 75.2983466,16.892107 C74.4573774,15.1719267 73.3953137,13.6183925 71.8774598,12.4117247 C70.4287702,11.2602205 68.7656422,10.6167414 66.9497159,10.329082 C66.5000028,10.2577447 66.1122193,10.4220803 65.7976517,10.6961654 C65.4350452,11.0127063 65.1262654,11.3913424 64.8033054,11.7512055 C64.5414069,12.0429083 64.2986081,12.3522289 64.0358414,12.6436429 C63.9449728,12.7444392 63.8289271,12.8325277 63.7082512,12.8963558 C63.3294389,13.0959267 62.9292116,13.2322472 62.527248,12.980112 C62.2233878,12.7894943 62.0867954,12.2309267 62.2607192,11.7783541 C62.6540011,10.757683 62.5535825,9.74798681 62.0653805,8.82753439 C61.4397179,7.64801519 60.6904856,6.53376811 59.9916071,5.39295008 C59.9563015,5.33518715 59.9062369,5.28060117 59.8503845,5.24161119 C58.2567102,4.12823055 56.6725858,2.9929 54.7128324,2.58827062 C54.3806119,2.51982154 54.036237,2.50798013 53.6886789,2.46927896 C53.2091586,3.46540083 53.0873251,4.47018715 53.0641738,5.48334908 C53.0277106,7.06287663 53.3634038,8.60110367 53.642087,10.1459735 C53.8544997,11.3254927 54.0330537,12.512521 54.1818005,13.7018599 C54.296978,14.6200018 53.3084195,15.5066629 52.3994435,15.2952506 C52.0058722,15.2036963 51.597542,15.0237648 51.2832638,14.7742289 C50.2278561,13.9360886 49.0561134,13.3134042 47.8762677,12.6716579 C45.541464,11.4011621 43.2804549,9.99607863 40.985587,8.65251269 C38.4487886,7.16771636 35.8691604,5.76754274 33.0826178,4.79221553 C30.658103,3.94367796 28.171948,3.47984157 25.5905834,3.60865292 C23.9378734,3.69096511 22.3358068,4.01876978 20.7783063,4.56838414 C20.584704,4.63654441 20.3896547,4.72521052 20.2226763,4.84304691 C16.2698894,7.63097513 12.3787428,10.4977497 8.89332185,13.8687948 C6.57443459,16.1114409 4.48358717,18.5421053 2.82132729,21.3187698 C2.66910781,21.5729267 2.53309421,21.8366145 2.34817359,22.1707731 C3.3318124,22.5719367 4.17307101,23.1342589 5.22616357,23.2171487 C9.26229492,23.5348449 13.3030565,23.8147063 17.3293486,24.2326212 C19.8788802,24.4968866 22.4061287,24.9760302 24.9414802,25.3705511 C25.2499706,25.4184943 25.5150524,25.479723 25.7520634,25.1831104 C25.9340901,24.9555244 26.2017764,24.9939367 26.4541251,25.1062856 C26.8118119,25.2654225 27.1721033,25.4184943 27.6154497,25.6105561 C26.6375988,28.5668633 25.4583319,31.4628082 24.4214452,34.455506 C25.4806149,35.1763875 26.6156051,35.5827497 27.855644,35.6948098 C29.3986749,35.8345962 30.8398403,35.4556713 32.2190762,34.7945745 C33.4978934,34.1814209 34.6647165,33.3900686 35.789578,32.5357548 C36.7098402,31.8362456 37.6277873,31.132693 38.5275029,30.4066129 C38.8730353,30.1276179 39.2286964,30.0031387 39.6711747,30.0265327 C40.1987339,30.0542589 40.7288975,30.0328866 41.2471962,30.0328866" id="Fill-8" fill="#FFFFFF" mask="url(#mask-4)"></path>
                </g>
                <path d="M9.53689771,78.8695736 C8.70750411,78.951597 7.93540987,79.0315987 7.13813863,78.7809075 C7.13813863,78.251799 7.12887813,77.7492614 7.14016437,77.2470127 C7.16678831,76.0715369 7.11527677,74.885375 7.26315539,73.7249175 C7.38151617,72.7966671 7.33058341,71.8958541 7.30395948,70.9754017 C7.244345,68.9259726 7.60463636,66.9602998 8.46759927,65.0619209 C9.52127061,62.7438942 11.2590614,61.1351963 13.3930281,59.8739426 C14.3483066,59.3095987 15.3284727,58.7868441 16.277674,58.2129693 C17.1472929,57.6870377 18.0189376,57.156774 18.8396494,56.559794 C21.2983124,54.7714534 22.429251,52.3266371 22.2168383,49.3099676 C22.1468058,48.3124017 22.1572238,47.3330311 22.2602469,46.3452848 C22.4538492,44.4870511 22.6008597,42.6236187 23.0841421,40.8075519 C23.8194837,38.0453282 25.3651191,35.9340928 28.011886,34.7265586 C29.2620536,34.1561496 30.6030898,33.8829309 31.9612002,33.7154184 C34.6224365,33.3873249 37.27557,33.5438624 39.9145233,33.9409826 C42.8176903,34.3782481 45.7098604,34.8885836 48.6147637,35.3128524 C51.3425599,35.7114167 54.0833788,35.9534434 56.8441655,35.6435452 C60.0688455,35.2813716 63.0006622,34.1905185 65.5284895,32.1315586 C66.0291353,31.7240411 66.5315174,31.7087339 67.0802021,31.872203 C67.6245459,32.0345169 67.7776336,32.3094684 67.5137093,32.8085402 C67.2483381,33.3096337 66.9195903,33.803218 66.5187842,34.1994718 C66.131869,34.5818624 65.6468502,34.8960928 65.1537286,35.1355202 C62.6915929,36.3317907 60.165502,37.3391763 57.4055834,37.6300127 C55.2779834,37.8544217 53.1463318,37.8590427 51.0317544,37.6011312 C47.6131827,37.1840828 44.2082123,36.6564184 40.7945603,36.1969142 C38.7995011,35.9283165 36.797786,35.6992865 34.7792863,35.7532948 C33.0828783,35.7983499 31.4145412,36.0166938 29.8307062,36.6789459 C28.9477753,37.0483399 28.1542662,37.5526104 27.4250018,38.1715402 C26.360623,39.0755302 25.6614552,40.1666721 25.5349914,41.5879292 C25.4018717,43.0808124 25.2453114,44.5716738 25.1014843,46.0636905 C24.9177212,47.9684234 24.7727365,49.8780661 24.5409346,51.7773115 C24.3979756,52.947011 24.0290025,54.0719442 23.5240158,55.144602 C22.4599264,57.4054434 20.7455762,58.9852598 18.4206118,59.8791412 C15.5197599,60.9945436 13.1453097,62.7886604 11.1725336,65.1760027 C10.2612425,66.278986 9.83178678,67.5093366 9.69056414,68.8968023 C9.47236359,71.0412514 9.54992029,73.1854117 9.63181784,75.3307272 C9.67551583,76.4819426 9.731947,77.6334467 9.53689771,78.8695736" id="Fill-11" fill="#FFFFFF"></path>
                <path d="M19.6931203,75.0860723 C19.3279093,75.1701174 18.9959783,75.2746683 18.6562336,75.3179905 C17.9888988,75.402902 17.5843307,75.0814513 17.543816,74.3966716 C17.5099573,73.822508 17.545263,73.2434346 17.5640733,72.6666716 C17.5950381,71.7210923 17.6422088,70.7760907 17.673463,69.8305114 C17.7165822,68.5348886 17.8421778,67.2508185 18.2270673,66.006316 C18.6542079,64.6240489 19.3759482,63.442508 20.5942828,62.604079 C21.0787228,62.2707868 21.5993365,62.0492659 22.1882465,61.9718636 C23.8840757,61.7488987 25.583667,61.5447067 27.2716826,61.2720656 C28.8199226,61.0219521 30.2498017,60.4674279 31.5028632,59.4779487 C32.0660174,59.0328853 32.2781408,58.550276 32.0628341,57.8666516 C31.7233789,56.7896616 31.4183612,55.7014078 31.0627001,54.6299053 C30.6121188,53.2730539 30.1045276,51.9367083 29.9777745,50.4923461 C29.8599925,49.1551341 30.1210229,47.9126533 30.8627311,46.7975397 C32.9052503,43.7259955 35.6886096,41.8307935 39.4298518,41.4330957 C41.4752649,41.2156182 43.496948,41.3796649 45.5128432,41.6820539 C48.1416679,42.076286 50.7603638,42.5401224 53.3920824,42.9124045 C55.62531,43.2283678 57.8628785,43.2381875 60.0851093,42.741715 C62.0888501,42.2937634 63.8830721,41.4270306 65.4318909,40.0866416 C65.8121502,39.7573928 66.1874898,39.6086533 66.6785858,39.6435998 C67.1086203,39.6742142 67.5424168,39.6499538 68.1156997,39.6499538 C67.8928689,40.0103945 67.7568553,40.2680172 67.5861148,40.4996466 C66.9318026,41.3863077 66.0908334,42.0710873 65.1676772,42.6579588 C63.3937125,43.7854913 61.4458241,44.4832676 59.4221153,45.0233511 C56.7993679,45.7231491 54.1589676,45.6997551 51.5046766,45.3318052 C49.0315441,44.9889821 46.5676721,44.5814646 44.0930927,44.2522159 C42.1402846,43.9925715 40.179663,43.8692476 38.2225141,44.2724329 C35.7030791,44.7911441 34.0402404,46.2950022 33.0386594,48.6257367 C32.5987856,49.6501624 32.4729007,50.6546599 32.8372435,51.7157651 C33.1740942,52.6971574 33.4854786,53.687503 33.8269595,54.6671624 C34.3090843,56.0494295 34.6314655,57.4472927 34.5871888,58.932089 C34.5527513,60.0893694 34.116929,60.9561023 33.1648337,61.614311 C32.0952459,62.3536766 30.9075867,62.7845881 29.6487374,63.0159287 C28.1945494,63.2830823 26.7218404,63.4526165 25.2696781,63.7301674 C24.388773,63.8985464 23.5032376,64.1177568 22.6703713,64.4429621 C20.9982722,65.0962609 20.0519647,66.3765765 19.8360793,68.1510539 C19.7501303,68.8560506 19.7889086,69.575488 19.7637317,70.2882826 C19.746947,70.7717584 19.7009339,71.2546566 19.6963036,71.7381324 C19.6858856,72.8206098 19.6931203,73.9030873 19.6931203,75.0860723" id="Fill-13" fill="#FFFFFF"></path>
                <path d="M73.7875538,44.2277533 C73.6715082,44.8654561 73.5838228,45.4549269 73.4544652,46.034578 C73.0846239,47.6923743 72.4797975,49.2580387 71.5305962,50.6769853 C70.3559595,52.4329786 68.7990378,53.6592858 66.7061647,54.1650003 C65.9222054,54.3544628 65.1695004,54.6799569 64.3814896,54.8416932 C62.4744053,55.2333259 60.5554559,55.110002 58.6570532,54.7709336 C56.5641801,54.3966297 54.486934,53.9368367 52.3960866,53.5495362 C50.9395835,53.2794945 49.4752668,53.0787683 47.9837474,53.3118417 C46.5237716,53.5402942 45.3233792,54.1866614 44.3993548,55.3497182 C44.0688707,55.7659002 43.8674548,56.2115412 43.8744002,56.7423826 C43.8932106,58.2188033 43.9308314,59.695224 43.9328571,61.1716447 C43.9345935,62.4843075 43.9889989,63.8059235 43.8587731,65.1076114 C43.6521482,67.1697482 42.4832994,68.5274661 40.4893978,69.1579486 C39.2458862,69.5510254 37.9554933,69.6665513 36.6705988,69.8279987 C35.0893683,70.0267032 33.4977198,70.1864177 31.937036,70.4948718 C29.4531961,70.9852791 27.5417709,72.4091356 26.1518276,74.4825362 C25.4868079,75.4743259 24.9858727,76.5767316 24.4285063,77.6384144 C23.9460921,78.5574227 23.5120061,79.5024244 23.0125179,80.4121907 C22.6351525,81.0995696 22.1434778,81.7107015 21.5007411,82.2291239 C21.1763342,81.9587933 20.9980696,81.6275229 21.000646,81.2613058 C21.0044362,80.7376848 21.0215102,80.195002 21.159839,79.6956414 C21.466593,78.5877482 21.8300677,77.4942958 22.2100376,76.4086414 C23.1520042,73.7168885 24.8220776,71.6021873 27.2824769,70.1237449 C29.1099788,69.0256715 31.102144,68.3472457 33.1814158,67.9740972 C35.2042564,67.6107683 37.2490907,67.3569002 39.2924781,67.1261372 C40.0674663,67.0389152 40.6404597,66.7131322 40.9625515,66.0679202 C41.2455756,65.5012658 41.4825865,64.8638518 41.5358344,64.2403008 C41.640015,63.0258351 41.6405938,61.7983726 41.6128123,60.5775529 C41.5720082,58.774194 41.5465419,56.9757449 41.9731037,55.2073326 C42.3195043,53.7722124 43.0186721,52.5563025 44.2274568,51.6575112 C45.0148888,51.0720838 45.8769835,50.7829803 46.8664101,50.7633409 C48.9844603,50.7217516 51.0634427,51.0068117 53.1383736,51.378805 C55.2766811,51.7620621 57.4089114,52.2016381 59.5619778,52.4734127 C62.21569,52.8081489 64.8340966,52.6296614 67.2655568,51.3395262 C67.6325042,51.1445763 67.9858501,50.9236331 68.3441158,50.7125095 C69.2779794,50.1620287 69.9134812,49.3585462 70.3079207,48.3635796 C70.5970219,47.6346114 70.8380843,46.8865813 71.1381824,46.1625229 C71.3309166,45.696376 71.5447763,45.2258968 71.8330094,44.81578 C72.2728832,44.1893409 72.9049123,43.9825496 73.7875538,44.2277533" id="Fill-15" fill="#FFFFFF"></path>
                <path d="M135.335909,41.2823633 C135.085586,41.0960778 134.863334,40.9357856 134.64658,40.7688508 C127.430335,35.2129225 119.823702,30.2713032 111.646969,26.2278975 C103.232068,22.0663666 94.4398016,19.0055085 85.2172111,17.1989726 C84.2193921,17.0037339 83.2175217,16.8229359 82.2115998,16.6782397 C81.9340742,16.6383833 81.6189277,16.7102982 81.3474793,16.8058958 C79.9737419,17.2905269 78.5829305,17.3159426 77.1793858,16.9916037 C76.8749469,16.9211329 76.5896077,16.7689275 76.2625963,16.6412715 C76.6662962,15.9186571 77.2473926,15.5226922 77.9222516,15.251784 C79.0173058,14.8124968 80.1673443,14.721809 81.3306947,14.7899693 C84.9292674,15.0013816 88.4086111,15.8392331 91.8711702,16.782213 C99.650859,18.9009576 107.222186,21.5782698 114.485892,25.0917005 C121.551364,28.5089559 128.165098,32.6366955 134.246064,37.599976 C134.782015,38.0369526 135.267902,38.5357356 135.765365,39.0174785 C135.912954,39.1604417 136.040575,39.3319977 136.145624,39.5087523 C136.41823,39.9682564 136.404339,40.0921579 136.059675,40.4895669 C135.834818,40.7489225 135.59665,40.997592 135.335909,41.2823633" id="Fill-17" fill="#FFFFFF"></path>
            </g>
        </g>
    </g>
</svg>