<?xml version="1.0" encoding="UTF-8"?>
<svg width="44px" height="45px" viewBox="0 0 44 45" version="1.1" xmlns="http://www.w3.org/2000/svg" xmlns:xlink="http://www.w3.org/1999/xlink">
    <title>CC05B9F5-F772-4EFC-B398-763C7AFA32CB</title>
    <defs>
        <polygon id="path-1" points="0.0604295902 0.00749749583 10.762576 0.00749749583 10.762576 25.8297596 0.0604295902 25.8297596"></polygon>
        <polygon id="path-3" points="0.0489015071 0.0492821369 24.6668049 0.0492821369 24.6668049 12.9087421 0.0489015071 12.9087421"></polygon>
    </defs>
    <g id="Public---Mobile" stroke="none" stroke-width="1" fill="none" fill-rule="evenodd">
        <g id="M---Forgot-Password" transform="translate(-22.000000, -28.000000)">
            <g id="Group-25" transform="translate(22.000000, 28.000000)">
                <path d="M1.01602507,22.4977387 C1.00473194,22.5067538 0.993438816,22.5156937 0.982221484,22.5247087 C1.00685414,22.5765451 1.02481703,22.632889 1.05733214,22.6792412 C1.1817081,22.8564616 1.29433619,23.0456269 1.44175316,23.2022629 C1.70164663,23.4785735 1.97973037,23.7387321 2.25758674,23.9977638 C2.85331805,24.5529391 3.45458224,25.1023297 4.05122307,25.6566035 C4.13929429,25.7384149 4.21864934,25.8305935 4.29376,25.9245 C4.34984666,25.9945918 4.39789929,26.0723464 4.43988849,26.1517538 C4.52583752,26.3142496 4.54001077,26.4814783 4.46338426,26.6544165 C4.43450721,26.7196252 4.41752962,26.790919 4.40184051,26.8609357 C4.25184659,27.5311277 4.16779238,28.2095835 4.1560445,28.8957771 C4.14005222,29.8254516 4.2538172,30.7406269 4.48612209,31.641303 C4.84356088,33.0274382 5.44505245,34.3073464 6.22200433,35.5074716 C7.19563849,37.011328 8.35761773,38.3610275 9.66481595,39.5898506 C10.5212745,40.3949674 11.4356387,41.1227805 12.4802907,41.6785568 C12.5049991,41.6917037 12.5242505,41.7149174 12.5481252,41.735126 C12.4912806,41.8996503 12.4048768,42.04051 12.2792124,42.1441828 C12.0704791,42.3164449 11.8529538,42.479692 11.6285313,42.6314449 C11.4085806,42.7801177 11.1746841,42.9085067 10.9485184,43.0484649 C10.9012995,43.0776135 10.8613567,43.1183314 10.7924611,43.1746753 C10.868936,43.1857938 10.9035733,43.1927053 10.938438,43.1956352 C11.4697454,43.2401093 12.0012044,43.2827053 12.5322845,43.3295083 C12.6393039,43.338899 12.7313164,43.3181644 12.8262847,43.2662529 C13.2582278,43.0304349 13.7213976,42.9097087 14.2162487,42.896111 C14.7747658,42.8808606 15.3133493,42.9876886 15.8453389,43.1371127 C16.4278823,43.3007354 17.0051959,43.4832145 17.5900889,43.6380476 C18.2138635,43.8031728 18.8482492,43.8936987 19.4968081,43.8067037 C19.7422251,43.7737237 19.9845347,43.7297003 20.2286632,43.6338406 C20.2063043,43.5668289 20.1891752,43.510485 20.1687869,43.4553431 C20.1126245,43.3031394 20.0526724,43.1523631 19.999769,42.9991077 C19.9874906,42.9635735 19.9823367,42.9112112 20.000148,42.8825134 C20.0858696,42.7444332 20.3623617,42.6758439 20.5092481,42.7487905 C20.7285167,42.8578723 20.8525895,43.1196085 20.7939258,43.3521962 C20.7846791,43.388707 20.76899,43.4236402 20.7526946,43.4691661 C20.7979429,43.4691661 20.8219692,43.4723214 20.8450102,43.4687154 C21.5219156,43.3645167 22.1913175,43.2253097 22.8504874,43.0398255 C23.5566488,42.8411945 24.2462116,42.5971127 24.9085647,42.2815117 C24.9635903,42.2553681 25.0312733,42.2401928 25.0695486,42.1626636 C25.0220265,42.1489157 24.9893599,42.137722 24.9557836,42.1301344 C24.2772108,41.975677 23.5954547,41.8338406 22.9204441,41.6653347 C20.9283822,41.1680058 19.0372006,40.4234399 17.283886,39.3545584 C16.5854555,38.9288239 15.9394735,38.4310442 15.3259309,37.8916452 C15.2513508,37.8261361 15.2339185,37.761303 15.2544583,37.6704015 C15.3990709,37.030485 15.4158212,36.3853848 15.323354,35.7373548 C15.2533214,35.2469374 15.1202293,34.7746252 14.8928509,34.3312362 C14.867233,34.281278 14.835021,34.2345501 14.8058408,34.1863948 C14.7459645,34.348515 14.7191338,34.5005684 14.6910147,34.6523965 C14.5743696,35.2809691 14.38989,35.8878306 14.1130947,36.4668957 C14.0587513,36.5805601 13.9812153,36.6454683 13.8647217,36.6823548 C13.5826968,36.7717538 13.3033246,36.7613114 13.0259987,36.6675551 C12.5848089,36.5185067 12.2101652,36.2488823 11.8204386,36.0069791 C11.7903489,35.988273 11.7670047,35.958298 11.7419173,35.9322295 C11.4279078,35.6064866 11.1054853,35.2882563 10.8018594,34.9531978 C9.56711905,33.5905017 8.52762095,32.0984399 7.77272478,30.4204432 C7.14500891,29.0253681 6.75808672,27.5695167 6.67607892,26.0415451 C6.60392419,24.6971043 6.78226462,23.3819624 7.1882108,22.097096 C7.20738637,22.0363197 7.22330286,21.9745668 7.2407352,21.9132646 C7.15986429,21.9277638 7.10461135,21.9598422 7.0536786,21.9976302 C6.79378512,22.1907771 6.57413762,22.4234399 6.40284592,22.6953932 C6.24580326,22.9446586 6.10945204,23.2066202 5.95945811,23.460318 C5.78816641,23.750076 5.61316086,24.0377304 5.43656366,24.3244082 C5.40306325,24.3787988 5.35455586,24.4241745 5.30134933,24.487505 C3.86613708,23.8211444 2.44108108,23.1595167 1.01602507,22.4977387 L1.01602507,22.4977387 Z M2.27378368e-05,21.8454265 C0.0396623662,21.8255935 0.0861991383,21.8131227 0.117577353,21.7843497 C0.183365493,21.7240993 0.241119598,21.6552846 0.30804463,21.5836903 C0.378380338,21.614116 0.439469325,21.6383063 0.4985877,21.6664032 C1.3235922,22.0577304 2.14662609,22.4532646 2.97375279,22.8400843 C3.57676022,23.1221043 4.19371352,23.370919 4.8339352,23.5596336 C4.89722218,23.5782646 4.96119129,23.5948673 5.03759042,23.6160526 C5.07723005,23.550919 5.11489907,23.4908189 5.15082485,23.4296669 C5.62399923,22.6236486 6.19714429,21.8992162 6.92399714,21.3006937 C7.33668887,20.9609023 7.78492742,20.6779057 8.28318921,20.4766452 C8.42567965,20.4190242 8.42636179,20.4208272 8.55210202,20.5540993 C8.51814686,20.6425217 8.48585913,20.7388322 8.44485523,20.8313114 C8.25241734,21.2654599 8.05641719,21.6979558 7.86405509,22.1320292 C7.63970844,22.6382229 7.42741284,23.150126 7.32956435,23.6972629 C7.28014745,23.9739491 7.2439185,24.2562696 7.23914355,24.536712 C7.23095793,25.0226219 7.23808245,25.5097337 7.26294249,25.9951177 C7.34532925,27.5984399 7.75415555,29.1203264 8.45478408,30.566111 C9.14692383,31.9941661 10.0850112,33.2471043 11.215309,34.3627137 C11.6884076,34.8295417 12.1880337,35.2666953 12.7163852,35.6710192 C12.9392918,35.8417037 13.2039602,35.9326803 13.4659001,36.0268122 C13.5599589,36.0606185 13.6112707,36.0217788 13.6603844,35.9479307 C13.8568393,35.6526886 13.9886429,35.3292746 14.0460939,34.9835484 C14.1109725,34.5933481 14.1471257,34.19849 14.193814,33.8054349 C14.2320136,33.4836736 14.2667267,33.1615367 14.3047747,32.8397755 C14.3094738,32.7996586 14.3250113,32.7606686 14.3391846,32.7077053 C14.4847067,32.7450426 14.6011245,32.8164115 14.711403,32.8983731 C14.8929267,33.0335234 15.0481503,33.1977471 15.1578225,33.392096 C15.3705729,33.7688489 15.581201,34.1482312 15.7624974,34.5402346 C15.8382144,34.7039324 15.8452631,34.9015868 15.8683799,35.0857187 C15.915523,35.4604432 15.9655462,35.8356185 15.9893452,36.2122212 C16.0107188,36.5499841 15.9507667,36.8834649 15.8369259,37.2031978 C15.7986505,37.3106269 15.8147944,37.3759858 15.9021077,37.4508856 C16.7671308,38.1929725 17.6984726,38.8417538 18.7098515,39.3706352 C20.1931164,40.146303 21.7499761,40.7462529 23.3606486,41.2054933 C24.2972959,41.4724883 25.2418256,41.7127387 26.1827931,41.9650092 C26.2523709,41.9836402 26.3221002,42.0017454 26.3985752,42.0219541 C26.3947097,42.1631144 26.3321049,42.2804599 26.2816269,42.3990075 C26.2660136,42.4356686 26.2111396,42.4625634 26.1683925,42.4801427 C24.4375884,43.1947337 22.6765429,43.8151928 20.8229545,44.1418372 C19.8525036,44.3129725 18.8741703,44.3830643 17.8901525,44.3231144 C16.8034355,44.2568539 15.7585561,44.0132229 14.7760542,43.5373047 C14.6749466,43.488323 14.5913472,43.4843414 14.4855405,43.5236319 C13.5923225,43.8550843 12.6676504,43.9639407 11.717512,43.9122546 C10.6837742,43.8560609 9.67876182,43.6386486 8.67488634,43.4101928 C8.56278881,43.3847254 8.45114603,43.3573798 8.33957905,43.3296586 C8.32252567,43.3253765 8.30721552,43.3144833 8.28212811,43.3023881 L8.28212811,42.9126386 C8.4892698,42.8853681 8.6920913,42.8636569 8.89301799,42.8310526 C9.31700285,42.762313 9.74280673,42.7006352 10.162623,42.6119875 C10.532037,42.5340826 10.87697,42.3839825 11.1892363,42.1684482 C11.2478241,42.1279558 11.3023949,42.0817538 11.3694716,42.0298422 C11.3370322,41.9931811 11.3178567,41.9640326 11.2918597,41.9433731 C10.3270175,41.1741661 9.41962628,40.3435818 8.5607424,39.4593581 C6.90285095,37.7525885 5.54100612,35.8460609 4.56881203,33.6760693 C4.04288587,32.5019374 3.67324444,31.2801761 3.47436416,30.0096586 C3.40364949,29.558081 3.34528904,29.1045501 3.43343606,28.6481644 C3.53249723,28.1355851 3.63534804,27.6236068 3.73653142,27.1114783 C3.76563585,26.9642329 3.79246649,26.8165367 3.82490581,26.6701177 C3.8470373,26.5699758 3.82657325,26.4866619 3.76844018,26.3997421 C3.48148868,25.9708523 3.13261448,25.5967287 2.74682918,25.2558856 C2.4618483,25.0041411 2.16193624,24.7687738 1.87922914,24.5147003 C1.55188008,24.2203598 1.22112035,23.9274466 0.919010298,23.6086152 C0.506091186,23.1728139 0.227022139,22.6561027 0.0796809585,22.0725301 C0.065886671,22.0177638 0.0271565561,21.9690826 2.27378368e-05,21.9175467 L2.27378368e-05,21.8454265 Z" id="Fill-1" fill="#FFFFFF"></path>
                <g id="Group-5" transform="translate(32.894070, 13.548381)">
                    <mask id="mask-2" fill="white">
                        <use xlink:href="#path-1"></use>
                    </mask>
                    <g id="Clip-4"></g>
                    <path d="M9.65314386,24.4535409 C9.66549809,24.4048598 9.67671542,24.3722554 9.68186933,24.3387496 C9.72795134,24.0422304 9.7788841,23.7463122 9.81746263,23.4488164 C9.95578447,22.3823389 10.0299856,21.3105275 10.0837985,20.2369883 C10.1093407,19.7273389 10.1498898,19.2184407 10.1753562,18.7087913 C10.1905905,18.4039332 10.2345503,18.0999015 10.195896,17.792414 C10.1720971,17.6023472 10.1641388,17.4092755 10.1624714,17.2174808 C10.1573933,16.6534407 10.1792216,16.0883489 10.1530731,15.5254357 C10.1212401,14.8423222 10.0688673,14.1590584 9.99345348,13.4793255 C9.88105278,12.4652104 9.70885156,11.4598848 9.50049719,10.4598932 C9.26993552,9.35277295 8.98351458,8.26473456 8.56491101,7.21065275 C8.36117999,6.6976227 8.19549695,6.16956761 8.02299257,5.64489316 C7.94848826,5.41816528 7.90043563,5.18294825 7.83616334,4.93563606 C7.76688874,4.93563606 7.70170694,4.93503506 7.63652514,4.93586144 C7.54557379,4.93691319 7.45469824,4.94224708 7.36397427,4.94014357 C7.26089608,4.93773957 7.17964621,4.8949182 7.12424168,4.79620367 C7.16160753,4.75120367 7.19579007,4.71056093 7.22944207,4.6693172 C7.41384593,4.44364107 7.47675394,4.18994324 7.39232078,3.91010184 C7.35442438,3.78456761 7.30872133,3.65775626 7.24353953,3.54446745 C7.08755797,3.27356594 6.91816109,3.01017696 6.75285702,2.74453422 C6.74482298,2.73161269 6.72443472,2.7262788 6.69646718,2.7093005 C6.78006663,3.26860768 6.60862334,3.76435893 6.37351411,4.24561102 C6.16963151,4.6630818 5.91239079,5.04862437 5.64681286,5.42920868 C5.37486833,5.81895826 5.07700267,6.19007679 4.84090814,6.60536895 C4.66719107,6.9109783 4.40237106,7.14777295 4.14603985,7.38697162 C3.88137144,7.63405843 3.61139752,7.87588648 3.35279253,8.12898331 C3.09676449,8.37952588 2.87954236,8.66034391 2.74645022,8.99652922 C2.72151439,9.05940902 2.70620425,9.12604508 2.68346641,9.20056928 C2.782376,9.20056928 2.85445494,9.20522705 2.92570017,9.1997429 C3.48141289,9.15684641 4.03667086,9.10876628 4.59245938,9.06842404 C5.25185664,9.02056928 5.90769163,8.94957596 6.5502629,8.78940902 C6.64030473,8.76694658 6.70177268,8.7830985 6.75808672,8.84988481 C6.78127931,8.87745576 6.80583618,8.90615359 6.83547116,8.92576127 C6.96265146,9.00982638 6.95317736,9.10989316 6.89686332,9.23572788 C6.65622121,9.77324875 6.43157139,10.3179065 6.1854722,10.8528731 C5.42610426,12.5035993 4.54978804,14.0951269 3.68908513,15.6948431 C2.93676591,17.0931486 2.20066635,18.5000184 1.4581244,19.9034324 C1.42598826,19.9641336 1.4014314,20.0287412 1.37331227,20.0915459 C1.45797282,20.0805025 1.51413527,20.0494758 1.56825132,20.0151436 C2.18065705,19.6265209 2.78093594,19.217389 3.40834864,18.854384 C4.00430734,18.5094841 4.54872694,18.1047095 5.05509856,17.6452437 C5.52001152,17.2234157 5.97620832,16.792197 6.44460775,16.3742003 C6.91429566,15.9550768 7.41543758,15.5768965 7.98911319,15.3039666 C8.21770424,15.1952604 8.45205554,15.1010534 8.71323749,15.045611 C8.72976032,15.097222 8.74757163,15.1407947 8.75772786,15.18602 C8.84830024,15.5871135 8.8697496,15.9943673 8.85739538,16.403424 C8.83912931,17.0094591 8.82116642,17.6157195 8.79024297,18.2212287 C8.7719769,18.5802521 8.74484309,18.940177 8.69398612,19.2958948 C8.58423817,20.063374 8.38823802,20.8131987 8.18928195,21.5618965 C8.06748293,22.0200851 7.94727557,22.4788748 7.8219143,22.9361619 C7.78174412,23.0826561 7.81585088,23.1953439 7.94166691,23.2811369 C8.06634604,23.3661786 8.19155573,23.4506945 8.31570432,23.536788 C8.72756233,23.8221886 9.13896559,24.1082654 9.55089939,24.393591 C9.57879114,24.4128982 9.60941142,24.4280735 9.65314386,24.4535409 L9.65314386,24.4535409 Z M10.7625987,20.2641836 C10.749335,20.3281152 10.725915,20.3917462 10.7243991,20.455828 C10.7021161,21.388207 10.5705398,22.3094674 10.4372203,23.2302771 C10.3183772,24.0498932 10.1905905,24.8682321 10.066063,25.6869466 C10.0600753,25.7263122 10.0479485,25.7647763 10.0325626,25.8297596 C9.04983327,25.0073639 8.09567785,24.1838414 7.00699024,23.5211619 C7.01426635,23.4852521 7.01654013,23.4495676 7.02874277,23.4175643 C7.36314055,22.5390501 7.57611829,21.6271803 7.78644328,20.7144841 C7.89285635,20.2525392 8.00298327,19.7913456 8.10697098,19.3287997 C8.13577224,19.2005609 8.15911642,19.0694674 8.16707466,18.9385993 C8.21232295,18.189601 8.25734387,17.4404524 8.2906169,16.6909282 C8.29993942,16.4822304 8.27136554,16.2715793 8.25590381,16.0621302 C8.25165941,16.0035326 8.23255963,15.9458364 8.21482412,15.862222 C8.03186032,15.9412538 7.86754156,16.0202855 7.72383843,16.1384574 C7.13151779,16.6257195 6.53722654,17.1105025 5.94755864,17.6007696 C5.03281548,18.3614124 4.11973975,19.1240835 3.1418612,19.8056945 C2.23712268,20.4363706 1.29092551,20.9930484 0.254307543,21.3874558 C0.198524051,21.4086411 0.141906838,21.4275726 0.0604295902,21.4564958 C0.0765734542,21.3856528 0.0846074898,21.3346427 0.099917633,21.2859616 C0.237784715,20.8485826 0.4355281,20.4368965 0.658434691,20.0370801 C0.91036992,19.585202 1.19823093,19.1503022 1.4171205,18.6834741 C2.01027487,17.4183656 2.75228627,16.2340167 3.41228987,15.005419 C4.28943981,13.3724224 5.1229331,11.7197429 5.80355234,9.99494324 C5.84099398,9.89990985 5.87661659,9.80420033 5.91186024,9.70841569 C5.91777208,9.6923389 5.91708994,9.67393322 5.9227744,9.63201336 C5.85721364,9.62840735 5.79415404,9.61676294 5.73283767,9.62292321 C5.50394345,9.64598664 5.27603454,9.67911686 5.04698873,9.70022705 C4.78777739,9.72426711 4.52742916,9.73606177 4.26814203,9.75905008 C3.78549356,9.8020217 3.30322404,9.84792321 2.82095453,9.89502671 C2.43638192,9.93258932 2.06295085,9.88052755 1.67155689,9.77662938 C1.70642158,9.67258097 1.73370698,9.58280634 1.76637367,9.49498497 C1.9699531,8.94882471 2.27009255,8.45495159 2.63245787,8.00164608 C2.99732435,7.54533556 3.38553501,7.10735559 3.76472633,6.66231386 C4.17514428,6.18061102 4.59564267,5.7070217 4.99522225,5.21660434 C5.30801909,4.83278965 5.56624512,4.4115626 5.76474644,3.95645409 C6.16546291,3.03782304 6.1487127,2.124601 5.72639528,1.21889149 C5.63771772,1.02859933 5.53153203,0.845894825 5.42534633,0.664317195 C5.38267499,0.591370618 5.36531844,0.523532554 5.38820786,0.442998331 C5.42580109,0.310402337 5.46089315,0.177130217 5.50712675,0.00749749583 C5.57458233,0.0900601002 5.62657618,0.15121202 5.67591729,0.214467446 C6.78340151,1.63305676 7.67737745,3.17507679 8.3852063,4.82415025 C9.11327183,6.52055259 9.62494895,8.28201336 9.98958805,10.0874224 C10.2073407,11.1649432 10.3740091,12.2505776 10.4895173,13.3428982 C10.5715251,14.1187913 10.6260959,14.8976144 10.6861238,15.6755359 C10.7081795,15.9627396 10.7084069,16.2513706 10.7235654,16.5391002 C10.7281888,16.6277479 10.7491076,16.7156444 10.7625987,16.8038414 L10.7625987,20.2641836 Z" id="Fill-3" fill="#FFFFFF" mask="url(#mask-2)"></path>
                </g>
                <path d="M35.9191195,36.8726995 C35.9142688,36.8636845 35.9092665,36.8547446 35.90434,36.8457295 C35.8774335,36.8515893 35.8492386,36.8542938 35.823848,36.863985 C35.3435491,37.0465392 34.8649934,37.2334508 34.3831787,37.4121736 C34.0435512,37.5381586 33.7004372,37.655429 33.3574749,37.7726244 C33.1864106,37.8309967 33.0124661,37.8195776 32.8377637,37.7799866 C32.5370937,37.711773 32.2702273,37.5703122 32.0193532,37.4011302 C31.7390715,37.2121152 31.4709166,37.0054457 31.1922265,36.8138013 C30.9784908,36.6668564 30.7580096,36.5294524 30.5377558,36.3922738 C30.4797743,36.3562137 30.411106,36.3370568 30.3473643,36.3101619 C30.3370565,36.3208297 30.3265971,36.3316477 30.3162135,36.3423155 C30.6877497,37.1197863 31.059286,37.897182 31.4354456,38.6843439 C31.2092041,38.9590768 30.9560562,39.1958715 30.6688015,39.39901 C30.3183357,39.6468481 29.9776471,39.9070067 29.6848595,40.2226077 C29.6371859,40.2739933 29.5951209,40.3305626 29.5477504,40.3881836 C29.579356,40.4084674 29.5931503,40.4218397 29.6095215,40.4269482 C29.6497675,40.439419 29.6909987,40.4494107 29.7323058,40.457975 C30.5084998,40.6178414 31.2848453,40.6140851 32.0580075,40.4437763 C32.2339226,40.4050868 32.2682567,40.3568564 32.4030921,40.5942521 C32.5364874,40.8290184 32.6616213,41.0707713 32.7633352,41.3202621 C33.0060237,41.9151786 33.2317346,42.5167813 33.4672986,43.1145526 C33.4914007,43.175404 33.4885964,43.25699 33.5844743,43.3020651 C33.5844743,42.8478581 33.5824279,42.4102538 33.5850806,41.9727997 C33.5878092,41.5308381 33.5731812,41.0884257 33.5956916,40.6209215 C33.6976329,40.6351202 33.7833546,40.6339933 33.8595263,40.660212 C34.0823571,40.7369149 34.300034,40.8282671 34.5221827,40.9069232 C34.9322216,41.0522154 35.3399111,41.2059967 35.7564682,41.3306294 C36.082074,41.4280668 36.4207162,41.4699115 36.7611774,41.3890768 C36.7980127,41.3803623 36.8309068,41.3556461 36.8920716,41.3252204 C36.7557203,41.1414641 36.6397574,40.9663472 36.5048462,40.8068564 C36.0548644,40.2748197 35.5055941,39.8474324 34.980729,39.3935259 C34.6986283,39.1495943 34.4411602,38.8777162 34.1723989,38.6186845 C34.1107036,38.5591853 34.1036549,38.4953289 34.1549666,38.4265893 C34.2412188,38.3110467 34.3167842,38.1850618 34.417437,38.0832671 C34.5737976,37.9250534 34.7402385,37.7745776 34.9153199,37.6368731 C35.1904477,37.4204374 35.4766412,37.217975 35.7570746,37.0082254 C35.8133886,36.9660801 35.8652309,36.9180751 35.9191195,36.8726995 L35.9191195,36.8726995 Z M33.6883862,44.9506878 C33.6063784,44.7507796 33.5222484,44.5516978 33.4428176,44.3507379 C33.1159991,43.5230835 32.7727335,42.7027162 32.3338933,41.925621 C32.2008011,41.6900284 32.0507314,41.4639766 31.9131675,41.2308631 C31.8606431,41.1420651 31.7947034,41.1137429 31.6903367,41.1187012 C31.3152382,41.1364307 30.9387754,41.1650534 30.5644348,41.1499533 C29.9595326,41.1254624 29.355843,41.0706962 28.7519261,41.0263723 C28.5890474,41.0145025 28.4266992,40.9941436 28.2566917,40.977015 C28.2560897,40.8946778 28.3196798,40.8601202 28.3612901,40.816172 C28.9508064,40.1941352 29.5716251,39.604177 30.2168491,39.0391603 C30.4022383,38.8768147 30.581943,38.7080835 30.7743051,38.5331169 C30.2175312,37.6266561 29.8934413,36.6376327 29.5553296,35.6090935 C29.7456453,35.6474825 29.9042039,35.6601786 30.047907,35.7126912 C30.348198,35.822374 30.6487922,35.937015 30.9342278,36.0791519 C31.2640023,36.2433756 31.5764201,36.4414057 31.8983879,36.6211052 C32.2793983,36.8337846 32.6713986,37.0207713 33.102129,37.1165559 C33.2174098,37.1421736 33.3265514,37.1433756 33.441908,37.1118982 C33.9460817,36.9742688 34.4274417,36.7875826 34.8890198,36.5394441 C35.2303905,36.3559883 35.6124619,36.2684674 35.9936997,36.1941686 C36.2262319,36.148793 36.4599011,36.115813 36.6969051,36.1622404 C36.8237823,36.1870317 36.9418674,36.2275993 37.0382001,36.3597446 C36.9783996,36.4399783 36.9250414,36.5342604 36.8503855,36.6070568 C36.6950103,36.7584341 36.5291757,36.8993689 36.3661454,37.0430083 C36.0581993,37.3142104 35.740097,37.5749699 35.4445051,37.8587179 C35.2898878,38.0071653 35.1596,38.1862638 35.0447739,38.3679165 C34.9225202,38.5614391 34.9359355,38.6033589 35.0996479,38.7565392 C35.3857657,39.0241352 35.6799933,39.2830918 35.96649,39.5501619 C36.1561236,39.7268564 36.3482583,39.9026494 36.5219754,40.0942187 C37.0021227,40.623626 37.3832846,41.2225993 37.7610359,41.8553038 C37.6812261,41.8776912 37.6147558,41.8988765 37.5470729,41.9149533 C37.0325914,42.0368063 36.5244008,41.9814391 36.0179533,41.8628164 C35.6467961,41.7758965 35.2758662,41.6876995 34.9027383,41.6097947 C34.7492579,41.5777913 34.5910025,41.5634424 34.4340356,41.5552538 C34.2447811,41.5453372 34.1452651,41.6188848 34.1140385,41.8006127 C34.0877384,41.9534174 34.0758389,42.1106544 34.0765211,42.265788 C34.0797802,42.9501035 34.0913007,43.634419 34.0967577,44.3187346 C34.0985768,44.5409549 34.1029727,44.7660301 33.94305,44.9506878 L33.6883862,44.9506878 Z" id="Fill-6" fill="#FFFFFF"></path>
                <g id="Group-10" transform="translate(12.808981, 0.025843)">
                    <mask id="mask-4" fill="white">
                        <use xlink:href="#path-3"></use>
                    </mask>
                    <g id="Clip-9"></g>
                    <path d="M10.8028371,7.81202254 C10.9162231,8.01163022 10.926152,8.21965192 10.9221349,8.41963523 C10.9166779,8.6975985 10.9443422,8.97015275 10.9759478,9.24466027 C11.0191497,9.62028631 11.0454498,9.99779048 11.0856958,10.3737922 C11.0957762,10.4677738 11.1254112,10.5613047 11.1577747,10.6508539 C11.1841506,10.724101 11.2442543,10.7480659 11.3195165,10.7111795 C11.3955367,10.6739925 11.472618,10.6383831 11.5467433,10.5978907 C12.2525258,10.212273 12.9559586,9.8225985 13.6640906,9.44126294 C13.919285,9.30378381 14.1850145,9.18531135 14.4465754,9.05962688 C14.4994788,9.03423456 14.5556412,9.01552838 14.625598,8.9875818 C14.6372701,9.04783222 14.6499274,9.09230634 14.6540961,9.13753172 C14.6852469,9.47514441 14.6462894,9.80900083 14.5957356,10.142106 C14.5298717,10.5757287 14.4684037,11.0095768 14.500843,11.4503364 C14.5153952,11.6483664 14.5522305,11.840687 14.6409081,12.0393932 C14.7085911,12.0249691 14.7724844,12.014076 14.8348619,11.9975484 C15.949319,11.7019307 17.021029,11.2870142 18.0842503,10.8491845 C18.721895,10.5865467 19.3518847,10.3036252 19.9980182,10.0636002 C20.3923681,9.91710601 20.7802756,10.0007955 21.1512055,10.2609541 C21.0838257,10.3180492 21.0371373,10.3615467 20.9865077,10.4000109 C20.5478949,10.7337922 20.05077,10.9533831 19.526966,11.1136252 C18.9600359,11.2870893 18.3852992,11.4359875 17.8199608,11.6144098 C17.4744973,11.7234917 17.1413122,11.8699107 16.8011542,11.9957454 C16.6025771,12.0691427 16.4008924,12.1340509 16.2014058,12.2047437 C15.5968068,12.4187755 14.9925866,12.6337087 14.3882907,12.8483414 C14.3372822,12.8664466 14.2861979,12.8842513 14.2165443,12.9087421 C14.1722813,12.8391761 14.1215759,12.7734416 14.0858017,12.7006452 C13.9646848,12.4537087 13.9026106,12.1878406 13.9054149,11.9166386 C13.9101898,11.4368139 13.9376268,10.9572145 13.9563476,10.4775401 C13.9626384,10.3168472 13.9712788,10.1562295 13.9801466,9.96616277 C13.8923785,9.98749833 13.8296979,9.99831636 13.7698974,10.0178489 C13.433908,10.127682 13.1264166,10.2964883 12.8258982,10.4776903 C12.4686868,10.6930743 12.117084,10.9177738 11.7572957,11.1287254 C11.4437409,11.3125568 11.1153308,11.4676152 10.7585741,11.5538589 C10.6955145,11.5691093 10.6307117,11.5773731 10.5424131,11.5932245 C10.5815979,10.6794766 10.4861748,9.8053197 10.0978126,8.96083723 C10.0260368,8.98998581 9.96562995,9.01207262 9.9073453,9.03851669 C9.41158467,9.26351669 8.91574824,9.48799082 8.3917927,9.64395075 C7.97758511,9.76723122 7.55685934,9.8521227 7.12226349,9.83972705 C6.69691436,9.82755676 6.29809271,9.71930134 5.929285,9.50286561 C5.82961748,9.4444182 5.78573346,9.37740651 5.78270175,9.25976043 C5.77550143,8.9786419 5.82863218,8.71067028 5.92443426,8.44870868 C6.00697261,8.22303255 6.09542279,7.99938481 6.17091241,7.77145492 C6.22737804,7.60107095 6.2645165,7.42505259 6.25504241,7.22011102 C6.10103146,7.18284891 5.9513407,7.14070367 5.79914878,7.11110434 C5.26905402,7.00803255 4.73206211,6.96085392 4.19378173,6.92479382 C3.48648343,6.87746494 2.77797244,6.84200584 2.07256896,6.77416778 C1.43128618,6.71241486 0.803949266,6.5760626 0.223376506,6.27999416 C0.185631698,6.2607621 0.147962682,6.24145492 0.111278972,6.22041987 C0.0960446215,6.21170534 0.0833872259,6.19848331 0.0489015071,6.17038648 C0.0873284509,6.01277379 0.120374107,5.84306594 0.170397347,5.67839149 C0.33547404,5.13523623 0.627731033,4.66067028 0.987670985,4.22434307 C1.38838746,3.73843322 1.85504366,3.31848331 2.33215926,2.90927629 C2.91417208,2.41006928 3.49982296,1.91589566 4.05318611,1.38378381 C4.53287867,0.922515025 5.13027742,0.650336394 5.7747435,0.491671953 C6.94089135,0.204393155 8.07141658,0.292515025 9.18594954,0.76580384 C10.4102304,1.28567028 11.5569753,1.94399249 12.7089499,2.59622955 C12.8546995,2.67879215 13.0015101,2.7594015 13.1618118,2.84872538 C13.2741368,2.63476878 13.3056666,2.42178881 13.316126,2.2080576 C13.3287076,1.95030301 13.3142311,1.69127129 13.325979,1.43351669 C13.3390912,1.14638815 13.3566751,0.858358097 13.3961631,0.574009182 C13.4146566,0.441262938 13.488024,0.315578464 13.538881,0.187640234 C13.5823102,0.0782579299 13.662499,0.0438505843 13.7823274,0.0499357262 C14.3533503,0.079009182 14.8949655,0.213333055 15.4044447,0.471989149 C15.7194395,0.631930718 16.004193,0.833641903 16.2618885,1.07434307 C16.3737586,1.17876711 16.4675143,1.29415943 16.5285275,1.4344182 C16.6172051,1.63823289 16.705731,1.8421227 16.7941812,2.04601252 C16.812902,2.08928464 16.8311681,2.13270701 16.8504953,2.17793239 C17.2779666,1.96097078 17.7181711,2.01235643 18.1559503,2.0838005 C18.4498747,2.13180551 18.7313691,2.22841653 18.9943701,2.37025292 C19.2150029,2.48925125 19.411761,2.63754841 19.554782,2.84692237 C19.5649382,2.86179716 19.5744123,2.87779883 19.5872213,2.89019449 C20.1825736,3.47008598 20.5303867,4.19639649 20.7992995,4.95996912 C21.0045464,5.54271536 21.1637871,6.1412379 21.3433402,6.73284891 C21.3521321,6.76154674 21.3640316,6.7903197 21.3663812,6.81976878 C21.378887,6.97422621 21.4785545,7.02163022 21.6174827,7.04875042 C22.0516238,7.13379215 22.4784888,7.24647997 22.8912563,7.40807429 C23.0743717,7.47966861 23.2334607,7.5809374 23.3770123,7.71586227 C24.0715016,8.36855008 24.4833596,9.1648773 24.622591,10.1004115 C24.6551819,10.3193264 24.6717805,10.540495 24.6654897,10.7738339 C24.643434,10.7456619 24.6169823,10.719894 24.6001563,10.6888673 C24.4224222,10.3610209 24.2506,10.0299441 24.0685457,9.70435142 C23.8597366,9.33052838 23.6231873,8.97466027 23.3292628,8.65920952 C23.0760391,8.38740651 22.7953026,8.14535309 22.4480959,8.00494407 C21.9924296,7.82073706 21.5188005,7.69362521 21.0221303,7.67627129 C20.7989206,7.66845826 20.7913413,7.6730409 20.7254016,7.45465192 C20.5570658,6.89714775 20.3961577,6.33738982 20.2320663,5.77860851 C20.0932139,5.3056202 19.9396577,4.83789065 19.7209955,4.39390067 C19.5007417,3.94645492 19.2225822,3.54235643 18.825049,3.22848331 C18.4456303,2.9289591 18.0100491,2.76158013 17.5344494,2.68675543 C17.4166674,2.6681995 17.3151051,2.71094574 17.2327183,2.78223957 C17.1377499,2.86457679 17.056879,2.96306594 16.9722943,3.05667195 C16.9037018,3.13254841 16.8401117,3.21300751 16.7712918,3.28880885 C16.7474929,3.31502755 16.7171,3.33794073 16.6854944,3.35454341 C16.5862816,3.40645492 16.4814602,3.44191402 16.376184,3.37632972 C16.2966016,3.32674708 16.2608274,3.18145492 16.3063788,3.06373372 C16.4093812,2.79824124 16.3830811,2.53560351 16.2552187,2.29617947 C16.0913547,1.98936811 15.8951272,1.69953506 15.7120876,1.40279048 C15.7028409,1.38776544 15.6897287,1.37356678 15.6751007,1.36342487 C15.2577098,1.0738172 14.8428201,0.7785 14.3295513,0.673249583 C14.2425412,0.655444908 14.1523478,0.652364775 14.0613207,0.642297997 C13.935732,0.901404841 13.9038232,1.16276544 13.8977598,1.42630467 C13.8882099,1.83716444 13.9761296,2.2372813 14.049118,2.63912604 C14.1047499,2.9459374 14.1515141,3.254702 14.1904716,3.56406761 C14.2206371,3.80289065 13.9617289,4.03352504 13.7236638,3.97853339 C13.6205856,3.9547187 13.513642,3.90791569 13.431331,3.84300751 C13.1549147,3.62499416 12.8480297,3.46302421 12.5390225,3.29609599 C11.9275263,2.9656202 11.3353572,2.60013606 10.7343204,2.25065359 C10.0699208,1.86443489 9.39430391,1.50022788 8.66449515,1.24653005 C8.02950317,1.02581219 7.37836732,0.905161102 6.70229565,0.938666945 C6.26944303,0.960077629 5.84985416,1.04534474 5.44193737,1.18830801 C5.39123199,1.20603756 5.34014766,1.229101 5.29641522,1.25975209 C4.26116152,1.98493573 3.24205169,2.73062855 2.32920334,3.60748998 C1.72187573,4.19083723 1.17427283,4.82309098 0.738919053,5.54534474 C0.699052047,5.61145492 0.663429436,5.68004424 0.614997844,5.76696411 C0.872617532,5.87131302 1.09294717,6.0175818 1.36875713,6.03914274 C2.42583915,6.12178047 3.48413385,6.19457679 4.53863892,6.30328297 C5.20637338,6.37202254 5.86827181,6.49665526 6.53229243,6.59927629 C6.61308754,6.61174708 6.68251373,6.62767362 6.74458803,6.55052003 C6.79226169,6.49132137 6.86237002,6.50131302 6.92846133,6.53053673 C7.02214122,6.57193072 7.11650324,6.61174708 7.23261779,6.66170534 C6.97651396,7.43068698 6.66765835,8.18396745 6.39609278,8.96241486 C6.67349439,9.14992738 6.97075371,9.25562855 7.29552581,9.28477713 C7.69965295,9.32113773 8.07710104,9.22257346 8.43832947,9.05061185 C8.7732578,8.89112104 9.07885432,8.68527796 9.37346089,8.4630576 C9.61448196,8.28110434 9.85489669,8.09809933 10.0905365,7.90923456 C10.1810331,7.83666361 10.2741824,7.80428464 10.3900696,7.81036978 C10.5282398,7.8175818 10.6670922,7.81202254 10.8028371,7.81202254" id="Fill-8" fill="#FFFFFF" mask="url(#mask-4)"></path>
                </g>
                <path d="M2.49775892,20.515207 C2.28053679,20.5365426 2.07832163,20.5573523 1.8695125,20.4921436 C1.8695125,20.3545142 1.86708713,20.2237963 1.87004305,20.0931536 C1.87701599,19.787394 1.86352487,19.4788548 1.90225498,19.1770017 C1.93325423,18.9355492 1.9199147,18.7012337 1.91294177,18.4618097 C1.89732845,17.9287212 1.99169047,17.417419 2.21770457,16.923621 C2.49366611,16.3206661 2.94880181,15.9022187 3.50769783,15.5741469 C3.75788982,15.4273523 4.0146,15.2913756 4.26320034,15.1421018 C4.49095767,15.0052988 4.71924555,14.8673689 4.9341939,14.7120851 C5.57812943,14.2469098 5.87432765,13.610975 5.81869574,12.8262922 C5.80035389,12.5668097 5.80308243,12.3120601 5.83006466,12.0551319 C5.88077004,11.5717763 5.91927277,11.0870684 6.04584673,10.6146811 C6.23843621,9.89618364 6.64324549,9.34701836 7.33644633,9.03291987 C7.66387118,8.88454758 8.01509496,8.81347913 8.37079052,8.76990651 C9.067781,8.68456427 9.76264928,8.72528214 10.4538037,8.8285793 C11.214157,8.94231886 11.9716301,9.07506511 12.7324381,9.18542404 C13.4468609,9.28909683 14.1646944,9.35205175 14.8877576,9.2714424 C15.7323167,9.17723539 16.5001734,8.89348748 17.1622234,8.35791987 C17.293345,8.2519182 17.4249212,8.24793656 17.5686244,8.29045743 C17.7111906,8.3326778 17.751285,8.40419699 17.682162,8.53401336 C17.61266,8.66435559 17.5265594,8.79274457 17.4215864,8.89581636 C17.3202514,8.99528214 17.1932227,9.07701836 17.0640718,9.13929716 C16.4192267,9.45046578 15.7576315,9.7125025 15.0347956,9.78815359 C14.4775671,9.84652588 13.9192774,9.84772788 13.3654595,9.78064107 C12.4701193,9.67216027 11.5783413,9.53490651 10.6842896,9.4153823 C10.1617741,9.34551586 9.63751539,9.28594157 9.10886069,9.29998998 C8.66456336,9.31170952 8.22761794,9.36850417 7.81280401,9.54076628 C7.58156021,9.63685142 7.37373638,9.76802003 7.18273856,9.92901336 C6.90397268,10.1641553 6.7208573,10.4479783 6.68773586,10.8176694 C6.65287117,11.2059917 6.61186727,11.593788 6.57419826,11.9818848 C6.52606984,12.4773356 6.48809765,12.9740634 6.42738763,13.4680868 C6.38994599,13.7723439 6.29331018,14.0649566 6.16105177,14.3439716 C5.88236168,14.9320518 5.43336521,15.3429866 4.82444594,15.5754992 C4.06469903,15.8656327 3.4428192,16.3323105 2.92613976,16.9532955 C2.68746827,17.2401987 2.57499177,17.5602321 2.53800489,17.9211336 C2.48085713,18.4789382 2.5011696,19.0366678 2.52261896,19.5946978 C2.53406367,19.8941469 2.54884326,20.1936711 2.49775892,20.515207" id="Fill-11" fill="#FFFFFF"></path>
                <path d="M5.15772199,19.5310593 C5.06207149,19.5529207 4.97513717,19.580116 4.88615643,19.5913848 C4.71137826,19.6134716 4.60541994,19.5298573 4.59480895,19.3517354 C4.5859412,19.2023865 4.59518792,19.0517604 4.60011445,18.9017354 C4.60822428,18.6557755 4.6205785,18.4099658 4.62876412,18.1640058 C4.64005725,17.8269942 4.67295132,17.4929875 4.77375573,17.169273 C4.88562588,16.8097237 5.0746531,16.5023865 5.39374074,16.284298 C5.52061786,16.1976035 5.65696909,16.1399825 5.81120742,16.1198489 C6.25535316,16.0618523 6.7004842,16.0087387 7.14258354,15.9378205 C7.54807496,15.8727621 7.92256712,15.7285217 8.2507499,15.4711427 C8.39824266,15.3553748 8.45379878,15.2298406 8.39740894,15.0520192 C8.308504,14.7718773 8.2286184,14.4888055 8.13546907,14.210091 C8.01745969,13.8571528 7.88451914,13.5095484 7.8513219,13.1338472 C7.82047424,12.7860175 7.88883933,12.4628289 8.08309625,12.1727705 C8.61804175,11.3738139 9.34701679,10.8808422 10.326866,10.7773948 C10.8625694,10.7208255 11.3920578,10.7634967 11.9200304,10.8421528 C12.6085321,10.9446987 13.294381,11.0653497 13.9836406,11.1621861 C14.5685336,11.2443731 15.1545634,11.2469274 15.7365762,11.1177871 C16.2613655,11.0012679 16.7312808,10.7758172 17.1369238,10.4271611 C17.2365155,10.3415184 17.3348188,10.3028289 17.4634391,10.311919 C17.5760672,10.3198823 17.6896806,10.3135718 17.8398261,10.3135718 C17.7814657,10.407328 17.7458431,10.4743397 17.7011253,10.5345902 C17.5297578,10.7652245 17.309504,10.9433464 17.067725,11.0960008 C16.6031152,11.3892896 16.0929539,11.5707922 15.562935,11.7112763 C14.8760249,11.8933047 14.1844915,11.8872195 13.4893201,11.79151 C12.8415949,11.7023364 12.1962951,11.5963347 11.548191,11.510692 C11.0367412,11.4431544 10.5232451,11.411076 10.0106584,11.5159508 C9.35080643,11.6508756 8.91530107,12.0420526 8.65298223,12.648313 C8.53777719,12.9147821 8.50480732,13.1760676 8.60023045,13.4520776 C8.68845325,13.7073531 8.77000629,13.9649574 8.85944178,14.2197821 C8.98571257,14.5793314 9.07014573,14.9429374 9.05854944,15.3291561 C9.0495301,15.6301828 8.93538616,15.8556336 8.68602788,16.0268439 C8.40589774,16.2191644 8.09484413,16.3312513 7.7651455,16.3914265 C7.38428674,16.4609174 6.99857724,16.5050159 6.61824903,16.5772112 C6.38753578,16.6210092 6.15560985,16.6780292 5.9374782,16.7626202 C5.49954747,16.9325534 5.25170505,17.2655835 5.19516363,17.7271528 C5.17265317,17.9105334 5.18280941,18.0976703 5.17621543,18.2830793 C5.17181945,18.4088389 5.1597684,18.5344482 5.15855571,18.6602078 C5.15582717,18.9417771 5.15772199,19.2233464 5.15772199,19.5310593" id="Fill-13" fill="#FFFFFF"></path>
                <path d="M19.3253117,11.5043289 C19.2949188,11.6702053 19.2719536,11.8235359 19.2380742,11.9743122 C19.141211,12.4055309 18.9828041,12.8127846 18.7342038,13.1818748 C18.4265608,13.6386361 18.0187956,13.9576177 17.4706622,14.0891619 C17.2653395,14.1384441 17.0682025,14.2231102 16.8618187,14.2651803 C16.3623442,14.3670501 15.8597623,14.3349716 15.3625616,14.2467746 C14.8144281,14.1494124 14.2703875,14.029813 13.7227846,13.9290701 C13.3413195,13.858828 12.957808,13.806616 12.5671719,13.8672421 C12.1847973,13.9266661 11.8704088,14.0947963 11.6284025,14.3973255 C11.5418471,14.505581 11.4890953,14.6214992 11.4909143,14.7595793 C11.4958409,15.1436194 11.5056939,15.5276594 11.5062245,15.9116995 C11.5066792,16.2531436 11.5209283,16.5969165 11.4868215,16.9355058 C11.4327055,17.4718998 11.1265784,17.8250634 10.6043661,17.9890618 C10.2786845,18.0913072 9.94072444,18.1213573 9.60420446,18.1633523 C9.19007266,18.2150384 8.77321233,18.2565826 8.36446182,18.3368164 C7.71393231,18.464379 7.21332095,18.8347462 6.84928818,19.3740701 C6.67511636,19.6320501 6.54391904,19.918803 6.39794213,20.1949633 C6.27159555,20.4340117 6.15790637,20.6798214 6.02708801,20.9164658 C5.92825422,21.0952638 5.79948227,21.2542287 5.63114649,21.3890785 C5.54618277,21.3187613 5.49949441,21.2325927 5.50016918,21.1373339 C5.50116186,21.0011319 5.50563363,20.8599716 5.54186258,20.7300801 C5.62220294,20.4418998 5.71739868,20.1574758 5.81691461,19.8750801 C6.06362014,19.1749132 6.50102032,18.6248464 7.14541061,18.2402805 C7.62404207,17.9546544 8.14579962,17.7781853 8.69037081,17.6811235 C9.2201624,17.586616 9.75571424,17.520581 10.2908871,17.4605559 C10.4938602,17.4378681 10.6439299,17.3531269 10.7282873,17.1852972 C10.8024127,17.0379015 10.8644869,16.8721002 10.8784328,16.7099048 C10.9057182,16.3940033 10.9058698,16.0747212 10.8985937,15.7571669 C10.8879069,15.2880851 10.8812372,14.8202805 10.9929557,14.3602888 C11.0836797,13.9869917 11.2667951,13.6707145 11.5833815,13.4369249 C11.7896137,13.2846461 12.0154004,13.2094457 12.274536,13.2043372 C12.8292634,13.1935192 13.3737588,13.2676678 13.9171931,13.364429 C14.477226,13.4641202 15.0356673,13.5784608 15.5995656,13.6491536 C16.2945855,13.7362237 16.9803586,13.6897963 17.6171696,13.354212 C17.7132749,13.3035025 17.8058179,13.2460317 17.8996494,13.1911152 C18.1442327,13.0479265 18.3106737,12.8389282 18.4139792,12.5801219 C18.4896962,12.3905058 18.5528316,12.1959316 18.6314287,12.0075927 C18.6819067,11.8863406 18.7379176,11.7639616 18.8134072,11.6572838 C18.9286123,11.4943372 19.0941437,11.4405476 19.3253117,11.5043289" id="Fill-15" fill="#FFFFFF"></path>
                <path d="M35.445119,10.738187 C35.3795583,10.6897312 35.3213494,10.6480367 35.2645806,10.6046144 C33.3746116,9.15943072 31.3823982,7.8740384 29.2408729,6.82228548 C27.0369702,5.73980634 24.7342337,4.94362938 22.3187934,4.4737212 C22.0574598,4.42293656 21.7950652,4.37590818 21.5316095,4.33827045 C21.4589242,4.32790317 21.3763858,4.34660935 21.3052922,4.37147579 C20.9455038,4.49753589 20.5812437,4.50414691 20.2136487,4.4197813 C20.1339147,4.40145075 20.059183,4.36185977 19.9735371,4.32865442 C20.0792681,4.14069115 20.23146,4.03769449 20.4082088,3.96722705 C20.6950087,3.8529616 20.9962092,3.82937229 21.3008962,3.84710184 C22.2433795,3.90209349 23.1546362,4.12003172 24.061497,4.36531553 C26.0990345,4.91643406 28.0820012,5.61284474 29.9844002,6.5267429 C31.8348811,7.41562437 33.5670495,8.48931386 35.1596834,9.78034057 C35.3000516,9.89400501 35.4273077,10.0237462 35.5575955,10.1490551 C35.5962498,10.1862421 35.6296745,10.2308664 35.6571872,10.2768431 C35.7285841,10.3963673 35.724946,10.428596 35.6346768,10.5319683 C35.5757858,10.5994307 35.5134083,10.6641135 35.445119,10.738187" id="Fill-17" fill="#FFFFFF"></path>
            </g>
        </g>
    </g>
</svg>